<?xml version="1.0" encoding="UTF-8"?>
<svg xmlns="http://www.w3.org/2000/svg" xmlns:xlink="http://www.w3.org/1999/xlink" version="1.2" >
<font id="Marianina Cn FY Thin">
<font-face  font-family="Marianina Cn FY" units-per-em="1000" ascent="710" descent="-210" font-style="normal" font-weight="250" font-stretch="normal" cap-height="665" x-height="500" underline-position="-75" underline-thickness="50" />
<missing-glyph  horiz-adv-x="602" d="M305 435 Q321 464 346.5 482 Q372 500 403 500 Q446 500 474 470.5 Q502 441 502 395 Q502 365 488.5 330 Q475 295 449.5 260 Q424 225 386.5 192.5 Q349 160 301 135 Q253 160 215.5 192.5 Q178 225 152.5 260 Q127 295 113.5 330 Q100 365 100 395 Q100 441 128 470.5 Q156 500 199 500 Q230 500 255.5 482 Q281 464 297 435 L305 435 Z " />
<glyph glyph-name=".null" d="" />
<glyph glyph-name="nonmarkingreturn" unicode="&#xd;" d="" />
<glyph glyph-name="space" unicode="&#x20;" horiz-adv-x="160" d="" />
<glyph glyph-name="uni00A0" unicode="&#xa0;" horiz-adv-x="160" d="" />
<glyph glyph-name="A" unicode="A" horiz-adv-x="326" d="M30 0 L150 665 L176 665 L296 0 L276 0 L241 206 L85 206 L50 0 L30 0 Z M89 224 L238 224 L164 647 L162 647 L89 224 Z " />
<glyph glyph-name="B" unicode="B" horiz-adv-x="331" d="M281 151 Q281 77 254 38.5 Q227 0 173 0 L65 0 L65 665 L158 665 Q212 665 241 631 Q270 597 270 525 L270 496 Q270 436 251.5 407 Q233 378 204 365 Q226 360 241 346 Q256 332 265 312.5 Q274 293 277.5 268.5 Q281 244 281 219 L281 151 Z M261 227 Q261 248 256.5 270.5 Q252 293 242 311 Q232 329 216 340.5 Q200 352 177 352 L85 352 L85 18 L173 18 Q197 18 214 29 Q231 40 241.5 58 Q252 76 256.5 98 Q261 120 261 142 L261 227 Z M250 533 Q250 555 244.5 575.5 Q239 596 227.5 612 Q216 628 199 637.5 Q182 647 158 647 L85 647 L85 370 L160 370 Q183 370 200 380 Q217 390 228 406.5 Q239 423 244.5 444.5 Q250 466 250 488 L250 533 Z " />
<glyph glyph-name="C" unicode="C" horiz-adv-x="306" d="M251 525 L251 533 Q251 555 246.5 577 Q242 599 231.5 617 Q221 635 204 646 Q187 657 163 657 Q139 657 122 646 Q105 635 94.5 617 Q84 599 79.5 577 Q75 555 75 533 L75 132 Q75 110 79.5 88 Q84 66 94.5 48 Q105 30 122 19 Q139 8 163 8 Q187 8 204 19 Q221 30 231.5 48 Q242 66 246.5 88 Q251 110 251 132 L251 140 L271 140 L271 134 Q271 66 244 28 Q217 -10 163 -10 Q109 -10 82 28.5 Q55 67 55 140 L55 525 Q55 598 82 636.5 Q109 675 163 675 Q217 675 244 636 Q271 597 271 531 L271 525 L251 525 Z " />
<glyph glyph-name="D" unicode="D" horiz-adv-x="336" d="M281 151 Q281 77 254 38.5 Q227 0 173 0 L65 0 L65 665 L173 665 Q227 665 254 626.5 Q281 588 281 514 L281 151 Z M261 523 Q261 545 256.5 567 Q252 589 241.5 607 Q231 625 214 636 Q197 647 173 647 L85 647 L85 18 L173 18 Q197 18 214 29 Q231 40 241.5 58 Q252 76 256.5 98 Q261 120 261 142 L261 523 Z " />
<glyph glyph-name="E" unicode="E" horiz-adv-x="280" d="M255 647 L85 647 L85 368 L228 368 L228 350 L85 350 L85 18 L255 18 L255 0 L65 0 L65 665 L255 665 L255 647 Z " />
<glyph glyph-name="F" unicode="F" horiz-adv-x="275" d="M65 0 L65 665 L255 665 L255 647 L85 647 L85 368 L228 368 L228 350 L85 350 L85 0 L65 0 Z " />
<glyph glyph-name="G" unicode="G" horiz-adv-x="321" d="M177 349 L177 367 L271 367 L271 140 Q271 67 244 28.5 Q217 -10 163 -10 Q109 -10 82 28.5 Q55 67 55 140 L55 525 Q55 598 82 636.5 Q109 675 163 675 Q217 675 244 639 Q271 603 271 534 L271 527 L251 527 L251 533 Q251 557 246.5 579.5 Q242 602 231.5 619 Q221 636 204 646.5 Q187 657 163 657 Q139 657 122 647 Q105 637 94.5 620 Q84 603 79.5 580.5 Q75 558 75 533 L75 132 Q75 110 79.5 88 Q84 66 94.5 48 Q105 30 122 19 Q139 8 163 8 Q187 8 204 18.5 Q221 29 231.5 46 Q242 63 246.5 85.5 Q251 108 251 132 L251 349 L177 349 Z " />
<glyph glyph-name="H" unicode="H" horiz-adv-x="357" d="M272 0 L272 352 L85 352 L85 0 L65 0 L65 665 L85 665 L85 370 L272 370 L272 665 L292 665 L292 0 L272 0 Z " />
<glyph glyph-name="I" unicode="I" horiz-adv-x="150" d="M65 0 L65 665 L85 665 L85 0 L65 0 Z " />
<glyph glyph-name="J" unicode="J" horiz-adv-x="190" d="M25 8 Q48 9 63.5 20.5 Q79 32 88 49.5 Q97 67 101 88.5 Q105 110 105 132 L105 665 L125 665 L125 140 Q125 70 100 31.5 Q75 -7 25 -10 L25 8 Z " />
<glyph glyph-name="K" unicode="K" horiz-adv-x="320" d="M167 391 L305 0 L284 0 L155 369 L85 229 L85 0 L65 0 L65 665 L85 665 L85 264 L280 665 L300 665 L167 391 Z " />
<glyph glyph-name="L" unicode="L" horiz-adv-x="270" d="M85 665 L85 18 L255 18 L255 0 L65 0 L65 665 L85 665 Z " />
<glyph glyph-name="M" unicode="M" horiz-adv-x="454" d="M65 0 L65 665 L102 665 L226 76 L228 76 L352 665 L389 665 L389 0 L369 0 L369 657 L367 657 L235 31 L219 31 L87 657 L85 657 L85 0 L65 0 Z " />
<glyph glyph-name="N" unicode="N" horiz-adv-x="365" d="M300 0 L262 0 L87 657 L85 657 L85 0 L65 0 L65 665 L103 665 L278 8 L280 8 L280 665 L300 665 L300 0 Z " />
<glyph glyph-name="O" unicode="O" horiz-adv-x="326" d="M271 140 Q271 67 244 28.5 Q217 -10 163 -10 Q109 -10 82 28.5 Q55 67 55 140 L55 525 Q55 598 82 636.5 Q109 675 163 675 Q217 675 244 636.5 Q271 598 271 525 L271 140 Z M251 533 Q251 555 246.5 577 Q242 599 231.5 617 Q221 635 204 646 Q187 657 163 657 Q139 657 122 646 Q105 635 94.5 617 Q84 599 79.5 577 Q75 555 75 533 L75 132 Q75 110 79.5 88 Q84 66 94.5 48 Q105 30 122 19 Q139 8 163 8 Q187 8 204 19 Q221 30 231.5 48 Q242 66 246.5 88 Q251 110 251 132 L251 533 Z " />
<glyph glyph-name="P" unicode="P" horiz-adv-x="326" d="M276 448 Q276 374 249 335.5 Q222 297 168 297 L85 297 L85 0 L65 0 L65 665 L168 665 Q222 665 249 626.5 Q276 588 276 514 L276 448 Z M256 523 Q256 545 251.5 567 Q247 589 236.5 607 Q226 625 209 636 Q192 647 168 647 L85 647 L85 315 L168 315 Q192 315 209 326 Q226 337 236.5 355 Q247 373 251.5 395 Q256 417 256 440 L256 523 Z " />
<glyph glyph-name="Q" unicode="Q" horiz-adv-x="326" d="M271 140 Q271 -5 167 -10 Q168 -64 192.5 -93 Q217 -122 271 -122 L271 -140 Q204 -140 177 -104.5 Q150 -69 149 -9 Q101 -4 78 33.5 Q55 71 55 140 L55 525 Q55 598 82 636.5 Q109 675 163 675 Q217 675 244 636.5 Q271 598 271 525 L271 140 Z M251 533 Q251 555 246.5 577 Q242 599 231.5 617 Q221 635 204 646 Q187 657 163 657 Q139 657 122 646 Q105 635 94.5 617 Q84 599 79.5 577 Q75 555 75 533 L75 132 Q75 110 79.5 88 Q84 66 94.5 48 Q105 30 122 19 Q139 8 163 8 Q187 8 204 19 Q221 30 231.5 48 Q242 66 246.5 88 Q251 110 251 132 L251 533 Z " />
<glyph glyph-name="R" unicode="R" horiz-adv-x="335" d="M281 494 Q281 377 206 346 L305 0 L282 0 L185 343 L85 343 L85 0 L65 0 L65 665 L173 665 Q227 665 254 626.5 Q281 588 281 514 L281 494 Z M261 523 Q261 545 256.5 567 Q252 589 241.5 607 Q231 625 214 636 Q197 647 173 647 L85 647 L85 361 L173 361 Q197 361 214 372 Q231 383 241.5 401 Q252 419 256.5 441 Q261 463 261 486 L261 523 Z " />
<glyph glyph-name="S" unicode="S" horiz-adv-x="285" d="M40 541 Q40 563 45.5 587 Q51 611 63.5 630.5 Q76 650 95.5 662.5 Q115 675 143 675 Q193 675 219 640 Q245 605 245 535 L245 527 L225 527 L225 533 Q225 555 221 577 Q217 599 208 617 Q199 635 183 646 Q167 657 143 657 Q107 657 83.5 627 Q60 597 60 552 L60 511 Q60 469 77.5 438 Q95 407 138 373 Q160 355 179.5 335.5 Q199 316 213.5 293.5 Q228 271 236.5 244.5 Q245 218 245 184 L245 124 Q245 100 239 76 Q233 52 220.5 33 Q208 14 189 2 Q170 -10 143 -10 Q40 -10 40 130 L40 138 L60 138 L60 132 Q60 110 64 88 Q68 66 77.5 48 Q87 30 103 19 Q119 8 143 8 Q180 8 202.5 38 Q225 68 225 113 L225 174 Q225 228 201.5 270.5 Q178 313 128 355 Q108 372 91.5 387.5 Q75 403 63.5 420.5 Q52 438 46 459 Q40 480 40 508 L40 541 Z " />
<glyph glyph-name="T" unicode="T" horiz-adv-x="296" d="M136 0 L136 647 L20 647 L20 665 L276 665 L276 647 L156 647 L156 0 L136 0 Z " />
<glyph glyph-name="U" unicode="U" horiz-adv-x="346" d="M281 665 L281 140 Q281 67 254 28.5 Q227 -10 173 -10 Q119 -10 92 28.5 Q65 67 65 140 L65 665 L85 665 L85 132 Q85 110 89.5 88 Q94 66 104.5 48 Q115 30 132 19 Q149 8 173 8 Q197 8 214 19 Q231 30 241.5 48 Q252 66 256.5 88 Q261 110 261 132 L261 665 L281 665 Z " />
<glyph glyph-name="V" unicode="V" horiz-adv-x="306" d="M167 0 L139 0 L30 665 L50 665 L152 18 L154 18 L256 665 L276 665 L167 0 Z " />
<glyph glyph-name="W" unicode="W" horiz-adv-x="473" d="M241 665 L341 18 L343 18 L423 665 L443 665 L356 0 L328 0 L233 610 L231 610 L136 0 L109 0 L30 665 L50 665 L122 18 L124 18 L224 665 L241 665 Z " />
<glyph glyph-name="X" unicode="X" horiz-adv-x="291" d="M266 0 L246 0 L145 307 L143 307 L45 0 L25 0 L136 331 L26 665 L46 665 L147 358 L149 358 L246 665 L266 665 L155 335 L266 0 Z " />
<glyph glyph-name="Y" unicode="Y" horiz-adv-x="310" d="M165 232 L165 0 L145 0 L145 232 L30 665 L50 665 L154 257 L156 257 L260 665 L280 665 L165 232 Z " />
<glyph glyph-name="Z" unicode="Z" horiz-adv-x="263" d="M35 647 L35 665 L233 665 L233 641 L48 18 L228 18 L228 0 L30 0 L30 24 L215 647 L35 647 Z " />
<glyph glyph-name="AE" unicode="&#xc6;" horiz-adv-x="474" d="M259 215 L112 215 L40 0 L20 0 L246 665 L449 665 L449 647 L279 647 L279 368 L422 368 L422 350 L279 350 L279 18 L449 18 L449 0 L259 0 L259 215 Z M259 233 L259 653 L257 653 L118 233 L259 233 Z " />
<glyph glyph-name="OE" unicode="&#x152;" horiz-adv-x="466" d="M441 647 L271 647 L271 368 L414 368 L414 350 L271 350 L271 18 L441 18 L441 0 L251 0 L251 40 Q224 -10 163 -10 Q109 -10 82 28.5 Q55 67 55 140 L55 525 Q55 598 82 636.5 Q109 675 163 675 Q223 675 251 625 L251 665 L441 665 L441 647 Z M163 8 Q186 8 202.5 18 Q219 28 230 44 Q241 60 246 81 Q251 102 251 123 L251 533 Q251 555 246.5 577 Q242 599 231.5 617 Q221 635 204 646 Q187 657 163 657 Q139 657 122 646 Q105 635 94.5 617 Q84 599 79.5 577 Q75 555 75 533 L75 132 Q75 110 79.5 88 Q84 66 94.5 48 Q105 30 122 19 Q139 8 163 8 Z " />
<glyph glyph-name="Lslash" unicode="&#x141;" horiz-adv-x="280" d="M18 278 L75 311 L75 665 L95 665 L95 322 L219 394 L219 373 L95 301 L95 18 L265 18 L265 0 L75 0 L75 290 L18 257 L18 278 Z " />
<glyph glyph-name="Oslash" unicode="&#xd8;" horiz-adv-x="326" d="M271 140 Q271 67 244 28.5 Q217 -10 163 -10 Q113 -10 86 22 L71 -35 L55 -30 L74 41 Q55 76 55 140 L55 525 Q55 598 82 636.5 Q109 675 163 675 Q212 675 239 642 L255 700 L270 695 L251 625 Q271 587 271 525 L271 140 Z M251 533 Q251 563 242 592 L94 50 Q105 31 121.5 19.5 Q138 8 163 8 Q187 8 204 19 Q221 30 231.5 48 Q242 66 246.5 88 Q251 110 251 132 L251 533 Z M75 132 Q75 117 76.5 102.5 Q78 88 83 74 L232 616 Q221 634 204.5 645.5 Q188 657 163 657 Q139 657 122 646 Q105 635 94.5 617 Q84 599 79.5 577 Q75 555 75 533 L75 132 Z " />
<glyph glyph-name="Eth" unicode="&#xd0;" horiz-adv-x="341" d="M23 341 L70 341 L70 665 L178 665 Q232 665 259 626.5 Q286 588 286 514 L286 151 Q286 77 259 38.5 Q232 0 178 0 L70 0 L70 323 L23 323 L23 341 Z M266 523 Q266 545 261.5 567 Q257 589 246.5 607 Q236 625 219 636 Q202 647 178 647 L90 647 L90 341 L173 341 L173 323 L90 323 L90 18 L178 18 Q202 18 219 29 Q236 40 246.5 58 Q257 76 261.5 98 Q266 120 266 142 L266 523 Z " />
<glyph glyph-name="Thorn" unicode="&#xde;" horiz-adv-x="321" d="M276 299 Q276 225 249 186.5 Q222 148 168 148 L85 148 L85 0 L65 0 L65 665 L85 665 L85 516 L168 516 Q222 516 249 477.5 Q276 439 276 365 L276 299 Z M256 374 Q256 396 251.5 418 Q247 440 236.5 458 Q226 476 209 487 Q192 498 168 498 L85 498 L85 166 L168 166 Q192 166 209 177 Q226 188 236.5 206 Q247 224 251.5 246 Q256 268 256 291 L256 374 Z " />
<glyph glyph-name="a" unicode="a" horiz-adv-x="310" d="M50 378 L50 390 Q50 413 55 435 Q60 457 72 473.5 Q84 490 102.5 500 Q121 510 148 510 Q201 510 223.5 471 Q246 432 246 358 L246 60 Q246 30 254.5 20.5 Q263 11 277 8 L277 -10 Q248 -8 237 10.5 Q226 29 226 55 Q213 25 192 7.5 Q171 -10 139 -10 Q94 -10 72 21.5 Q50 53 50 113 L50 159 Q50 184 55.5 207 Q61 230 72.5 247 Q84 264 103 274 Q122 284 149 284 Q166 284 186.5 279 Q207 274 226 261 L226 366 Q226 387 223 409.5 Q220 432 211.5 450.5 Q203 469 187.5 480.5 Q172 492 148 492 Q127 492 112.5 483.5 Q98 475 88.5 461 Q79 447 74.5 428.5 Q70 410 70 390 L70 378 L50 378 Z M226 245 Q209 254 193.5 259.5 Q178 265 153 265 Q103 265 86.5 233.5 Q70 202 70 139 L70 134 Q70 105 73 82 Q76 59 84 42.5 Q92 26 107 17 Q122 8 146 8 Q174 8 194.5 29.5 Q215 51 226 79 L226 245 Z " />
<glyph glyph-name="b" unicode="b" horiz-adv-x="316" d="M85 61 Q92 43 112 25.5 Q132 8 163 8 Q185 8 200 18.5 Q215 29 224 46.5 Q233 64 237 86.5 Q241 109 241 134 L241 366 Q241 388 238 410.5 Q235 433 226.5 451 Q218 469 203 480.5 Q188 492 163 492 Q134 492 114.5 470 Q95 448 85 421 L85 61 Z M80 0 L65 0 L65 710 L83 710 L85 665 L85 445 Q97 474 118.5 492 Q140 510 169 510 Q216 510 238.5 471 Q261 432 261 358 L261 142 Q261 68 239 29 Q217 -10 163 -10 Q134 -10 114.5 3 Q95 16 85 33 L80 0 Z " />
<glyph glyph-name="c" unicode="c" horiz-adv-x="295" d="M232 358 L232 366 Q232 390 229 412.5 Q226 435 217 452.5 Q208 470 192.5 481 Q177 492 153 492 Q128 492 113 480.5 Q98 469 89.5 450.5 Q81 432 78 409.5 Q75 387 75 366 L75 134 Q75 113 78 90.5 Q81 68 89.5 49.5 Q98 31 113 19.5 Q128 8 153 8 Q177 8 192.5 19 Q208 30 217 47.5 Q226 65 229 87.5 Q232 110 232 134 L232 142 L250 142 L250 134 Q250 64 227.5 27 Q205 -10 153 -10 Q99 -10 77 29 Q55 68 55 142 L55 358 Q55 432 77 471 Q99 510 153 510 Q205 510 227.5 473 Q250 436 250 367 L250 358 L232 358 Z " />
<glyph glyph-name="d" unicode="d" horiz-adv-x="316" d="M231 438 Q223 456 203.5 474 Q184 492 153 492 Q130 492 115 481.5 Q100 471 91 453.5 Q82 436 78.5 413.5 Q75 391 75 366 L75 134 Q75 111 78 88.5 Q81 66 89.5 48 Q98 30 113 19 Q128 8 153 8 Q182 8 201 30 Q220 52 231 80 L231 438 Z M251 60 Q251 31 258.5 19.5 Q266 8 283 8 L283 -10 Q254 -10 242.5 8.5 Q231 27 231 53 Q220 27 199.5 8.5 Q179 -10 147 -10 Q100 -10 77.5 29 Q55 68 55 142 L55 358 Q55 432 77 471 Q99 510 153 510 Q182 510 201 496 Q220 482 231 462 L231 710 L249 710 L251 665 L251 60 Z " />
<glyph glyph-name="e" unicode="e" horiz-adv-x="301" d="M75 284 L231 284 L231 366 Q231 388 228 410.5 Q225 433 216.5 451 Q208 469 192.5 480.5 Q177 492 153 492 Q128 492 113 480.5 Q98 469 89.5 450.5 Q81 432 78 409.5 Q75 387 75 366 L75 284 Z M233 142 L251 142 L251 134 Q251 65 228 27.5 Q205 -10 153 -10 Q99 -10 77 29 Q55 68 55 142 L55 358 Q55 432 77 471 Q99 510 153 510 Q207 510 229 471 Q251 432 251 358 L251 265 L75 265 L75 134 Q75 113 78 90.5 Q81 68 89.5 49.5 Q98 31 113 19.5 Q128 8 153 8 Q177 8 192.5 19 Q208 30 217 47.5 Q226 65 229.5 87.5 Q233 110 233 134 L233 142 Z " />
<glyph glyph-name="f" unicode="f" horiz-adv-x="206" d="M85 482 L85 0 L65 0 L65 556 Q65 631 87 670.5 Q109 710 163 710 Q189 710 209.5 698.5 Q230 687 241 667 L224 655 Q213 672 199.5 682 Q186 692 163 692 Q138 692 123 680 Q108 668 99.5 649.5 Q91 631 88 608.5 Q85 586 85 565 L85 500 L201 500 L201 482 L85 482 Z " />
<glyph glyph-name="g" unicode="g" horiz-adv-x="313" d="M231 440 Q224 458 204 475 Q184 492 153 492 Q130 492 115 481.5 Q100 471 91 453.5 Q82 436 78.5 413.5 Q75 391 75 366 L75 134 Q75 111 78 88.5 Q81 66 89.5 48 Q98 30 113 19 Q128 8 153 8 Q181 8 200.5 29.5 Q220 51 231 79 L231 440 Z M76 -103 L76 -112 Q76 -146 96.5 -169 Q117 -192 153 -192 Q177 -192 192.5 -181.5 Q208 -171 216.5 -154 Q225 -137 228 -114 Q231 -91 231 -65 L231 53 Q218 25 198 7.5 Q178 -10 147 -10 Q100 -10 77.5 29 Q55 68 55 142 L55 358 Q55 432 77 471 Q99 510 153 510 Q185 510 203.5 495 Q222 480 231 464 L237 500 L251 500 L251 -56 Q251 -131 229 -170.5 Q207 -210 153 -210 Q109 -210 83.5 -184.5 Q58 -159 58 -111 L58 -103 L76 -103 Z " />
<glyph glyph-name="h" unicode="h" horiz-adv-x="323" d="M85 444 Q96 469 116.5 489.5 Q137 510 173 510 Q219 510 240 471 Q261 432 261 358 L261 0 L243 0 L241 44 L241 366 Q241 391 238 413.5 Q235 436 227 453.5 Q219 471 205 481.5 Q191 492 168 492 Q137 492 116 469.5 Q95 447 85 420 L85 0 L65 0 L65 710 L83 710 L85 665 L85 444 Z " />
<glyph glyph-name="i" unicode="i" horiz-adv-x="150" d="M65 500 L82 500 L85 455 L85 0 L65 0 L65 500 Z M75 633 Q95 633 95 613 Q95 592 75 592 Q55 592 55 613 Q55 633 75 633 Z " />
<glyph glyph-name="j" unicode="j" horiz-adv-x="150" d="M82 500 L85 455 L85 -55 Q85 -93 82 -121.5 Q79 -150 69.5 -170 Q60 -190 42.5 -200 Q25 -210 -3 -210 L-3 -191 Q21 -191 35 -179.5 Q49 -168 55.5 -150 Q62 -132 63.5 -109 Q65 -86 65 -63 L65 500 L82 500 Z M75 633 Q95 633 95 613 Q95 592 75 592 Q55 592 55 613 Q55 633 75 633 Z " />
<glyph glyph-name="k" unicode="k" horiz-adv-x="297" d="M165 318 L282 0 L261 0 L151 297 L85 192 L85 0 L65 0 L65 710 L83 710 L85 666 L85 220 L254 500 L276 500 L165 318 Z " />
<glyph glyph-name="l" unicode="l" horiz-adv-x="150" d="M85 665 L85 0 L67 0 L65 45 L65 710 L83 710 L85 665 Z " />
<glyph glyph-name="m" unicode="m" horiz-adv-x="492" d="M258 0 L238 0 L238 366 Q238 391 235.5 413.5 Q233 436 225.5 453.5 Q218 471 204.5 481.5 Q191 492 168 492 Q137 492 116 469.5 Q95 447 85 420 L85 0 L65 0 L65 500 L83 500 L85 444 Q98 472 119.5 491 Q141 510 173 510 Q203 510 224 491.5 Q245 473 253 438 Q264 468 286 489 Q308 510 343 510 Q389 510 409.5 471 Q430 432 430 358 L430 0 L412 0 L410 45 L410 366 Q410 391 407.5 413.5 Q405 436 397 453.5 Q389 471 375 481.5 Q361 492 338 492 Q322 492 309.5 485.5 Q297 479 287.5 469.5 Q278 460 270.5 448 Q263 436 258 424 L258 0 Z " />
<glyph glyph-name="n" unicode="n" horiz-adv-x="323" d="M85 444 Q96 473 119.5 491.5 Q143 510 173 510 Q219 510 240 471 Q261 432 261 358 L261 0 L244 0 L241 45 L241 366 Q241 391 238 413.5 Q235 436 227 453.5 Q219 471 205 481.5 Q191 492 168 492 Q137 492 116 469.5 Q95 447 85 420 L85 0 L65 0 L65 500 L83 500 L85 444 Z " />
<glyph glyph-name="o" unicode="o" horiz-adv-x="306" d="M251 142 Q251 68 229 29 Q207 -10 153 -10 Q99 -10 77 29 Q55 68 55 142 L55 358 Q55 432 77 471 Q99 510 153 510 Q207 510 229 471 Q251 432 251 358 L251 142 Z M231 366 Q231 388 228 410.5 Q225 433 216.5 451 Q208 469 192.5 480.5 Q177 492 153 492 Q128 492 113 480.5 Q98 469 89.5 450.5 Q81 432 78 409.5 Q75 387 75 366 L75 134 Q75 113 78 90.5 Q81 68 89.5 49.5 Q98 31 113 19.5 Q128 8 153 8 Q177 8 192.5 19.5 Q208 31 216.5 49 Q225 67 228 89.5 Q231 112 231 134 L231 366 Z " />
<glyph glyph-name="p" unicode="p" horiz-adv-x="316" d="M65 500 L83 500 L85 444 Q96 473 119 491.5 Q142 510 171 510 Q218 510 239.5 471 Q261 432 261 358 L261 142 Q261 68 239 29 Q217 -10 163 -10 Q137 -10 116.5 3 Q96 16 85 33 L85 -165 L83 -210 L65 -210 L65 500 Z M85 57 Q92 39 113 23.5 Q134 8 163 8 Q185 8 200 18.5 Q215 29 224 46.5 Q233 64 237 86.5 Q241 109 241 134 L241 366 Q241 388 238.5 410.5 Q236 433 228 451 Q220 469 205.5 480.5 Q191 492 167 492 Q137 492 116 469.5 Q95 447 85 420 L85 57 Z " />
<glyph glyph-name="q" unicode="q" horiz-adv-x="316" d="M231 438 Q223 456 203.5 474 Q184 492 153 492 Q130 492 115 481.5 Q100 471 91 453.5 Q82 436 78.5 413.5 Q75 391 75 366 L75 134 Q75 111 78 88.5 Q81 66 89.5 48 Q98 30 113 19 Q128 8 153 8 Q182 8 201 30 Q220 52 231 80 L231 438 Z M231 53 Q220 27 199.5 8.5 Q179 -10 147 -10 Q100 -10 77.5 29 Q55 68 55 142 L55 358 Q55 432 77 471 Q99 510 153 510 Q182 510 201 496 Q220 482 231 462 L237 500 L251 500 L251 -210 L233 -210 L231 -165 L231 53 Z " />
<glyph glyph-name="r" unicode="r" horiz-adv-x="216" d="M65 500 L84 500 L86 444 Q97 473 120 491.5 Q143 510 169 510 Q183 510 192 507 Q201 504 211 497 L198 478 Q184 489 165 489 Q138 489 117 468.5 Q96 448 85 420 L85 0 L65 0 L65 500 Z " />
<glyph glyph-name="s" unicode="s" horiz-adv-x="268" d="M60 142 L60 134 Q60 112 62.5 89.5 Q65 67 73 49 Q81 31 95.5 19.5 Q110 8 134 8 Q169 8 189 39.5 Q209 71 209 115 Q209 162 191.5 197 Q174 232 129 263 Q89 290 64.5 321 Q40 352 40 404 Q40 425 45.5 444 Q51 463 62 477.5 Q73 492 90.5 501 Q108 510 132 510 Q182 510 205 473.5 Q228 437 228 367 L228 358 L208 358 L208 366 Q208 388 205 410.5 Q202 433 193.5 451 Q185 469 170.5 480.5 Q156 492 133 492 Q112 492 98 484 Q84 476 75.5 464 Q67 452 63.5 437 Q60 422 60 408 Q60 369 76 340 Q92 311 136 282 Q184 250 206 212 Q228 174 228 119 Q228 96 223 73 Q218 50 207 31.5 Q196 13 178 1.5 Q160 -10 135 -10 Q84 -10 62 27 Q40 64 40 134 L40 142 L60 142 Z " />
<glyph glyph-name="t" unicode="t" horiz-adv-x="219" d="M204 -1 Q195 -5 184.5 -7.5 Q174 -10 163 -10 Q110 -10 87.5 28 Q65 66 65 142 L65 600 L83 600 L85 555 L85 500 L192 500 L192 482 L85 482 L85 134 Q85 113 88 91 Q91 69 99.5 50.5 Q108 32 123.5 20 Q139 8 163 8 Q172 8 181.5 10.5 Q191 13 197 15 L204 -1 Z " />
<glyph glyph-name="u" unicode="u" horiz-adv-x="322" d="M62 500 L82 500 L82 134 Q82 109 85 86.5 Q88 64 96.5 46.5 Q105 29 120 18.5 Q135 8 158 8 Q186 8 206.5 29.5 Q227 51 238 79 L238 500 L258 500 L258 60 Q258 37 264 22.5 Q270 8 289 8 L289 -10 Q260 -10 249 9.5 Q238 29 238 55 Q225 25 204 7.5 Q183 -10 151 -10 Q105 -10 83.5 29 Q62 68 62 142 L62 500 Z " />
<glyph glyph-name="v" unicode="v" horiz-adv-x="275" d="M150 0 L124 0 L30 500 L50 500 L136 18 L138 18 L225 500 L245 500 L150 0 Z " />
<glyph glyph-name="w" unicode="w" horiz-adv-x="450" d="M213 500 L237 500 L322 15 L324 15 L400 500 L420 500 L337 0 L309 0 L226 482 L224 482 L141 0 L113 0 L30 500 L50 500 L126 15 L128 15 L213 500 Z " />
<glyph glyph-name="x" unicode="x" horiz-adv-x="248" d="M45 500 L123 274 L125 274 L204 500 L223 500 L133 251 L223 0 L203 0 L122 230 L120 230 L46 0 L27 0 L112 254 L25 500 L45 500 Z " />
<glyph glyph-name="y" unicode="y" horiz-adv-x="266" d="M37 500 L57 500 L135 22 L137 22 L221 500 L241 500 L134 -66 Q120 -137 95 -173 Q70 -209 25 -209 L25 -191 Q54 -191 81 -162.5 Q108 -134 119 -66 L127 -18 L37 500 Z " />
<glyph glyph-name="z" unicode="z" horiz-adv-x="223" d="M30 482 L30 500 L198 500 L198 474 L42 18 L192 18 L192 0 L25 0 L25 22 L182 482 L30 482 Z " />
<glyph glyph-name="ae" unicode="&#xe6;" horiz-adv-x="472" d="M226 245 Q209 254 193.5 259.5 Q178 265 153 265 Q103 265 86.5 233.5 Q70 202 70 139 L70 134 Q70 105 73 82 Q76 59 84 42.5 Q92 26 107 17 Q122 8 146 8 Q174 8 194.5 29.5 Q215 51 226 79 L226 245 Z M246 134 Q246 113 249 90.5 Q252 68 260.5 49.5 Q269 31 284 19.5 Q299 8 324 8 Q348 8 363.5 19 Q379 30 388 47.5 Q397 65 400.5 87.5 Q404 110 404 134 L404 142 L422 142 L422 134 Q422 65 399 27.5 Q376 -10 324 -10 Q289 -10 268 7.5 Q247 25 233 60 Q220 30 195.5 10 Q171 -10 139 -10 Q94 -10 72 21.5 Q50 53 50 113 L50 155 Q50 182 55.5 205.5 Q61 229 72.5 246.5 Q84 264 103 274 Q122 284 149 284 Q166 284 186.5 279 Q207 274 226 261 L226 366 Q226 387 223 409.5 Q220 432 211.5 450.5 Q203 469 187.5 480.5 Q172 492 148 492 Q127 492 112.5 483.5 Q98 475 88.5 461 Q79 447 74.5 428.5 Q70 410 70 390 L70 378 L50 378 L50 390 Q50 413 55 435 Q60 457 72 473.5 Q84 490 102.5 500 Q121 510 148 510 Q183 510 204.5 490.5 Q226 471 237 439 Q257 510 324 510 Q378 510 400 471 Q422 432 422 358 L422 265 L246 265 L246 134 Z M402 366 Q402 388 399 410.5 Q396 433 387.5 451 Q379 469 363.5 480.5 Q348 492 324 492 Q299 492 284 480.5 Q269 469 260.5 450.5 Q252 432 249 409.5 Q246 387 246 366 L246 284 L402 284 L402 366 Z " />
<glyph glyph-name="oe" unicode="&#x153;" horiz-adv-x="477" d="M241 439 Q251 474 272 492 Q293 510 329 510 Q383 510 405 471 Q427 432 427 358 L427 265 L251 265 L251 134 Q251 113 254 90.5 Q257 68 265.5 49.5 Q274 31 289 19.5 Q304 8 329 8 Q353 8 368.5 19 Q384 30 393 47.5 Q402 65 405.5 87.5 Q409 110 409 134 L409 142 L427 142 L427 134 Q427 65 404 27.5 Q381 -10 329 -10 Q294 -10 272.5 8.5 Q251 27 241 61 Q230 29 209 9.5 Q188 -10 153 -10 Q99 -10 77 29 Q55 68 55 142 L55 358 Q55 432 77 471 Q99 510 153 510 Q189 510 210 492 Q231 474 241 439 Z M231 366 Q231 388 228 410.5 Q225 433 216.5 451 Q208 469 192.5 480.5 Q177 492 153 492 Q128 492 113 480.5 Q98 469 89.5 450.5 Q81 432 78 409.5 Q75 387 75 366 L75 134 Q75 113 78 90.5 Q81 68 89.5 49.5 Q98 31 113 19.5 Q128 8 153 8 Q177 8 192.5 19.5 Q208 31 216.5 49 Q225 67 228 89.5 Q231 112 231 134 L231 366 Z M251 284 L407 284 L407 366 Q407 388 404 410.5 Q401 433 392.5 451 Q384 469 368.5 480.5 Q353 492 329 492 Q304 492 289 480.5 Q274 469 265.5 450.5 Q257 432 254 409.5 Q251 387 251 366 L251 284 Z " />
<glyph glyph-name="lslash" unicode="&#x142;" horiz-adv-x="160" d="M19 340 L70 370 L70 710 L88 710 L90 665 L90 381 L142 412 L142 392 L90 361 L90 0 L72 0 L70 45 L70 350 L19 320 L19 340 Z " />
<glyph glyph-name="oslash" unicode="&#xf8;" horiz-adv-x="306" d="M251 142 Q251 68 229 29 Q207 -10 153 -10 Q130 -10 114 -3 Q98 4 86 17 L70 -35 L55 -30 L75 33 Q55 69 55 142 L55 358 Q55 432 77 471 Q99 510 153 510 Q195 510 219 483 L234 530 L249 525 L230 467 Q251 429 251 358 L251 142 Z M231 366 Q231 384 229 402.5 Q227 421 221 438 L94 40 Q102 26 116.5 17 Q131 8 153 8 Q177 8 192.5 19.5 Q208 31 216.5 49 Q225 67 228 89.5 Q231 112 231 134 L231 366 Z M75 134 Q75 116 76.5 97.5 Q78 79 84 62 L211 459 Q202 474 188 483 Q174 492 153 492 Q128 492 113 480.5 Q98 469 89.5 450.5 Q81 432 78 409.5 Q75 387 75 366 L75 134 Z " />
<glyph glyph-name="eth" unicode="&#xf0;" horiz-adv-x="306" d="M117 575 L173 611 Q157 632 137.5 644.5 Q118 657 93 657 L87 657 L87 675 L93 675 Q124 675 148 661 Q172 647 190 622 L237 653 L246 640 L199 609 Q226 565 238.5 499.5 Q251 434 251 359 L251 142 Q251 68 228.5 29 Q206 -10 153 -10 Q99 -10 77 29 Q55 68 55 142 L55 358 Q55 432 77 471 Q99 510 153 510 Q183 510 200.5 496 Q218 482 228 466 Q221 504 210 538 Q199 572 182 598 L126 562 L117 575 Z M231 366 Q231 388 228 410.5 Q225 433 216.5 451 Q208 469 192.5 480.5 Q177 492 153 492 Q130 492 115 481.5 Q100 471 91 453.5 Q82 436 78.5 413.5 Q75 391 75 366 L75 134 Q75 113 78 90.5 Q81 68 89.5 49.5 Q98 31 113 19.5 Q128 8 153 8 Q177 8 192.5 19.5 Q208 31 216.5 49 Q225 67 228 89.5 Q231 112 231 134 L231 366 Z " />
<glyph glyph-name="thorn" unicode="&#xfe;" horiz-adv-x="316" d="M85 61 Q92 43 112 25.5 Q132 8 163 8 Q185 8 200 18.5 Q215 29 224 46.5 Q233 64 237 86.5 Q241 109 241 134 L241 366 Q241 388 238 410.5 Q235 433 226.5 451 Q218 469 203 480.5 Q188 492 163 492 Q134 492 114.5 470 Q95 448 85 421 L85 61 Z M85 -210 L65 -210 L65 710 L83 710 L85 665 L85 445 Q97 474 118.5 492 Q140 510 169 510 Q216 510 238.5 471 Q261 432 261 358 L261 142 Q261 68 239 29 Q217 -10 163 -10 Q134 -10 114.5 3 Q95 16 85 33 L85 -210 Z " />
<glyph glyph-name="germandbls" unicode="&#xdf;" horiz-adv-x="316" d="M85 -85 L82 -130 L65 -130 L65 558 Q65 632 87 671 Q109 710 163 710 Q217 710 239 671 Q261 632 261 558 L261 537 Q261 482 243 448 Q225 414 197 397 Q225 383 243 346 Q261 309 261 257 L261 145 Q261 111 256 82.5 Q251 54 240 33.5 Q229 13 211 1.5 Q193 -10 168 -10 L149 -10 L149 8 L168 8 Q201 8 221 40 Q241 72 241 137 L241 265 Q241 284 236 305.5 Q231 327 221.5 345 Q212 363 197 375 Q182 387 162 387 L140 387 L140 405 L162 405 Q182 405 197 417 Q212 429 221.5 447 Q231 465 236 487 Q241 509 241 529 L241 566 Q241 588 238 610.5 Q235 633 226.5 651 Q218 669 202.5 680.5 Q187 692 163 692 Q138 692 123 680.5 Q108 669 99.5 650.5 Q91 632 88 609.5 Q85 587 85 566 L85 -85 Z " />
<glyph glyph-name="dotlessi" unicode="&#x131;" horiz-adv-x="150" d="M65 500 L82 500 L85 455 L85 0 L65 0 L65 500 Z " />
<glyph glyph-name="dotlessj" unicode="&#x237;" horiz-adv-x="150" d="M82 500 L85 455 L85 -55 Q85 -93 82 -121.5 Q79 -150 69.5 -170 Q60 -190 42.5 -200 Q25 -210 -3 -210 L-3 -191 Q21 -191 35 -179.5 Q49 -168 55.5 -150 Q62 -132 63.5 -109 Q65 -86 65 -63 L65 500 L82 500 Z " />
<glyph glyph-name="fi" unicode="&#xfb01;" horiz-adv-x="356" d="M85 482 L85 0 L65 0 L65 556 Q65 631 87 670.5 Q109 710 163 710 Q189 710 209.5 698.5 Q230 687 241 667 L224 655 Q213 672 199.5 682 Q186 692 163 692 Q138 692 123 680 Q108 668 99.5 649.5 Q91 631 88 608.5 Q85 586 85 565 L85 500 L201 500 L201 482 L85 482 Z M271 500 L288 500 L291 455 L291 0 L271 0 L271 500 Z M281 633 Q301 633 301 613 Q301 592 281 592 Q261 592 261 613 Q261 633 281 633 Z " />
<glyph glyph-name="fl" unicode="&#xfb02;" horiz-adv-x="356" d="M85 482 L85 0 L65 0 L65 556 Q65 631 87 670.5 Q109 710 163 710 Q189 710 209.5 698.5 Q230 687 241 667 L224 655 Q213 672 199.5 682 Q186 692 163 692 Q138 692 123 680 Q108 668 99.5 649.5 Q91 631 88 608.5 Q85 586 85 565 L85 500 L201 500 L201 482 L85 482 Z M291 665 L291 0 L273 0 L271 45 L271 710 L289 710 L291 665 Z " />
<glyph glyph-name="f_f" unicode="&#xfb00;" horiz-adv-x="412" d="M85 482 L85 0 L65 0 L65 556 Q65 631 87 670.5 Q109 710 163 710 Q189 710 209.5 698.5 Q230 687 241 667 L224 655 Q213 672 199.5 682 Q186 692 163 692 Q138 692 123 680 Q108 668 99.5 649.5 Q91 631 88 608.5 Q85 586 85 565 L85 500 L201 500 L201 482 L85 482 Z M291 482 L291 0 L271 0 L271 556 Q271 631 293 670.5 Q315 710 369 710 Q395 710 415.5 698.5 Q436 687 447 667 L430 655 Q419 672 405.5 682 Q392 692 369 692 Q344 692 329 680 Q314 668 305.5 649.5 Q297 631 294 608.5 Q291 586 291 565 L291 500 L407 500 L407 482 L291 482 Z " />
<glyph glyph-name="f_f_i" unicode="&#xfb03;" horiz-adv-x="562" d="M85 482 L85 0 L65 0 L65 556 Q65 631 87 670.5 Q109 710 163 710 Q189 710 209.5 698.5 Q230 687 241 667 L224 655 Q213 672 199.5 682 Q186 692 163 692 Q138 692 123 680 Q108 668 99.5 649.5 Q91 631 88 608.5 Q85 586 85 565 L85 500 L201 500 L201 482 L85 482 Z M291 482 L291 0 L271 0 L271 556 Q271 631 293 670.5 Q315 710 369 710 Q395 710 415.5 698.5 Q436 687 447 667 L430 655 Q419 672 405.5 682 Q392 692 369 692 Q344 692 329 680 Q314 668 305.5 649.5 Q297 631 294 608.5 Q291 586 291 565 L291 500 L407 500 L407 482 L291 482 Z M477 500 L494 500 L497 455 L497 0 L477 0 L477 500 Z M487 633 Q507 633 507 613 Q507 592 487 592 Q467 592 467 613 Q467 633 487 633 Z " />
<glyph glyph-name="f_f_l" unicode="&#xfb04;" horiz-adv-x="562" d="M85 482 L85 0 L65 0 L65 556 Q65 631 87 670.5 Q109 710 163 710 Q189 710 209.5 698.5 Q230 687 241 667 L224 655 Q213 672 199.5 682 Q186 692 163 692 Q138 692 123 680 Q108 668 99.5 649.5 Q91 631 88 608.5 Q85 586 85 565 L85 500 L201 500 L201 482 L85 482 Z M291 482 L291 0 L271 0 L271 556 Q271 631 293 670.5 Q315 710 369 710 Q395 710 415.5 698.5 Q436 687 447 667 L430 655 Q419 672 405.5 682 Q392 692 369 692 Q344 692 329 680 Q314 668 305.5 649.5 Q297 631 294 608.5 Q291 586 291 565 L291 500 L407 500 L407 482 L291 482 Z M497 665 L497 0 L479 0 L477 45 L477 710 L495 710 L497 665 Z " />
<glyph glyph-name="Aacute" unicode="&#xc1;" horiz-adv-x="326" d="M30 0 L150 665 L176 665 L296 0 L276 0 L241 206 L85 206 L50 0 L30 0 Z M89 224 L238 224 L164 647 L162 647 L89 224 Z M203 830 L146 699 L130 699 L179 830 L203 830 Z " />
<glyph glyph-name="Acircumflex" unicode="&#xc2;" horiz-adv-x="326" d="M30 0 L150 665 L176 665 L296 0 L276 0 L241 206 L85 206 L50 0 L30 0 Z M89 224 L238 224 L164 647 L162 647 L89 224 Z M174 830 L225 699 L207 699 L163 812 L119 699 L101 699 L152 830 L174 830 Z " />
<glyph glyph-name="Adieresis" unicode="&#xc4;" horiz-adv-x="326" d="M30 0 L150 665 L176 665 L296 0 L276 0 L241 206 L85 206 L50 0 L30 0 Z M89 224 L238 224 L164 647 L162 647 L89 224 Z M117 788 Q137 788 137 768 Q137 747 117 747 Q97 747 97 768 Q97 788 117 788 Z M209 788 Q229 788 229 768 Q229 747 209 747 Q189 747 189 768 Q189 788 209 788 Z " />
<glyph glyph-name="Agrave" unicode="&#xc0;" horiz-adv-x="326" d="M30 0 L150 665 L176 665 L296 0 L276 0 L241 206 L85 206 L50 0 L30 0 Z M89 224 L238 224 L164 647 L162 647 L89 224 Z M146 830 L195 699 L179 699 L122 830 L146 830 Z " />
<glyph glyph-name="Aring" unicode="&#xc5;" horiz-adv-x="326" d="M30 0 L150 665 L176 665 L296 0 L276 0 L241 206 L85 206 L50 0 L30 0 Z M89 224 L238 224 L164 647 L162 647 L89 224 Z M115 768 Q115 748 129 733.5 Q143 719 163 719 Q183 719 197 733.5 Q211 748 211 768 Q211 788 197 802.5 Q183 817 163 817 Q143 817 129 802.5 Q115 788 115 768 Z M95 768 Q95 797 114.5 816.5 Q134 836 163 836 Q192 836 211 816.5 Q230 797 230 768 Q230 739 211 719 Q192 699 163 699 Q134 699 114.5 719 Q95 739 95 768 Z " />
<glyph glyph-name="Atilde" unicode="&#xc3;" horiz-adv-x="326" d="M30 0 L150 665 L176 665 L296 0 L276 0 L241 206 L85 206 L50 0 L30 0 Z M89 224 L238 224 L164 647 L162 647 L89 224 Z M75 730 Q75 754 78.5 768.5 Q82 783 88 791 Q94 799 102 801.5 Q110 804 118 804 Q133 804 145 795 Q157 786 167.5 775.5 Q178 765 187.5 756.5 Q197 748 208 748 Q219 748 225 758 Q231 768 231 804 L231 806 L251 806 L251 804 Q251 780 247.5 765.5 Q244 751 238 743 Q232 735 224 732.5 Q216 730 208 730 Q193 730 180.5 738.5 Q168 747 157 757.5 Q146 768 136.5 777 Q127 786 118 786 Q107 786 101 776 Q95 766 95 730 L95 728 L75 728 L75 730 Z " />
<glyph glyph-name="Abreve" unicode="&#x102;" horiz-adv-x="326" d="M30 0 L150 665 L176 665 L296 0 L276 0 L241 206 L85 206 L50 0 L30 0 Z M89 224 L238 224 L164 647 L162 647 L89 224 Z M231 809 L231 797 Q231 765 213 746.5 Q195 728 163 728 Q131 728 112.5 746.5 Q94 765 94 797 L94 809 L114 809 L114 797 Q114 773 127 759.5 Q140 746 163 746 Q186 746 199 759.5 Q212 773 212 797 L212 809 L231 809 Z " />
<glyph glyph-name="Amacron" unicode="&#x100;" horiz-adv-x="326" d="M30 0 L150 665 L176 665 L296 0 L276 0 L241 206 L85 206 L50 0 L30 0 Z M89 224 L238 224 L164 647 L162 647 L89 224 Z M93 778 L233 778 L233 758 L93 758 L93 778 Z " />
<glyph glyph-name="Aogonek" unicode="&#x104;" horiz-adv-x="326" d="M30 0 L150 665 L176 665 L296 0 L292 0 Q249 -19 226.5 -53.5 Q204 -88 204 -128 Q204 -172 238 -172 Q254 -172 263 -161 Q272 -150 272 -124 L272 -122 L292 -122 L292 -124 Q292 -158 278 -174 Q264 -190 238 -190 Q211 -190 197.5 -174 Q184 -158 184 -129 Q184 -87 208.5 -51 Q233 -15 275 6 L241 206 L85 206 L50 0 L30 0 Z M89 224 L238 224 L164 647 L162 647 L89 224 Z " />
<glyph glyph-name="Ccedilla" unicode="&#xc7;" horiz-adv-x="306" d="M152 -9 Q103 -5 79 33 Q55 71 55 140 L55 525 Q55 598 82 636.5 Q109 675 163 675 Q217 675 244 636 Q271 597 271 531 L271 525 L251 525 L251 533 Q251 555 246.5 577 Q242 599 231.5 617 Q221 635 204 646 Q187 657 163 657 Q139 657 122 646 Q105 635 94.5 617 Q84 599 79.5 577 Q75 555 75 533 L75 132 Q75 110 79.5 88 Q84 66 94.5 48 Q105 30 122 19 Q139 8 163 8 Q187 8 204 19 Q221 30 231.5 48 Q242 66 246.5 88 Q251 110 251 132 L251 140 L271 140 L271 134 Q271 69 246.5 31.5 Q222 -6 172 -9 L172 -55 L180 -55 Q209 -55 224 -71 Q239 -87 239 -122 Q239 -157 222.5 -173.5 Q206 -190 180 -190 Q152 -190 136 -175 Q120 -160 120 -124 L120 -122 L140 -122 L140 -124 Q140 -150 151 -161 Q162 -172 180 -172 Q198 -172 209 -160 Q220 -148 220 -122 Q220 -73 180 -73 L152 -73 L152 -9 Z " />
<glyph glyph-name="Cacute" unicode="&#x106;" horiz-adv-x="306" d="M251 525 L251 533 Q251 555 246.5 577 Q242 599 231.5 617 Q221 635 204 646 Q187 657 163 657 Q139 657 122 646 Q105 635 94.5 617 Q84 599 79.5 577 Q75 555 75 533 L75 132 Q75 110 79.5 88 Q84 66 94.5 48 Q105 30 122 19 Q139 8 163 8 Q187 8 204 19 Q221 30 231.5 48 Q242 66 246.5 88 Q251 110 251 132 L251 140 L271 140 L271 134 Q271 66 244 28 Q217 -10 163 -10 Q109 -10 82 28.5 Q55 67 55 140 L55 525 Q55 598 82 636.5 Q109 675 163 675 Q217 675 244 636 Q271 597 271 531 L271 525 L251 525 Z M203 830 L146 699 L130 699 L179 830 L203 830 Z " />
<glyph glyph-name="Ccaron" unicode="&#x10c;" horiz-adv-x="306" d="M251 525 L251 533 Q251 555 246.5 577 Q242 599 231.5 617 Q221 635 204 646 Q187 657 163 657 Q139 657 122 646 Q105 635 94.5 617 Q84 599 79.5 577 Q75 555 75 533 L75 132 Q75 110 79.5 88 Q84 66 94.5 48 Q105 30 122 19 Q139 8 163 8 Q187 8 204 19 Q221 30 231.5 48 Q242 66 246.5 88 Q251 110 251 132 L251 140 L271 140 L271 134 Q271 66 244 28 Q217 -10 163 -10 Q109 -10 82 28.5 Q55 67 55 140 L55 525 Q55 598 82 636.5 Q109 675 163 675 Q217 675 244 636 Q271 597 271 531 L271 525 L251 525 Z M152 699 L101 830 L119 830 L163 717 L207 830 L225 830 L174 699 L152 699 Z " />
<glyph glyph-name="Ccircumflex" unicode="&#x108;" horiz-adv-x="306" d="M251 525 L251 533 Q251 555 246.5 577 Q242 599 231.5 617 Q221 635 204 646 Q187 657 163 657 Q139 657 122 646 Q105 635 94.5 617 Q84 599 79.5 577 Q75 555 75 533 L75 132 Q75 110 79.5 88 Q84 66 94.5 48 Q105 30 122 19 Q139 8 163 8 Q187 8 204 19 Q221 30 231.5 48 Q242 66 246.5 88 Q251 110 251 132 L251 140 L271 140 L271 134 Q271 66 244 28 Q217 -10 163 -10 Q109 -10 82 28.5 Q55 67 55 140 L55 525 Q55 598 82 636.5 Q109 675 163 675 Q217 675 244 636 Q271 597 271 531 L271 525 L251 525 Z M174 830 L225 699 L207 699 L163 812 L119 699 L101 699 L152 830 L174 830 Z " />
<glyph glyph-name="Cdotaccent" unicode="&#x10a;" horiz-adv-x="306" d="M251 525 L251 533 Q251 555 246.5 577 Q242 599 231.5 617 Q221 635 204 646 Q187 657 163 657 Q139 657 122 646 Q105 635 94.5 617 Q84 599 79.5 577 Q75 555 75 533 L75 132 Q75 110 79.5 88 Q84 66 94.5 48 Q105 30 122 19 Q139 8 163 8 Q187 8 204 19 Q221 30 231.5 48 Q242 66 246.5 88 Q251 110 251 132 L251 140 L271 140 L271 134 Q271 66 244 28 Q217 -10 163 -10 Q109 -10 82 28.5 Q55 67 55 140 L55 525 Q55 598 82 636.5 Q109 675 163 675 Q217 675 244 636 Q271 597 271 531 L271 525 L251 525 Z M163 790 Q185 790 185 768 Q185 745 163 745 Q141 745 141 768 Q141 790 163 790 Z " />
<glyph glyph-name="Dcaron" unicode="&#x10e;" horiz-adv-x="336" d="M281 151 Q281 77 254 38.5 Q227 0 173 0 L65 0 L65 665 L173 665 Q227 665 254 626.5 Q281 588 281 514 L281 151 Z M261 523 Q261 545 256.5 567 Q252 589 241.5 607 Q231 625 214 636 Q197 647 173 647 L85 647 L85 18 L173 18 Q197 18 214 29 Q231 40 241.5 58 Q252 76 256.5 98 Q261 120 261 142 L261 523 Z M157 699 L106 830 L124 830 L168 717 L212 830 L230 830 L179 699 L157 699 Z " />
<glyph glyph-name="Dcroat" unicode="&#x110;" horiz-adv-x="341" d="M23 341 L70 341 L70 665 L178 665 Q232 665 259 626.5 Q286 588 286 514 L286 151 Q286 77 259 38.5 Q232 0 178 0 L70 0 L70 323 L23 323 L23 341 Z M266 523 Q266 545 261.5 567 Q257 589 246.5 607 Q236 625 219 636 Q202 647 178 647 L90 647 L90 341 L173 341 L173 323 L90 323 L90 18 L178 18 Q202 18 219 29 Q236 40 246.5 58 Q257 76 261.5 98 Q266 120 266 142 L266 523 Z " />
<glyph glyph-name="Eacute" unicode="&#xc9;" horiz-adv-x="280" d="M255 647 L85 647 L85 368 L228 368 L228 350 L85 350 L85 18 L255 18 L255 0 L65 0 L65 665 L255 665 L255 647 Z M200 830 L143 699 L127 699 L176 830 L200 830 Z " />
<glyph glyph-name="Ecircumflex" unicode="&#xca;" horiz-adv-x="280" d="M255 647 L85 647 L85 368 L228 368 L228 350 L85 350 L85 18 L255 18 L255 0 L65 0 L65 665 L255 665 L255 647 Z M171 830 L222 699 L204 699 L160 812 L116 699 L98 699 L149 830 L171 830 Z " />
<glyph glyph-name="Edieresis" unicode="&#xcb;" horiz-adv-x="280" d="M255 647 L85 647 L85 368 L228 368 L228 350 L85 350 L85 18 L255 18 L255 0 L65 0 L65 665 L255 665 L255 647 Z M114 788 Q134 788 134 768 Q134 747 114 747 Q94 747 94 768 Q94 788 114 788 Z M206 788 Q226 788 226 768 Q226 747 206 747 Q186 747 186 768 Q186 788 206 788 Z " />
<glyph glyph-name="Egrave" unicode="&#xc8;" horiz-adv-x="280" d="M255 647 L85 647 L85 368 L228 368 L228 350 L85 350 L85 18 L255 18 L255 0 L65 0 L65 665 L255 665 L255 647 Z M143 830 L192 699 L176 699 L119 830 L143 830 Z " />
<glyph glyph-name="Ebreve" unicode="&#x114;" horiz-adv-x="280" d="M255 647 L85 647 L85 368 L228 368 L228 350 L85 350 L85 18 L255 18 L255 0 L65 0 L65 665 L255 665 L255 647 Z M228 809 L228 797 Q228 765 210 746.5 Q192 728 160 728 Q128 728 109.5 746.5 Q91 765 91 797 L91 809 L111 809 L111 797 Q111 773 124 759.5 Q137 746 160 746 Q183 746 196 759.5 Q209 773 209 797 L209 809 L228 809 Z " />
<glyph glyph-name="Ecaron" unicode="&#x11a;" horiz-adv-x="280" d="M255 647 L85 647 L85 368 L228 368 L228 350 L85 350 L85 18 L255 18 L255 0 L65 0 L65 665 L255 665 L255 647 Z M149 699 L98 830 L116 830 L160 717 L204 830 L222 830 L171 699 L149 699 Z " />
<glyph glyph-name="Edotaccent" unicode="&#x116;" horiz-adv-x="280" d="M255 647 L85 647 L85 368 L228 368 L228 350 L85 350 L85 18 L255 18 L255 0 L65 0 L65 665 L255 665 L255 647 Z M160 790 Q182 790 182 768 Q182 745 160 745 Q138 745 138 768 Q138 790 160 790 Z " />
<glyph glyph-name="Emacron" unicode="&#x112;" horiz-adv-x="280" d="M255 647 L85 647 L85 368 L228 368 L228 350 L85 350 L85 18 L255 18 L255 0 L65 0 L65 665 L255 665 L255 647 Z M90 778 L230 778 L230 758 L90 758 L90 778 Z " />
<glyph glyph-name="Eogonek" unicode="&#x118;" horiz-adv-x="280" d="M255 647 L85 647 L85 368 L228 368 L228 350 L85 350 L85 18 L255 18 L255 0 Q212 -19 189.5 -53.5 Q167 -88 167 -128 Q167 -172 201 -172 Q217 -172 226 -161 Q235 -150 235 -124 L235 -122 L255 -122 L255 -124 Q255 -158 241 -174 Q227 -190 201 -190 Q174 -190 160.5 -174 Q147 -158 147 -129 Q147 -90 168 -56 Q189 -22 226 0 L65 0 L65 665 L255 665 L255 647 Z " />
<glyph glyph-name="Gbreve" unicode="&#x11e;" horiz-adv-x="321" d="M177 349 L177 367 L271 367 L271 140 Q271 67 244 28.5 Q217 -10 163 -10 Q109 -10 82 28.5 Q55 67 55 140 L55 525 Q55 598 82 636.5 Q109 675 163 675 Q217 675 244 639 Q271 603 271 534 L271 527 L251 527 L251 533 Q251 557 246.5 579.5 Q242 602 231.5 619 Q221 636 204 646.5 Q187 657 163 657 Q139 657 122 647 Q105 637 94.5 620 Q84 603 79.5 580.5 Q75 558 75 533 L75 132 Q75 110 79.5 88 Q84 66 94.5 48 Q105 30 122 19 Q139 8 163 8 Q187 8 204 18.5 Q221 29 231.5 46 Q242 63 246.5 85.5 Q251 108 251 132 L251 349 L177 349 Z M229 809 L229 797 Q229 765 211 746.5 Q193 728 161 728 Q129 728 110.5 746.5 Q92 765 92 797 L92 809 L112 809 L112 797 Q112 773 125 759.5 Q138 746 161 746 Q184 746 197 759.5 Q210 773 210 797 L210 809 L229 809 Z " />
<glyph glyph-name="Gcircumflex" unicode="&#x11c;" horiz-adv-x="321" d="M177 349 L177 367 L271 367 L271 140 Q271 67 244 28.5 Q217 -10 163 -10 Q109 -10 82 28.5 Q55 67 55 140 L55 525 Q55 598 82 636.5 Q109 675 163 675 Q217 675 244 639 Q271 603 271 534 L271 527 L251 527 L251 533 Q251 557 246.5 579.5 Q242 602 231.5 619 Q221 636 204 646.5 Q187 657 163 657 Q139 657 122 647 Q105 637 94.5 620 Q84 603 79.5 580.5 Q75 558 75 533 L75 132 Q75 110 79.5 88 Q84 66 94.5 48 Q105 30 122 19 Q139 8 163 8 Q187 8 204 18.5 Q221 29 231.5 46 Q242 63 246.5 85.5 Q251 108 251 132 L251 349 L177 349 Z M172 830 L223 699 L205 699 L161 812 L117 699 L99 699 L150 830 L172 830 Z " />
<glyph glyph-name="Gcommaaccent" unicode="&#x122;" horiz-adv-x="321" d="M177 349 L177 367 L271 367 L271 140 Q271 67 244 28.5 Q217 -10 163 -10 Q109 -10 82 28.5 Q55 67 55 140 L55 525 Q55 598 82 636.5 Q109 675 163 675 Q217 675 244 639 Q271 603 271 534 L271 527 L251 527 L251 533 Q251 557 246.5 579.5 Q242 602 231.5 619 Q221 636 204 646.5 Q187 657 163 657 Q139 657 122 647 Q105 637 94.5 620 Q84 603 79.5 580.5 Q75 558 75 533 L75 132 Q75 110 79.5 88 Q84 66 94.5 48 Q105 30 122 19 Q139 8 163 8 Q187 8 204 18.5 Q221 29 231.5 46 Q242 63 246.5 85.5 Q251 108 251 132 L251 349 L177 349 Z M145 -148 L133 -148 L150 -40 L174 -40 L145 -148 Z " />
<glyph glyph-name="Gdotaccent" unicode="&#x120;" horiz-adv-x="321" d="M177 349 L177 367 L271 367 L271 140 Q271 67 244 28.5 Q217 -10 163 -10 Q109 -10 82 28.5 Q55 67 55 140 L55 525 Q55 598 82 636.5 Q109 675 163 675 Q217 675 244 639 Q271 603 271 534 L271 527 L251 527 L251 533 Q251 557 246.5 579.5 Q242 602 231.5 619 Q221 636 204 646.5 Q187 657 163 657 Q139 657 122 647 Q105 637 94.5 620 Q84 603 79.5 580.5 Q75 558 75 533 L75 132 Q75 110 79.5 88 Q84 66 94.5 48 Q105 30 122 19 Q139 8 163 8 Q187 8 204 18.5 Q221 29 231.5 46 Q242 63 246.5 85.5 Q251 108 251 132 L251 349 L177 349 Z M161 790 Q183 790 183 768 Q183 745 161 745 Q139 745 139 768 Q139 790 161 790 Z " />
<glyph glyph-name="Hbar" unicode="&#x126;" horiz-adv-x="357" d="M272 0 L272 352 L85 352 L85 0 L65 0 L65 665 L85 665 L85 501 L272 501 L272 665 L292 665 L292 0 L272 0 Z M272 370 L272 483 L85 483 L85 370 L272 370 Z " />
<glyph glyph-name="Hcircumflex" unicode="&#x124;" horiz-adv-x="357" d="M272 0 L272 352 L85 352 L85 0 L65 0 L65 665 L85 665 L85 370 L272 370 L272 665 L292 665 L292 0 L272 0 Z M189 830 L240 699 L222 699 L178 812 L134 699 L116 699 L167 830 L189 830 Z " />
<glyph glyph-name="Iacute" unicode="&#xcd;" horiz-adv-x="150" d="M65 0 L65 665 L85 665 L85 0 L65 0 Z M115 830 L58 699 L42 699 L91 830 L115 830 Z " />
<glyph glyph-name="Icircumflex" unicode="&#xce;" horiz-adv-x="150" d="M65 0 L65 665 L85 665 L85 0 L65 0 Z M86 830 L137 699 L119 699 L75 812 L31 699 L13 699 L64 830 L86 830 Z " />
<glyph glyph-name="Idieresis" unicode="&#xcf;" horiz-adv-x="150" d="M65 0 L65 665 L85 665 L85 0 L65 0 Z M29 788 Q49 788 49 768 Q49 747 29 747 Q9 747 9 768 Q9 788 29 788 Z M121 788 Q141 788 141 768 Q141 747 121 747 Q101 747 101 768 Q101 788 121 788 Z " />
<glyph glyph-name="Igrave" unicode="&#xcc;" horiz-adv-x="150" d="M65 0 L65 665 L85 665 L85 0 L65 0 Z M58 830 L107 699 L91 699 L34 830 L58 830 Z " />
<glyph glyph-name="Ibreve" unicode="&#x12c;" horiz-adv-x="150" d="M65 0 L65 665 L85 665 L85 0 L65 0 Z M143 809 L143 797 Q143 765 125 746.5 Q107 728 75 728 Q43 728 24.5 746.5 Q6 765 6 797 L6 809 L26 809 L26 797 Q26 773 39 759.5 Q52 746 75 746 Q98 746 111 759.5 Q124 773 124 797 L124 809 L143 809 Z " />
<glyph glyph-name="Idotaccent" unicode="&#x130;" horiz-adv-x="150" d="M65 0 L65 665 L85 665 L85 0 L65 0 Z M75 790 Q97 790 97 768 Q97 745 75 745 Q53 745 53 768 Q53 790 75 790 Z " />
<glyph glyph-name="Imacron" unicode="&#x12a;" horiz-adv-x="150" d="M65 0 L65 665 L85 665 L85 0 L65 0 Z M5 778 L145 778 L145 758 L5 758 L5 778 Z " />
<glyph glyph-name="Iogonek" unicode="&#x12e;" horiz-adv-x="150" d="M85 0 Q42 -19 19.5 -53.5 Q-3 -88 -3 -128 Q-3 -172 31 -172 Q47 -172 56 -161 Q65 -150 65 -124 L65 -122 L85 -122 L85 -124 Q85 -158 71 -174 Q57 -190 31 -190 Q4 -190 -9.5 -174 Q-23 -158 -23 -129 Q-23 -87 0 -51.5 Q23 -16 65 5 L65 665 L85 665 L85 0 Z " />
<glyph glyph-name="Itilde" unicode="&#x128;" horiz-adv-x="150" d="M65 0 L65 665 L85 665 L85 0 L65 0 Z M-13 730 Q-13 754 -9.5 768.5 Q-6 783 0 791 Q6 799 14 801.5 Q22 804 30 804 Q45 804 57 795 Q69 786 79.5 775.5 Q90 765 99.5 756.5 Q109 748 120 748 Q131 748 137 758 Q143 768 143 804 L143 806 L163 806 L163 804 Q163 780 159.5 765.5 Q156 751 150 743 Q144 735 136 732.5 Q128 730 120 730 Q105 730 92.5 738.5 Q80 747 69 757.5 Q58 768 48.5 777 Q39 786 30 786 Q19 786 13 776 Q7 766 7 730 L7 728 L-13 728 L-13 730 Z " />
<glyph glyph-name="Jcircumflex" unicode="&#x134;" horiz-adv-x="190" d="M25 8 Q48 9 63.5 20.5 Q79 32 88 49.5 Q97 67 101 88.5 Q105 110 105 132 L105 665 L125 665 L125 140 Q125 70 100 31.5 Q75 -7 25 -10 L25 8 Z M126 830 L177 699 L159 699 L115 812 L71 699 L53 699 L104 830 L126 830 Z " />
<glyph glyph-name="IJ" unicode="&#x132;" horiz-adv-x="340" d="M65 0 L65 665 L85 665 L85 0 L65 0 Z M175 8 Q198 9 213.5 20.5 Q229 32 238 49.5 Q247 67 251 88.5 Q255 110 255 132 L255 665 L275 665 L275 140 Q275 70 250 31.5 Q225 -7 175 -10 L175 8 Z " />
<glyph glyph-name="Kcommaaccent" unicode="&#x136;" horiz-adv-x="320" d="M167 391 L305 0 L284 0 L155 369 L85 229 L85 0 L65 0 L65 665 L85 665 L85 264 L280 665 L300 665 L167 391 Z M144 -148 L132 -148 L149 -40 L173 -40 L144 -148 Z " />
<glyph glyph-name="Lacute" unicode="&#x139;" horiz-adv-x="275" d="M85 665 L85 18 L255 18 L255 0 L65 0 L65 665 L85 665 Z M178 830 L121 699 L105 699 L154 830 L178 830 Z " />
<glyph glyph-name="Lcaron" unicode="&#x13d;" horiz-adv-x="275" d="M85 665 L85 18 L255 18 L255 0 L65 0 L65 665 L85 665 Z M203 557 L191 557 L208 665 L232 665 L203 557 Z " />
<glyph glyph-name="Lcommaaccent" unicode="&#x13b;" horiz-adv-x="275" d="M85 665 L85 18 L255 18 L255 0 L65 0 L65 665 L85 665 Z M142 -148 L130 -148 L147 -40 L171 -40 L142 -148 Z " />
<glyph glyph-name="Ldot" unicode="&#x13f;" horiz-adv-x="275" d="M85 665 L85 18 L255 18 L255 0 L65 0 L65 665 L85 665 Z M187 339 Q187 349 193 354.5 Q199 360 208 360 Q217 360 223 354.5 Q229 349 229 339 Q229 329 223 323.5 Q217 318 208 318 Q199 318 193 323.5 Q187 329 187 339 Z " />
<glyph glyph-name="Ntilde" unicode="&#xd1;" horiz-adv-x="365" d="M300 0 L262 0 L87 657 L85 657 L85 0 L65 0 L65 665 L103 665 L278 8 L280 8 L280 665 L300 665 L300 0 Z M94 730 Q94 754 97.5 768.5 Q101 783 107 791 Q113 799 121 801.5 Q129 804 137 804 Q152 804 164 795 Q176 786 186.5 775.5 Q197 765 206.5 756.5 Q216 748 227 748 Q238 748 244 758 Q250 768 250 804 L250 806 L270 806 L270 804 Q270 780 266.5 765.5 Q263 751 257 743 Q251 735 243 732.5 Q235 730 227 730 Q212 730 199.5 738.5 Q187 747 176 757.5 Q165 768 155.5 777 Q146 786 137 786 Q126 786 120 776 Q114 766 114 730 L114 728 L94 728 L94 730 Z " />
<glyph glyph-name="Nacute" unicode="&#x143;" horiz-adv-x="365" d="M300 0 L262 0 L87 657 L85 657 L85 0 L65 0 L65 665 L103 665 L278 8 L280 8 L280 665 L300 665 L300 0 Z M222 830 L165 699 L149 699 L198 830 L222 830 Z " />
<glyph glyph-name="Ncaron" unicode="&#x147;" horiz-adv-x="365" d="M300 0 L262 0 L87 657 L85 657 L85 0 L65 0 L65 665 L103 665 L278 8 L280 8 L280 665 L300 665 L300 0 Z M171 699 L120 830 L138 830 L182 717 L226 830 L244 830 L193 699 L171 699 Z " />
<glyph glyph-name="Ncommaaccent" unicode="&#x145;" horiz-adv-x="365" d="M300 0 L262 0 L87 657 L85 657 L85 0 L65 0 L65 665 L103 665 L278 8 L280 8 L280 665 L300 665 L300 0 Z M166 -148 L154 -148 L171 -40 L195 -40 L166 -148 Z " />
<glyph glyph-name="Oacute" unicode="&#xd3;" horiz-adv-x="326" d="M271 140 Q271 67 244 28.5 Q217 -10 163 -10 Q109 -10 82 28.5 Q55 67 55 140 L55 525 Q55 598 82 636.5 Q109 675 163 675 Q217 675 244 636.5 Q271 598 271 525 L271 140 Z M251 533 Q251 555 246.5 577 Q242 599 231.5 617 Q221 635 204 646 Q187 657 163 657 Q139 657 122 646 Q105 635 94.5 617 Q84 599 79.5 577 Q75 555 75 533 L75 132 Q75 110 79.5 88 Q84 66 94.5 48 Q105 30 122 19 Q139 8 163 8 Q187 8 204 19 Q221 30 231.5 48 Q242 66 246.5 88 Q251 110 251 132 L251 533 Z M203 830 L146 699 L130 699 L179 830 L203 830 Z " />
<glyph glyph-name="Ocircumflex" unicode="&#xd4;" horiz-adv-x="326" d="M271 140 Q271 67 244 28.5 Q217 -10 163 -10 Q109 -10 82 28.5 Q55 67 55 140 L55 525 Q55 598 82 636.5 Q109 675 163 675 Q217 675 244 636.5 Q271 598 271 525 L271 140 Z M251 533 Q251 555 246.5 577 Q242 599 231.5 617 Q221 635 204 646 Q187 657 163 657 Q139 657 122 646 Q105 635 94.5 617 Q84 599 79.5 577 Q75 555 75 533 L75 132 Q75 110 79.5 88 Q84 66 94.5 48 Q105 30 122 19 Q139 8 163 8 Q187 8 204 19 Q221 30 231.5 48 Q242 66 246.5 88 Q251 110 251 132 L251 533 Z M174 830 L225 699 L207 699 L163 812 L119 699 L101 699 L152 830 L174 830 Z " />
<glyph glyph-name="Odieresis" unicode="&#xd6;" horiz-adv-x="326" d="M271 140 Q271 67 244 28.5 Q217 -10 163 -10 Q109 -10 82 28.5 Q55 67 55 140 L55 525 Q55 598 82 636.5 Q109 675 163 675 Q217 675 244 636.5 Q271 598 271 525 L271 140 Z M251 533 Q251 555 246.5 577 Q242 599 231.5 617 Q221 635 204 646 Q187 657 163 657 Q139 657 122 646 Q105 635 94.5 617 Q84 599 79.5 577 Q75 555 75 533 L75 132 Q75 110 79.5 88 Q84 66 94.5 48 Q105 30 122 19 Q139 8 163 8 Q187 8 204 19 Q221 30 231.5 48 Q242 66 246.5 88 Q251 110 251 132 L251 533 Z M117 788 Q137 788 137 768 Q137 747 117 747 Q97 747 97 768 Q97 788 117 788 Z M209 788 Q229 788 229 768 Q229 747 209 747 Q189 747 189 768 Q189 788 209 788 Z " />
<glyph glyph-name="Ograve" unicode="&#xd2;" horiz-adv-x="326" d="M271 140 Q271 67 244 28.5 Q217 -10 163 -10 Q109 -10 82 28.5 Q55 67 55 140 L55 525 Q55 598 82 636.5 Q109 675 163 675 Q217 675 244 636.5 Q271 598 271 525 L271 140 Z M251 533 Q251 555 246.5 577 Q242 599 231.5 617 Q221 635 204 646 Q187 657 163 657 Q139 657 122 646 Q105 635 94.5 617 Q84 599 79.5 577 Q75 555 75 533 L75 132 Q75 110 79.5 88 Q84 66 94.5 48 Q105 30 122 19 Q139 8 163 8 Q187 8 204 19 Q221 30 231.5 48 Q242 66 246.5 88 Q251 110 251 132 L251 533 Z M146 830 L195 699 L179 699 L122 830 L146 830 Z " />
<glyph glyph-name="Otilde" unicode="&#xd5;" horiz-adv-x="326" d="M271 140 Q271 67 244 28.5 Q217 -10 163 -10 Q109 -10 82 28.5 Q55 67 55 140 L55 525 Q55 598 82 636.5 Q109 675 163 675 Q217 675 244 636.5 Q271 598 271 525 L271 140 Z M251 533 Q251 555 246.5 577 Q242 599 231.5 617 Q221 635 204 646 Q187 657 163 657 Q139 657 122 646 Q105 635 94.5 617 Q84 599 79.5 577 Q75 555 75 533 L75 132 Q75 110 79.5 88 Q84 66 94.5 48 Q105 30 122 19 Q139 8 163 8 Q187 8 204 19 Q221 30 231.5 48 Q242 66 246.5 88 Q251 110 251 132 L251 533 Z M75 730 Q75 754 78.5 768.5 Q82 783 88 791 Q94 799 102 801.5 Q110 804 118 804 Q133 804 145 795 Q157 786 167.5 775.5 Q178 765 187.5 756.5 Q197 748 208 748 Q219 748 225 758 Q231 768 231 804 L231 806 L251 806 L251 804 Q251 780 247.5 765.5 Q244 751 238 743 Q232 735 224 732.5 Q216 730 208 730 Q193 730 180.5 738.5 Q168 747 157 757.5 Q146 768 136.5 777 Q127 786 118 786 Q107 786 101 776 Q95 766 95 730 L95 728 L75 728 L75 730 Z " />
<glyph glyph-name="Obreve" unicode="&#x14e;" horiz-adv-x="326" d="M271 140 Q271 67 244 28.5 Q217 -10 163 -10 Q109 -10 82 28.5 Q55 67 55 140 L55 525 Q55 598 82 636.5 Q109 675 163 675 Q217 675 244 636.5 Q271 598 271 525 L271 140 Z M251 533 Q251 555 246.5 577 Q242 599 231.5 617 Q221 635 204 646 Q187 657 163 657 Q139 657 122 646 Q105 635 94.5 617 Q84 599 79.5 577 Q75 555 75 533 L75 132 Q75 110 79.5 88 Q84 66 94.5 48 Q105 30 122 19 Q139 8 163 8 Q187 8 204 19 Q221 30 231.5 48 Q242 66 246.5 88 Q251 110 251 132 L251 533 Z M231 809 L231 797 Q231 765 213 746.5 Q195 728 163 728 Q131 728 112.5 746.5 Q94 765 94 797 L94 809 L114 809 L114 797 Q114 773 127 759.5 Q140 746 163 746 Q186 746 199 759.5 Q212 773 212 797 L212 809 L231 809 Z " />
<glyph glyph-name="Ohungarumlaut" unicode="&#x150;" horiz-adv-x="326" d="M271 140 Q271 67 244 28.5 Q217 -10 163 -10 Q109 -10 82 28.5 Q55 67 55 140 L55 525 Q55 598 82 636.5 Q109 675 163 675 Q217 675 244 636.5 Q271 598 271 525 L271 140 Z M251 533 Q251 555 246.5 577 Q242 599 231.5 617 Q221 635 204 646 Q187 657 163 657 Q139 657 122 646 Q105 635 94.5 617 Q84 599 79.5 577 Q75 555 75 533 L75 132 Q75 110 79.5 88 Q84 66 94.5 48 Q105 30 122 19 Q139 8 163 8 Q187 8 204 19 Q221 30 231.5 48 Q242 66 246.5 88 Q251 110 251 132 L251 533 Z M261 830 L204 699 L188 699 L237 830 L261 830 Z M179 830 L122 699 L106 699 L155 830 L179 830 Z " />
<glyph glyph-name="Omacron" unicode="&#x14c;" horiz-adv-x="326" d="M271 140 Q271 67 244 28.5 Q217 -10 163 -10 Q109 -10 82 28.5 Q55 67 55 140 L55 525 Q55 598 82 636.5 Q109 675 163 675 Q217 675 244 636.5 Q271 598 271 525 L271 140 Z M251 533 Q251 555 246.5 577 Q242 599 231.5 617 Q221 635 204 646 Q187 657 163 657 Q139 657 122 646 Q105 635 94.5 617 Q84 599 79.5 577 Q75 555 75 533 L75 132 Q75 110 79.5 88 Q84 66 94.5 48 Q105 30 122 19 Q139 8 163 8 Q187 8 204 19 Q221 30 231.5 48 Q242 66 246.5 88 Q251 110 251 132 L251 533 Z M93 778 L233 778 L233 758 L93 758 L93 778 Z " />
<glyph glyph-name="Racute" unicode="&#x154;" horiz-adv-x="335" d="M281 494 Q281 377 206 346 L305 0 L282 0 L185 343 L85 343 L85 0 L65 0 L65 665 L173 665 Q227 665 254 626.5 Q281 588 281 514 L281 494 Z M261 523 Q261 545 256.5 567 Q252 589 241.5 607 Q231 625 214 636 Q197 647 173 647 L85 647 L85 361 L173 361 Q197 361 214 372 Q231 383 241.5 401 Q252 419 256.5 441 Q261 463 261 486 L261 523 Z M205 830 L148 699 L132 699 L181 830 L205 830 Z " />
<glyph glyph-name="Rcaron" unicode="&#x158;" horiz-adv-x="335" d="M281 494 Q281 377 206 346 L305 0 L282 0 L185 343 L85 343 L85 0 L65 0 L65 665 L173 665 Q227 665 254 626.5 Q281 588 281 514 L281 494 Z M261 523 Q261 545 256.5 567 Q252 589 241.5 607 Q231 625 214 636 Q197 647 173 647 L85 647 L85 361 L173 361 Q197 361 214 372 Q231 383 241.5 401 Q252 419 256.5 441 Q261 463 261 486 L261 523 Z M154 699 L103 830 L121 830 L165 717 L209 830 L227 830 L176 699 L154 699 Z " />
<glyph glyph-name="Rcommaaccent" unicode="&#x156;" horiz-adv-x="335" d="M281 494 Q281 377 206 346 L305 0 L282 0 L185 343 L85 343 L85 0 L65 0 L65 665 L173 665 Q227 665 254 626.5 Q281 588 281 514 L281 494 Z M261 523 Q261 545 256.5 567 Q252 589 241.5 607 Q231 625 214 636 Q197 647 173 647 L85 647 L85 361 L173 361 Q197 361 214 372 Q231 383 241.5 401 Q252 419 256.5 441 Q261 463 261 486 L261 523 Z M149 -148 L137 -148 L154 -40 L178 -40 L149 -148 Z " />
<glyph glyph-name="Scaron" unicode="&#x160;" horiz-adv-x="285" d="M40 541 Q40 563 45.5 587 Q51 611 63.5 630.5 Q76 650 95.5 662.5 Q115 675 143 675 Q193 675 219 640 Q245 605 245 535 L245 527 L225 527 L225 533 Q225 555 221 577 Q217 599 208 617 Q199 635 183 646 Q167 657 143 657 Q107 657 83.5 627 Q60 597 60 552 L60 511 Q60 469 77.5 438 Q95 407 138 373 Q160 355 179.5 335.5 Q199 316 213.5 293.5 Q228 271 236.5 244.5 Q245 218 245 184 L245 124 Q245 100 239 76 Q233 52 220.5 33 Q208 14 189 2 Q170 -10 143 -10 Q40 -10 40 130 L40 138 L60 138 L60 132 Q60 110 64 88 Q68 66 77.5 48 Q87 30 103 19 Q119 8 143 8 Q180 8 202.5 38 Q225 68 225 113 L225 174 Q225 228 201.5 270.5 Q178 313 128 355 Q108 372 91.5 387.5 Q75 403 63.5 420.5 Q52 438 46 459 Q40 480 40 508 L40 541 Z M132 699 L81 830 L99 830 L143 717 L187 830 L205 830 L154 699 L132 699 Z " />
<glyph glyph-name="Sacute" unicode="&#x15a;" horiz-adv-x="285" d="M40 541 Q40 563 45.5 587 Q51 611 63.5 630.5 Q76 650 95.5 662.5 Q115 675 143 675 Q193 675 219 640 Q245 605 245 535 L245 527 L225 527 L225 533 Q225 555 221 577 Q217 599 208 617 Q199 635 183 646 Q167 657 143 657 Q107 657 83.5 627 Q60 597 60 552 L60 511 Q60 469 77.5 438 Q95 407 138 373 Q160 355 179.5 335.5 Q199 316 213.5 293.5 Q228 271 236.5 244.5 Q245 218 245 184 L245 124 Q245 100 239 76 Q233 52 220.5 33 Q208 14 189 2 Q170 -10 143 -10 Q40 -10 40 130 L40 138 L60 138 L60 132 Q60 110 64 88 Q68 66 77.5 48 Q87 30 103 19 Q119 8 143 8 Q180 8 202.5 38 Q225 68 225 113 L225 174 Q225 228 201.5 270.5 Q178 313 128 355 Q108 372 91.5 387.5 Q75 403 63.5 420.5 Q52 438 46 459 Q40 480 40 508 L40 541 Z M183 830 L126 699 L110 699 L159 830 L183 830 Z " />
<glyph glyph-name="Scedilla" unicode="&#x15e;" horiz-adv-x="285" d="M131 -9 Q40 -1 40 130 L40 138 L60 138 L60 132 Q60 110 64 88 Q68 66 77.5 48 Q87 30 103 19 Q119 8 143 8 Q180 8 202.5 38 Q225 68 225 113 L225 174 Q225 228 201.5 270.5 Q178 313 128 355 Q108 371 91.5 386.5 Q75 402 63.5 419.5 Q52 437 46 458.5 Q40 480 40 508 L40 541 Q40 563 45.5 587 Q51 611 63.5 630.5 Q76 650 95.5 662.5 Q115 675 143 675 Q193 675 219 640 Q245 605 245 535 L245 527 L225 527 L225 533 Q225 555 221 577 Q217 599 208 617 Q199 635 183 646 Q167 657 143 657 Q107 657 83.5 627 Q60 597 60 552 L60 511 Q60 469 77.5 438 Q95 407 138 373 Q160 355 179.5 335.5 Q199 316 213.5 293.5 Q228 271 236.5 244.5 Q245 218 245 184 L245 124 Q245 100 239.5 77 Q234 54 222.5 35 Q211 16 193 4 Q175 -8 151 -10 L151 -55 L159 -55 Q188 -55 203 -71 Q218 -87 218 -122 Q218 -157 202.5 -173.5 Q187 -190 159 -190 Q131 -190 115 -175 Q99 -160 99 -124 L99 -122 L119 -122 L119 -124 Q119 -150 130 -161 Q141 -172 159 -172 Q177 -172 188 -160 Q199 -148 199 -122 Q199 -73 159 -73 L131 -73 L131 -9 Z " />
<glyph glyph-name="Scircumflex" unicode="&#x15c;" horiz-adv-x="285" d="M40 541 Q40 563 45.5 587 Q51 611 63.5 630.5 Q76 650 95.5 662.5 Q115 675 143 675 Q193 675 219 640 Q245 605 245 535 L245 527 L225 527 L225 533 Q225 555 221 577 Q217 599 208 617 Q199 635 183 646 Q167 657 143 657 Q107 657 83.5 627 Q60 597 60 552 L60 511 Q60 469 77.5 438 Q95 407 138 373 Q160 355 179.5 335.5 Q199 316 213.5 293.5 Q228 271 236.5 244.5 Q245 218 245 184 L245 124 Q245 100 239 76 Q233 52 220.5 33 Q208 14 189 2 Q170 -10 143 -10 Q40 -10 40 130 L40 138 L60 138 L60 132 Q60 110 64 88 Q68 66 77.5 48 Q87 30 103 19 Q119 8 143 8 Q180 8 202.5 38 Q225 68 225 113 L225 174 Q225 228 201.5 270.5 Q178 313 128 355 Q108 372 91.5 387.5 Q75 403 63.5 420.5 Q52 438 46 459 Q40 480 40 508 L40 541 Z M154 830 L205 699 L187 699 L143 812 L99 699 L81 699 L132 830 L154 830 Z " />
<glyph glyph-name="uni0218" unicode="&#x218;" horiz-adv-x="285" d="M40 541 Q40 563 45.5 587 Q51 611 63.5 630.5 Q76 650 95.5 662.5 Q115 675 143 675 Q193 675 219 640 Q245 605 245 535 L245 527 L225 527 L225 533 Q225 555 221 577 Q217 599 208 617 Q199 635 183 646 Q167 657 143 657 Q107 657 83.5 627 Q60 597 60 552 L60 511 Q60 469 77.5 438 Q95 407 138 373 Q160 355 179.5 335.5 Q199 316 213.5 293.5 Q228 271 236.5 244.5 Q245 218 245 184 L245 124 Q245 100 239 76 Q233 52 220.5 33 Q208 14 189 2 Q170 -10 143 -10 Q40 -10 40 130 L40 138 L60 138 L60 132 Q60 110 64 88 Q68 66 77.5 48 Q87 30 103 19 Q119 8 143 8 Q180 8 202.5 38 Q225 68 225 113 L225 174 Q225 228 201.5 270.5 Q178 313 128 355 Q108 372 91.5 387.5 Q75 403 63.5 420.5 Q52 438 46 459 Q40 480 40 508 L40 541 Z M127 -148 L115 -148 L132 -40 L156 -40 L127 -148 Z " />
<glyph glyph-name="Tbar" unicode="&#x166;" horiz-adv-x="296" d="M58 427 L136 427 L136 647 L20 647 L20 665 L276 665 L276 647 L156 647 L156 427 L238 427 L238 409 L156 409 L156 0 L136 0 L136 409 L58 409 L58 427 Z " />
<glyph glyph-name="Tcaron" unicode="&#x164;" horiz-adv-x="296" d="M136 0 L136 647 L20 647 L20 665 L276 665 L276 647 L156 647 L156 0 L136 0 Z M137 699 L86 830 L104 830 L148 717 L192 830 L210 830 L159 699 L137 699 Z " />
<glyph glyph-name="uni0162" unicode="&#x162;" horiz-adv-x="296" d="M136 0 L136 647 L20 647 L20 665 L276 665 L276 647 L156 647 L156 0 L136 0 Z M132 -148 L120 -148 L137 -40 L161 -40 L132 -148 Z " />
<glyph glyph-name="uni021A" unicode="&#x21a;" horiz-adv-x="296" d="M136 0 L136 647 L20 647 L20 665 L276 665 L276 647 L156 647 L156 0 L136 0 Z M132 -148 L120 -148 L137 -40 L161 -40 L132 -148 Z " />
<glyph glyph-name="Uacute" unicode="&#xda;" horiz-adv-x="346" d="M281 665 L281 140 Q281 67 254 28.5 Q227 -10 173 -10 Q119 -10 92 28.5 Q65 67 65 140 L65 665 L85 665 L85 132 Q85 110 89.5 88 Q94 66 104.5 48 Q115 30 132 19 Q149 8 173 8 Q197 8 214 19 Q231 30 241.5 48 Q252 66 256.5 88 Q261 110 261 132 L261 665 L281 665 Z M213 830 L156 699 L140 699 L189 830 L213 830 Z " />
<glyph glyph-name="Ucircumflex" unicode="&#xdb;" horiz-adv-x="346" d="M281 665 L281 140 Q281 67 254 28.5 Q227 -10 173 -10 Q119 -10 92 28.5 Q65 67 65 140 L65 665 L85 665 L85 132 Q85 110 89.5 88 Q94 66 104.5 48 Q115 30 132 19 Q149 8 173 8 Q197 8 214 19 Q231 30 241.5 48 Q252 66 256.5 88 Q261 110 261 132 L261 665 L281 665 Z M184 830 L235 699 L217 699 L173 812 L129 699 L111 699 L162 830 L184 830 Z " />
<glyph glyph-name="Udieresis" unicode="&#xdc;" horiz-adv-x="346" d="M281 665 L281 140 Q281 67 254 28.5 Q227 -10 173 -10 Q119 -10 92 28.5 Q65 67 65 140 L65 665 L85 665 L85 132 Q85 110 89.5 88 Q94 66 104.5 48 Q115 30 132 19 Q149 8 173 8 Q197 8 214 19 Q231 30 241.5 48 Q252 66 256.5 88 Q261 110 261 132 L261 665 L281 665 Z M127 788 Q147 788 147 768 Q147 747 127 747 Q107 747 107 768 Q107 788 127 788 Z M219 788 Q239 788 239 768 Q239 747 219 747 Q199 747 199 768 Q199 788 219 788 Z " />
<glyph glyph-name="Ugrave" unicode="&#xd9;" horiz-adv-x="346" d="M281 665 L281 140 Q281 67 254 28.5 Q227 -10 173 -10 Q119 -10 92 28.5 Q65 67 65 140 L65 665 L85 665 L85 132 Q85 110 89.5 88 Q94 66 104.5 48 Q115 30 132 19 Q149 8 173 8 Q197 8 214 19 Q231 30 241.5 48 Q252 66 256.5 88 Q261 110 261 132 L261 665 L281 665 Z M156 830 L205 699 L189 699 L132 830 L156 830 Z " />
<glyph glyph-name="Ubreve" unicode="&#x16c;" horiz-adv-x="346" d="M281 665 L281 140 Q281 67 254 28.5 Q227 -10 173 -10 Q119 -10 92 28.5 Q65 67 65 140 L65 665 L85 665 L85 132 Q85 110 89.5 88 Q94 66 104.5 48 Q115 30 132 19 Q149 8 173 8 Q197 8 214 19 Q231 30 241.5 48 Q252 66 256.5 88 Q261 110 261 132 L261 665 L281 665 Z M241 809 L241 797 Q241 765 223 746.5 Q205 728 173 728 Q141 728 122.5 746.5 Q104 765 104 797 L104 809 L124 809 L124 797 Q124 773 137 759.5 Q150 746 173 746 Q196 746 209 759.5 Q222 773 222 797 L222 809 L241 809 Z " />
<glyph glyph-name="Uhungarumlaut" unicode="&#x170;" horiz-adv-x="346" d="M281 665 L281 140 Q281 67 254 28.5 Q227 -10 173 -10 Q119 -10 92 28.5 Q65 67 65 140 L65 665 L85 665 L85 132 Q85 110 89.5 88 Q94 66 104.5 48 Q115 30 132 19 Q149 8 173 8 Q197 8 214 19 Q231 30 241.5 48 Q252 66 256.5 88 Q261 110 261 132 L261 665 L281 665 Z M271 830 L214 699 L198 699 L247 830 L271 830 Z M189 830 L132 699 L116 699 L165 830 L189 830 Z " />
<glyph glyph-name="Umacron" unicode="&#x16a;" horiz-adv-x="346" d="M281 665 L281 140 Q281 67 254 28.5 Q227 -10 173 -10 Q119 -10 92 28.5 Q65 67 65 140 L65 665 L85 665 L85 132 Q85 110 89.5 88 Q94 66 104.5 48 Q115 30 132 19 Q149 8 173 8 Q197 8 214 19 Q231 30 241.5 48 Q252 66 256.5 88 Q261 110 261 132 L261 665 L281 665 Z M103 778 L243 778 L243 758 L103 758 L103 778 Z " />
<glyph glyph-name="Uogonek" unicode="&#x172;" horiz-adv-x="346" d="M281 665 L281 140 Q281 37 226 2 Q188 -22 165.5 -55 Q143 -88 143 -128 Q143 -172 177 -172 Q193 -172 202 -161 Q211 -150 211 -124 L211 -122 L231 -122 L231 -124 Q231 -158 217 -174 Q203 -190 177 -190 Q150 -190 136.5 -174 Q123 -158 123 -129 Q123 -94 140.5 -62.5 Q158 -31 189 -9 Q185 -9 181 -9.5 Q177 -10 173 -10 Q119 -10 92 28.5 Q65 67 65 140 L65 665 L85 665 L85 132 Q85 110 89.5 88 Q94 66 104.5 48 Q115 30 132 19 Q149 8 173 8 Q197 8 214 19 Q231 30 241.5 48 Q252 66 256.5 88 Q261 110 261 132 L261 665 L281 665 Z " />
<glyph glyph-name="Uring" unicode="&#x16e;" horiz-adv-x="346" d="M281 665 L281 140 Q281 67 254 28.5 Q227 -10 173 -10 Q119 -10 92 28.5 Q65 67 65 140 L65 665 L85 665 L85 132 Q85 110 89.5 88 Q94 66 104.5 48 Q115 30 132 19 Q149 8 173 8 Q197 8 214 19 Q231 30 241.5 48 Q252 66 256.5 88 Q261 110 261 132 L261 665 L281 665 Z M125 768 Q125 748 139 733.5 Q153 719 173 719 Q193 719 207 733.5 Q221 748 221 768 Q221 788 207 802.5 Q193 817 173 817 Q153 817 139 802.5 Q125 788 125 768 Z M105 768 Q105 797 124.5 816.5 Q144 836 173 836 Q202 836 221 816.5 Q240 797 240 768 Q240 739 221 719 Q202 699 173 699 Q144 699 124.5 719 Q105 739 105 768 Z " />
<glyph glyph-name="Utilde" unicode="&#x168;" horiz-adv-x="346" d="M281 665 L281 140 Q281 67 254 28.5 Q227 -10 173 -10 Q119 -10 92 28.5 Q65 67 65 140 L65 665 L85 665 L85 132 Q85 110 89.5 88 Q94 66 104.5 48 Q115 30 132 19 Q149 8 173 8 Q197 8 214 19 Q231 30 241.5 48 Q252 66 256.5 88 Q261 110 261 132 L261 665 L281 665 Z M85 730 Q85 754 88.5 768.5 Q92 783 98 791 Q104 799 112 801.5 Q120 804 128 804 Q143 804 155 795 Q167 786 177.5 775.5 Q188 765 197.5 756.5 Q207 748 218 748 Q229 748 235 758 Q241 768 241 804 L241 806 L261 806 L261 804 Q261 780 257.5 765.5 Q254 751 248 743 Q242 735 234 732.5 Q226 730 218 730 Q203 730 190.5 738.5 Q178 747 167 757.5 Q156 768 146.5 777 Q137 786 128 786 Q117 786 111 776 Q105 766 105 730 L105 728 L85 728 L85 730 Z " />
<glyph glyph-name="Wacute" unicode="&#x1e82;" horiz-adv-x="473" d="M241 665 L341 18 L343 18 L423 665 L443 665 L356 0 L328 0 L233 610 L231 610 L136 0 L109 0 L30 665 L50 665 L122 18 L124 18 L224 665 L241 665 Z M276 830 L219 699 L203 699 L252 830 L276 830 Z " />
<glyph glyph-name="Wcircumflex" unicode="&#x174;" horiz-adv-x="473" d="M241 665 L341 18 L343 18 L423 665 L443 665 L356 0 L328 0 L233 610 L231 610 L136 0 L109 0 L30 665 L50 665 L122 18 L124 18 L224 665 L241 665 Z M247 830 L298 699 L280 699 L236 812 L192 699 L174 699 L225 830 L247 830 Z " />
<glyph glyph-name="Wdieresis" unicode="&#x1e84;" horiz-adv-x="473" d="M241 665 L341 18 L343 18 L423 665 L443 665 L356 0 L328 0 L233 610 L231 610 L136 0 L109 0 L30 665 L50 665 L122 18 L124 18 L224 665 L241 665 Z M190 788 Q210 788 210 768 Q210 747 190 747 Q170 747 170 768 Q170 788 190 788 Z M282 788 Q302 788 302 768 Q302 747 282 747 Q262 747 262 768 Q262 788 282 788 Z " />
<glyph glyph-name="Wgrave" unicode="&#x1e80;" horiz-adv-x="473" d="M241 665 L341 18 L343 18 L423 665 L443 665 L356 0 L328 0 L233 610 L231 610 L136 0 L109 0 L30 665 L50 665 L122 18 L124 18 L224 665 L241 665 Z M219 830 L268 699 L252 699 L195 830 L219 830 Z " />
<glyph glyph-name="Yacute" unicode="&#xdd;" horiz-adv-x="310" d="M165 232 L165 0 L145 0 L145 232 L30 665 L50 665 L154 257 L156 257 L260 665 L280 665 L165 232 Z M195 830 L138 699 L122 699 L171 830 L195 830 Z " />
<glyph glyph-name="Ydieresis" unicode="&#x178;" horiz-adv-x="310" d="M165 232 L165 0 L145 0 L145 232 L30 665 L50 665 L154 257 L156 257 L260 665 L280 665 L165 232 Z M109 788 Q129 788 129 768 Q129 747 109 747 Q89 747 89 768 Q89 788 109 788 Z M201 788 Q221 788 221 768 Q221 747 201 747 Q181 747 181 768 Q181 788 201 788 Z " />
<glyph glyph-name="Ycircumflex" unicode="&#x176;" horiz-adv-x="310" d="M165 232 L165 0 L145 0 L145 232 L30 665 L50 665 L154 257 L156 257 L260 665 L280 665 L165 232 Z M166 830 L217 699 L199 699 L155 812 L111 699 L93 699 L144 830 L166 830 Z " />
<glyph glyph-name="Ygrave" unicode="&#x1ef2;" horiz-adv-x="310" d="M165 232 L165 0 L145 0 L145 232 L30 665 L50 665 L154 257 L156 257 L260 665 L280 665 L165 232 Z M138 830 L187 699 L171 699 L114 830 L138 830 Z " />
<glyph glyph-name="Zcaron" unicode="&#x17d;" horiz-adv-x="263" d="M35 647 L35 665 L233 665 L233 641 L48 18 L228 18 L228 0 L30 0 L30 24 L215 647 L35 647 Z M121 699 L70 830 L88 830 L132 717 L176 830 L194 830 L143 699 L121 699 Z " />
<glyph glyph-name="Zacute" unicode="&#x179;" horiz-adv-x="263" d="M35 647 L35 665 L233 665 L233 641 L48 18 L228 18 L228 0 L30 0 L30 24 L215 647 L35 647 Z M172 830 L115 699 L99 699 L148 830 L172 830 Z " />
<glyph glyph-name="Zdotaccent" unicode="&#x17b;" horiz-adv-x="263" d="M35 647 L35 665 L233 665 L233 641 L48 18 L228 18 L228 0 L30 0 L30 24 L215 647 L35 647 Z M132 790 Q154 790 154 768 Q154 745 132 745 Q110 745 110 768 Q110 790 132 790 Z " />
<glyph glyph-name="aacute" unicode="&#xe1;" horiz-adv-x="310" d="M50 378 L50 390 Q50 413 55 435 Q60 457 72 473.5 Q84 490 102.5 500 Q121 510 148 510 Q201 510 223.5 471 Q246 432 246 358 L246 60 Q246 30 254.5 20.5 Q263 11 277 8 L277 -10 Q248 -8 237 10.5 Q226 29 226 55 Q213 25 192 7.5 Q171 -10 139 -10 Q94 -10 72 21.5 Q50 53 50 113 L50 159 Q50 184 55.5 207 Q61 230 72.5 247 Q84 264 103 274 Q122 284 149 284 Q166 284 186.5 279 Q207 274 226 261 L226 366 Q226 387 223 409.5 Q220 432 211.5 450.5 Q203 469 187.5 480.5 Q172 492 148 492 Q127 492 112.5 483.5 Q98 475 88.5 461 Q79 447 74.5 428.5 Q70 410 70 390 L70 378 L50 378 Z M226 245 Q209 254 193.5 259.5 Q178 265 153 265 Q103 265 86.5 233.5 Q70 202 70 139 L70 134 Q70 105 73 82 Q76 59 84 42.5 Q92 26 107 17 Q122 8 146 8 Q174 8 194.5 29.5 Q215 51 226 79 L226 245 Z M190 675 L133 544 L117 544 L166 675 L190 675 Z " />
<glyph glyph-name="acircumflex" unicode="&#xe2;" horiz-adv-x="310" d="M50 378 L50 390 Q50 413 55 435 Q60 457 72 473.5 Q84 490 102.5 500 Q121 510 148 510 Q201 510 223.5 471 Q246 432 246 358 L246 60 Q246 30 254.5 20.5 Q263 11 277 8 L277 -10 Q248 -8 237 10.5 Q226 29 226 55 Q213 25 192 7.5 Q171 -10 139 -10 Q94 -10 72 21.5 Q50 53 50 113 L50 159 Q50 184 55.5 207 Q61 230 72.5 247 Q84 264 103 274 Q122 284 149 284 Q166 284 186.5 279 Q207 274 226 261 L226 366 Q226 387 223 409.5 Q220 432 211.5 450.5 Q203 469 187.5 480.5 Q172 492 148 492 Q127 492 112.5 483.5 Q98 475 88.5 461 Q79 447 74.5 428.5 Q70 410 70 390 L70 378 L50 378 Z M226 245 Q209 254 193.5 259.5 Q178 265 153 265 Q103 265 86.5 233.5 Q70 202 70 139 L70 134 Q70 105 73 82 Q76 59 84 42.5 Q92 26 107 17 Q122 8 146 8 Q174 8 194.5 29.5 Q215 51 226 79 L226 245 Z M161 675 L212 544 L194 544 L150 657 L106 544 L88 544 L139 675 L161 675 Z " />
<glyph glyph-name="adieresis" unicode="&#xe4;" horiz-adv-x="310" d="M50 378 L50 390 Q50 413 55 435 Q60 457 72 473.5 Q84 490 102.5 500 Q121 510 148 510 Q201 510 223.5 471 Q246 432 246 358 L246 60 Q246 30 254.5 20.5 Q263 11 277 8 L277 -10 Q248 -8 237 10.5 Q226 29 226 55 Q213 25 192 7.5 Q171 -10 139 -10 Q94 -10 72 21.5 Q50 53 50 113 L50 159 Q50 184 55.5 207 Q61 230 72.5 247 Q84 264 103 274 Q122 284 149 284 Q166 284 186.5 279 Q207 274 226 261 L226 366 Q226 387 223 409.5 Q220 432 211.5 450.5 Q203 469 187.5 480.5 Q172 492 148 492 Q127 492 112.5 483.5 Q98 475 88.5 461 Q79 447 74.5 428.5 Q70 410 70 390 L70 378 L50 378 Z M226 245 Q209 254 193.5 259.5 Q178 265 153 265 Q103 265 86.5 233.5 Q70 202 70 139 L70 134 Q70 105 73 82 Q76 59 84 42.5 Q92 26 107 17 Q122 8 146 8 Q174 8 194.5 29.5 Q215 51 226 79 L226 245 Z M104 633 Q124 633 124 613 Q124 592 104 592 Q84 592 84 613 Q84 633 104 633 Z M196 633 Q216 633 216 613 Q216 592 196 592 Q176 592 176 613 Q176 633 196 633 Z " />
<glyph glyph-name="agrave" unicode="&#xe0;" horiz-adv-x="310" d="M50 378 L50 390 Q50 413 55 435 Q60 457 72 473.5 Q84 490 102.5 500 Q121 510 148 510 Q201 510 223.5 471 Q246 432 246 358 L246 60 Q246 30 254.5 20.5 Q263 11 277 8 L277 -10 Q248 -8 237 10.5 Q226 29 226 55 Q213 25 192 7.5 Q171 -10 139 -10 Q94 -10 72 21.5 Q50 53 50 113 L50 159 Q50 184 55.5 207 Q61 230 72.5 247 Q84 264 103 274 Q122 284 149 284 Q166 284 186.5 279 Q207 274 226 261 L226 366 Q226 387 223 409.5 Q220 432 211.5 450.5 Q203 469 187.5 480.5 Q172 492 148 492 Q127 492 112.5 483.5 Q98 475 88.5 461 Q79 447 74.5 428.5 Q70 410 70 390 L70 378 L50 378 Z M226 245 Q209 254 193.5 259.5 Q178 265 153 265 Q103 265 86.5 233.5 Q70 202 70 139 L70 134 Q70 105 73 82 Q76 59 84 42.5 Q92 26 107 17 Q122 8 146 8 Q174 8 194.5 29.5 Q215 51 226 79 L226 245 Z M133 675 L182 544 L166 544 L109 675 L133 675 Z " />
<glyph glyph-name="aring" unicode="&#xe5;" horiz-adv-x="310" d="M50 378 L50 390 Q50 413 55 435 Q60 457 72 473.5 Q84 490 102.5 500 Q121 510 148 510 Q201 510 223.5 471 Q246 432 246 358 L246 60 Q246 30 254.5 20.5 Q263 11 277 8 L277 -10 Q248 -8 237 10.5 Q226 29 226 55 Q213 25 192 7.5 Q171 -10 139 -10 Q94 -10 72 21.5 Q50 53 50 113 L50 159 Q50 184 55.5 207 Q61 230 72.5 247 Q84 264 103 274 Q122 284 149 284 Q166 284 186.5 279 Q207 274 226 261 L226 366 Q226 387 223 409.5 Q220 432 211.5 450.5 Q203 469 187.5 480.5 Q172 492 148 492 Q127 492 112.5 483.5 Q98 475 88.5 461 Q79 447 74.5 428.5 Q70 410 70 390 L70 378 L50 378 Z M226 245 Q209 254 193.5 259.5 Q178 265 153 265 Q103 265 86.5 233.5 Q70 202 70 139 L70 134 Q70 105 73 82 Q76 59 84 42.5 Q92 26 107 17 Q122 8 146 8 Q174 8 194.5 29.5 Q215 51 226 79 L226 245 Z M102 613 Q102 593 116 578.5 Q130 564 150 564 Q170 564 184 578.5 Q198 593 198 613 Q198 633 184 647.5 Q170 662 150 662 Q130 662 116 647.5 Q102 633 102 613 Z M82 613 Q82 642 101.5 661.5 Q121 681 150 681 Q179 681 198 661.5 Q217 642 217 613 Q217 584 198 564 Q179 544 150 544 Q121 544 101.5 564 Q82 584 82 613 Z " />
<glyph glyph-name="atilde" unicode="&#xe3;" horiz-adv-x="310" d="M50 378 L50 390 Q50 413 55 435 Q60 457 72 473.5 Q84 490 102.5 500 Q121 510 148 510 Q201 510 223.5 471 Q246 432 246 358 L246 60 Q246 30 254.5 20.5 Q263 11 277 8 L277 -10 Q248 -8 237 10.5 Q226 29 226 55 Q213 25 192 7.5 Q171 -10 139 -10 Q94 -10 72 21.5 Q50 53 50 113 L50 159 Q50 184 55.5 207 Q61 230 72.5 247 Q84 264 103 274 Q122 284 149 284 Q166 284 186.5 279 Q207 274 226 261 L226 366 Q226 387 223 409.5 Q220 432 211.5 450.5 Q203 469 187.5 480.5 Q172 492 148 492 Q127 492 112.5 483.5 Q98 475 88.5 461 Q79 447 74.5 428.5 Q70 410 70 390 L70 378 L50 378 Z M226 245 Q209 254 193.5 259.5 Q178 265 153 265 Q103 265 86.5 233.5 Q70 202 70 139 L70 134 Q70 105 73 82 Q76 59 84 42.5 Q92 26 107 17 Q122 8 146 8 Q174 8 194.5 29.5 Q215 51 226 79 L226 245 Z M64 575 Q64 599 67.5 613.5 Q71 628 77 636 Q83 644 91 646.5 Q99 649 107 649 Q122 649 134 640 Q146 631 156.5 620.5 Q167 610 176.5 601.5 Q186 593 197 593 Q208 593 214 603 Q220 613 220 649 L220 651 L240 651 L240 649 Q240 625 236.5 610.5 Q233 596 227 588 Q221 580 213 577.5 Q205 575 197 575 Q182 575 169.5 583.5 Q157 592 146 602.5 Q135 613 125.5 622 Q116 631 107 631 Q96 631 90 621 Q84 611 84 575 L84 573 L64 573 L64 575 Z " />
<glyph glyph-name="abreve" unicode="&#x103;" horiz-adv-x="310" d="M50 378 L50 390 Q50 413 55 435 Q60 457 72 473.5 Q84 490 102.5 500 Q121 510 148 510 Q201 510 223.5 471 Q246 432 246 358 L246 60 Q246 30 254.5 20.5 Q263 11 277 8 L277 -10 Q248 -8 237 10.5 Q226 29 226 55 Q213 25 192 7.5 Q171 -10 139 -10 Q94 -10 72 21.5 Q50 53 50 113 L50 159 Q50 184 55.5 207 Q61 230 72.5 247 Q84 264 103 274 Q122 284 149 284 Q166 284 186.5 279 Q207 274 226 261 L226 366 Q226 387 223 409.5 Q220 432 211.5 450.5 Q203 469 187.5 480.5 Q172 492 148 492 Q127 492 112.5 483.5 Q98 475 88.5 461 Q79 447 74.5 428.5 Q70 410 70 390 L70 378 L50 378 Z M226 245 Q209 254 193.5 259.5 Q178 265 153 265 Q103 265 86.5 233.5 Q70 202 70 139 L70 134 Q70 105 73 82 Q76 59 84 42.5 Q92 26 107 17 Q122 8 146 8 Q174 8 194.5 29.5 Q215 51 226 79 L226 245 Z M219 654 L219 642 Q219 610 201 591.5 Q183 573 151 573 Q119 573 100.5 591.5 Q82 610 82 642 L82 654 L102 654 L102 642 Q102 618 115 604.5 Q128 591 151 591 Q174 591 187 604.5 Q200 618 200 642 L200 654 L219 654 Z " />
<glyph glyph-name="amacron" unicode="&#x101;" horiz-adv-x="310" d="M50 378 L50 390 Q50 413 55 435 Q60 457 72 473.5 Q84 490 102.5 500 Q121 510 148 510 Q201 510 223.5 471 Q246 432 246 358 L246 60 Q246 30 254.5 20.5 Q263 11 277 8 L277 -10 Q248 -8 237 10.5 Q226 29 226 55 Q213 25 192 7.5 Q171 -10 139 -10 Q94 -10 72 21.5 Q50 53 50 113 L50 159 Q50 184 55.5 207 Q61 230 72.5 247 Q84 264 103 274 Q122 284 149 284 Q166 284 186.5 279 Q207 274 226 261 L226 366 Q226 387 223 409.5 Q220 432 211.5 450.5 Q203 469 187.5 480.5 Q172 492 148 492 Q127 492 112.5 483.5 Q98 475 88.5 461 Q79 447 74.5 428.5 Q70 410 70 390 L70 378 L50 378 Z M226 245 Q209 254 193.5 259.5 Q178 265 153 265 Q103 265 86.5 233.5 Q70 202 70 139 L70 134 Q70 105 73 82 Q76 59 84 42.5 Q92 26 107 17 Q122 8 146 8 Q174 8 194.5 29.5 Q215 51 226 79 L226 245 Z M85 623 L225 623 L225 603 L85 603 L85 623 Z " />
<glyph glyph-name="aogonek" unicode="&#x105;" horiz-adv-x="310" d="M50 378 L50 390 Q50 413 55 435 Q60 457 72 473.5 Q84 490 102.5 500 Q121 510 148 510 Q201 510 223.5 471 Q246 432 246 358 L246 60 Q246 30 254.5 20.5 Q263 11 277 8 L277 -10 Q271 -9 266 -8 Q261 -7 256 -5 Q218 -25 199 -58 Q180 -91 180 -128 Q180 -172 214 -172 Q230 -172 239 -161 Q248 -150 248 -124 L248 -122 L268 -122 L268 -124 Q268 -158 254 -174 Q240 -190 214 -190 Q187 -190 173.5 -174 Q160 -158 160 -129 Q160 -88 182 -53.5 Q204 -19 243 2 Q233 11 229.5 24.5 Q226 38 226 55 Q213 25 192 7.5 Q171 -10 139 -10 Q94 -10 72 21.5 Q50 53 50 113 L50 159 Q50 184 55.5 207 Q61 230 72.5 247 Q84 264 103 274 Q122 284 149 284 Q166 284 186.5 279 Q207 274 226 261 L226 366 Q226 387 223 409.5 Q220 432 211.5 450.5 Q203 469 187.5 480.5 Q172 492 148 492 Q127 492 112.5 483.5 Q98 475 88.5 461 Q79 447 74.5 428.5 Q70 410 70 390 L70 378 L50 378 Z M226 245 Q209 254 193.5 259.5 Q178 265 153 265 Q103 265 86.5 233.5 Q70 202 70 139 L70 134 Q70 105 73 82 Q76 59 84 42.5 Q92 26 107 17 Q122 8 146 8 Q174 8 194.5 29.5 Q215 51 226 79 L226 245 Z " />
<glyph glyph-name="ccedilla" unicode="&#xe7;" horiz-adv-x="295" d="M136 -9 Q91 -2 73 36 Q55 74 55 142 L55 358 Q55 432 77 471 Q99 510 153 510 Q205 510 227.5 473 Q250 436 250 367 L250 358 L232 358 L232 366 Q232 390 229 412.5 Q226 435 217 452.5 Q208 470 192.5 481 Q177 492 153 492 Q128 492 113 480.5 Q98 469 89.5 450.5 Q81 432 78 409.5 Q75 387 75 366 L75 134 Q75 113 78 90.5 Q81 68 89.5 49.5 Q98 31 113 19.5 Q128 8 153 8 Q177 8 192.5 19 Q208 30 217 47.5 Q226 65 229 87.5 Q232 110 232 134 L232 142 L250 142 L250 134 Q250 65 228.5 28.5 Q207 -8 156 -10 L156 -55 L164 -55 Q193 -55 208 -71 Q223 -87 223 -122 Q223 -157 207.5 -173.5 Q192 -190 164 -190 Q136 -190 120 -175 Q104 -160 104 -124 L104 -122 L124 -122 L124 -124 Q124 -150 135 -161 Q146 -172 164 -172 Q182 -172 193 -160 Q204 -148 204 -122 Q204 -73 164 -73 L136 -73 L136 -9 Z " />
<glyph glyph-name="cacute" unicode="&#x107;" horiz-adv-x="295" d="M232 358 L232 366 Q232 390 229 412.5 Q226 435 217 452.5 Q208 470 192.5 481 Q177 492 153 492 Q128 492 113 480.5 Q98 469 89.5 450.5 Q81 432 78 409.5 Q75 387 75 366 L75 134 Q75 113 78 90.5 Q81 68 89.5 49.5 Q98 31 113 19.5 Q128 8 153 8 Q177 8 192.5 19 Q208 30 217 47.5 Q226 65 229 87.5 Q232 110 232 134 L232 142 L250 142 L250 134 Q250 64 227.5 27 Q205 -10 153 -10 Q99 -10 77 29 Q55 68 55 142 L55 358 Q55 432 77 471 Q99 510 153 510 Q205 510 227.5 473 Q250 436 250 367 L250 358 L232 358 Z M188 675 L131 544 L115 544 L164 675 L188 675 Z " />
<glyph glyph-name="ccaron" unicode="&#x10d;" horiz-adv-x="295" d="M232 358 L232 366 Q232 390 229 412.5 Q226 435 217 452.5 Q208 470 192.5 481 Q177 492 153 492 Q128 492 113 480.5 Q98 469 89.5 450.5 Q81 432 78 409.5 Q75 387 75 366 L75 134 Q75 113 78 90.5 Q81 68 89.5 49.5 Q98 31 113 19.5 Q128 8 153 8 Q177 8 192.5 19 Q208 30 217 47.5 Q226 65 229 87.5 Q232 110 232 134 L232 142 L250 142 L250 134 Q250 64 227.5 27 Q205 -10 153 -10 Q99 -10 77 29 Q55 68 55 142 L55 358 Q55 432 77 471 Q99 510 153 510 Q205 510 227.5 473 Q250 436 250 367 L250 358 L232 358 Z M137 544 L86 675 L104 675 L148 562 L192 675 L210 675 L159 544 L137 544 Z " />
<glyph glyph-name="ccircumflex" unicode="&#x109;" horiz-adv-x="295" d="M232 358 L232 366 Q232 390 229 412.5 Q226 435 217 452.5 Q208 470 192.5 481 Q177 492 153 492 Q128 492 113 480.5 Q98 469 89.5 450.5 Q81 432 78 409.5 Q75 387 75 366 L75 134 Q75 113 78 90.5 Q81 68 89.5 49.5 Q98 31 113 19.5 Q128 8 153 8 Q177 8 192.5 19 Q208 30 217 47.5 Q226 65 229 87.5 Q232 110 232 134 L232 142 L250 142 L250 134 Q250 64 227.5 27 Q205 -10 153 -10 Q99 -10 77 29 Q55 68 55 142 L55 358 Q55 432 77 471 Q99 510 153 510 Q205 510 227.5 473 Q250 436 250 367 L250 358 L232 358 Z M159 675 L210 544 L192 544 L148 657 L104 544 L86 544 L137 675 L159 675 Z " />
<glyph glyph-name="cdotaccent" unicode="&#x10b;" horiz-adv-x="295" d="M232 358 L232 366 Q232 390 229 412.5 Q226 435 217 452.5 Q208 470 192.5 481 Q177 492 153 492 Q128 492 113 480.5 Q98 469 89.5 450.5 Q81 432 78 409.5 Q75 387 75 366 L75 134 Q75 113 78 90.5 Q81 68 89.5 49.5 Q98 31 113 19.5 Q128 8 153 8 Q177 8 192.5 19 Q208 30 217 47.5 Q226 65 229 87.5 Q232 110 232 134 L232 142 L250 142 L250 134 Q250 64 227.5 27 Q205 -10 153 -10 Q99 -10 77 29 Q55 68 55 142 L55 358 Q55 432 77 471 Q99 510 153 510 Q205 510 227.5 473 Q250 436 250 367 L250 358 L232 358 Z M148 635 Q170 635 170 613 Q170 590 148 590 Q126 590 126 613 Q126 635 148 635 Z " />
<glyph glyph-name="dcaron" unicode="&#x10f;" horiz-adv-x="342" d="M231 438 Q223 456 203.5 474 Q184 492 153 492 Q130 492 115 481.5 Q100 471 91 453.5 Q82 436 78.5 413.5 Q75 391 75 366 L75 134 Q75 111 78 88.5 Q81 66 89.5 48 Q98 30 113 19 Q128 8 153 8 Q182 8 201 30 Q220 52 231 80 L231 438 Z M251 60 Q251 31 258.5 19.5 Q266 8 283 8 L283 -10 Q254 -10 242.5 8.5 Q231 27 231 53 Q220 27 199.5 8.5 Q179 -10 147 -10 Q100 -10 77.5 29 Q55 68 55 142 L55 358 Q55 432 77 471 Q99 510 153 510 Q182 510 201 496 Q220 482 231 462 L231 710 L249 710 L251 665 L251 60 Z M318 577 L306 577 L323 685 L347 685 L318 577 Z " />
<glyph glyph-name="dcroat" unicode="&#x111;" horiz-adv-x="316" d="M251 621 L283 621 L283 603 L251 603 L251 60 Q251 31 258.5 19.5 Q266 8 283 8 L283 -10 Q254 -10 242.5 8.5 Q231 27 231 53 Q220 27 199.5 8.5 Q179 -10 147 -10 Q100 -10 77.5 29 Q55 68 55 142 L55 358 Q55 432 77 471 Q99 510 153 510 Q182 510 201 496 Q220 482 231 462 L231 603 L119 603 L119 621 L231 621 L231 710 L249 710 L251 665 L251 621 Z M231 438 Q223 456 203.5 474 Q184 492 153 492 Q130 492 115 481.5 Q100 471 91 453.5 Q82 436 78.5 413.5 Q75 391 75 366 L75 134 Q75 111 78 88.5 Q81 66 89.5 48 Q98 30 113 19 Q128 8 153 8 Q182 8 201 30 Q220 52 231 80 L231 438 Z " />
<glyph glyph-name="eacute" unicode="&#xe9;" horiz-adv-x="301" d="M75 284 L231 284 L231 366 Q231 388 228 410.5 Q225 433 216.5 451 Q208 469 192.5 480.5 Q177 492 153 492 Q128 492 113 480.5 Q98 469 89.5 450.5 Q81 432 78 409.5 Q75 387 75 366 L75 284 Z M233 142 L251 142 L251 134 Q251 65 228 27.5 Q205 -10 153 -10 Q99 -10 77 29 Q55 68 55 142 L55 358 Q55 432 77 471 Q99 510 153 510 Q207 510 229 471 Q251 432 251 358 L251 265 L75 265 L75 134 Q75 113 78 90.5 Q81 68 89.5 49.5 Q98 31 113 19.5 Q128 8 153 8 Q177 8 192.5 19 Q208 30 217 47.5 Q226 65 229.5 87.5 Q233 110 233 134 L233 142 Z M191 675 L134 544 L118 544 L167 675 L191 675 Z " />
<glyph glyph-name="ecircumflex" unicode="&#xea;" horiz-adv-x="301" d="M75 284 L231 284 L231 366 Q231 388 228 410.5 Q225 433 216.5 451 Q208 469 192.5 480.5 Q177 492 153 492 Q128 492 113 480.5 Q98 469 89.5 450.5 Q81 432 78 409.5 Q75 387 75 366 L75 284 Z M233 142 L251 142 L251 134 Q251 65 228 27.5 Q205 -10 153 -10 Q99 -10 77 29 Q55 68 55 142 L55 358 Q55 432 77 471 Q99 510 153 510 Q207 510 229 471 Q251 432 251 358 L251 265 L75 265 L75 134 Q75 113 78 90.5 Q81 68 89.5 49.5 Q98 31 113 19.5 Q128 8 153 8 Q177 8 192.5 19 Q208 30 217 47.5 Q226 65 229.5 87.5 Q233 110 233 134 L233 142 Z M162 675 L213 544 L195 544 L151 657 L107 544 L89 544 L140 675 L162 675 Z " />
<glyph glyph-name="edieresis" unicode="&#xeb;" horiz-adv-x="301" d="M75 284 L231 284 L231 366 Q231 388 228 410.5 Q225 433 216.5 451 Q208 469 192.5 480.5 Q177 492 153 492 Q128 492 113 480.5 Q98 469 89.5 450.5 Q81 432 78 409.5 Q75 387 75 366 L75 284 Z M233 142 L251 142 L251 134 Q251 65 228 27.5 Q205 -10 153 -10 Q99 -10 77 29 Q55 68 55 142 L55 358 Q55 432 77 471 Q99 510 153 510 Q207 510 229 471 Q251 432 251 358 L251 265 L75 265 L75 134 Q75 113 78 90.5 Q81 68 89.5 49.5 Q98 31 113 19.5 Q128 8 153 8 Q177 8 192.5 19 Q208 30 217 47.5 Q226 65 229.5 87.5 Q233 110 233 134 L233 142 Z M105 633 Q125 633 125 613 Q125 592 105 592 Q85 592 85 613 Q85 633 105 633 Z M197 633 Q217 633 217 613 Q217 592 197 592 Q177 592 177 613 Q177 633 197 633 Z " />
<glyph glyph-name="egrave" unicode="&#xe8;" horiz-adv-x="301" d="M75 284 L231 284 L231 366 Q231 388 228 410.5 Q225 433 216.5 451 Q208 469 192.5 480.5 Q177 492 153 492 Q128 492 113 480.5 Q98 469 89.5 450.5 Q81 432 78 409.5 Q75 387 75 366 L75 284 Z M233 142 L251 142 L251 134 Q251 65 228 27.5 Q205 -10 153 -10 Q99 -10 77 29 Q55 68 55 142 L55 358 Q55 432 77 471 Q99 510 153 510 Q207 510 229 471 Q251 432 251 358 L251 265 L75 265 L75 134 Q75 113 78 90.5 Q81 68 89.5 49.5 Q98 31 113 19.5 Q128 8 153 8 Q177 8 192.5 19 Q208 30 217 47.5 Q226 65 229.5 87.5 Q233 110 233 134 L233 142 Z M134 675 L183 544 L167 544 L110 675 L134 675 Z " />
<glyph glyph-name="ebreve" unicode="&#x115;" horiz-adv-x="301" d="M75 284 L231 284 L231 366 Q231 388 228 410.5 Q225 433 216.5 451 Q208 469 192.5 480.5 Q177 492 153 492 Q128 492 113 480.5 Q98 469 89.5 450.5 Q81 432 78 409.5 Q75 387 75 366 L75 284 Z M233 142 L251 142 L251 134 Q251 65 228 27.5 Q205 -10 153 -10 Q99 -10 77 29 Q55 68 55 142 L55 358 Q55 432 77 471 Q99 510 153 510 Q207 510 229 471 Q251 432 251 358 L251 265 L75 265 L75 134 Q75 113 78 90.5 Q81 68 89.5 49.5 Q98 31 113 19.5 Q128 8 153 8 Q177 8 192.5 19 Q208 30 217 47.5 Q226 65 229.5 87.5 Q233 110 233 134 L233 142 Z M219 654 L219 642 Q219 610 201 591.5 Q183 573 151 573 Q119 573 100.5 591.5 Q82 610 82 642 L82 654 L102 654 L102 642 Q102 618 115 604.5 Q128 591 151 591 Q174 591 187 604.5 Q200 618 200 642 L200 654 L219 654 Z " />
<glyph glyph-name="ecaron" unicode="&#x11b;" horiz-adv-x="301" d="M75 284 L231 284 L231 366 Q231 388 228 410.5 Q225 433 216.5 451 Q208 469 192.5 480.5 Q177 492 153 492 Q128 492 113 480.5 Q98 469 89.5 450.5 Q81 432 78 409.5 Q75 387 75 366 L75 284 Z M233 142 L251 142 L251 134 Q251 65 228 27.5 Q205 -10 153 -10 Q99 -10 77 29 Q55 68 55 142 L55 358 Q55 432 77 471 Q99 510 153 510 Q207 510 229 471 Q251 432 251 358 L251 265 L75 265 L75 134 Q75 113 78 90.5 Q81 68 89.5 49.5 Q98 31 113 19.5 Q128 8 153 8 Q177 8 192.5 19 Q208 30 217 47.5 Q226 65 229.5 87.5 Q233 110 233 134 L233 142 Z M140 544 L89 675 L107 675 L151 562 L195 675 L213 675 L162 544 L140 544 Z " />
<glyph glyph-name="edotaccent" unicode="&#x117;" horiz-adv-x="301" d="M75 284 L231 284 L231 366 Q231 388 228 410.5 Q225 433 216.5 451 Q208 469 192.5 480.5 Q177 492 153 492 Q128 492 113 480.5 Q98 469 89.5 450.5 Q81 432 78 409.5 Q75 387 75 366 L75 284 Z M233 142 L251 142 L251 134 Q251 65 228 27.5 Q205 -10 153 -10 Q99 -10 77 29 Q55 68 55 142 L55 358 Q55 432 77 471 Q99 510 153 510 Q207 510 229 471 Q251 432 251 358 L251 265 L75 265 L75 134 Q75 113 78 90.5 Q81 68 89.5 49.5 Q98 31 113 19.5 Q128 8 153 8 Q177 8 192.5 19 Q208 30 217 47.5 Q226 65 229.5 87.5 Q233 110 233 134 L233 142 Z M151 635 Q173 635 173 613 Q173 590 151 590 Q129 590 129 613 Q129 635 151 635 Z " />
<glyph glyph-name="emacron" unicode="&#x113;" horiz-adv-x="301" d="M75 284 L231 284 L231 366 Q231 388 228 410.5 Q225 433 216.5 451 Q208 469 192.5 480.5 Q177 492 153 492 Q128 492 113 480.5 Q98 469 89.5 450.5 Q81 432 78 409.5 Q75 387 75 366 L75 284 Z M233 142 L251 142 L251 134 Q251 65 228 27.5 Q205 -10 153 -10 Q99 -10 77 29 Q55 68 55 142 L55 358 Q55 432 77 471 Q99 510 153 510 Q207 510 229 471 Q251 432 251 358 L251 265 L75 265 L75 134 Q75 113 78 90.5 Q81 68 89.5 49.5 Q98 31 113 19.5 Q128 8 153 8 Q177 8 192.5 19 Q208 30 217 47.5 Q226 65 229.5 87.5 Q233 110 233 134 L233 142 Z M81 623 L221 623 L221 603 L81 603 L81 623 Z " />
<glyph glyph-name="eogonek" unicode="&#x119;" horiz-adv-x="301" d="M233 142 L251 142 L251 134 Q251 86 240.5 53.5 Q230 21 206 4 Q168 -22 144.5 -55 Q121 -88 121 -128 Q121 -172 155 -172 Q171 -172 180 -161 Q189 -150 189 -124 L189 -122 L209 -122 L209 -124 Q209 -158 195 -174 Q181 -190 155 -190 Q128 -190 114.5 -174 Q101 -158 101 -129 Q101 -94 118 -62.5 Q135 -31 166 -9 Q163 -9 159.5 -9.5 Q156 -10 153 -10 Q99 -10 77 29 Q55 68 55 142 L55 358 Q55 432 77 471 Q99 510 153 510 Q207 510 229 471 Q251 432 251 358 L251 265 L75 265 L75 134 Q75 113 78 90.5 Q81 68 89.5 49.5 Q98 31 113 19.5 Q128 8 153 8 Q177 8 192.5 19 Q208 30 217 47.5 Q226 65 229.5 87.5 Q233 110 233 134 L233 142 Z M75 284 L231 284 L231 366 Q231 388 228 410.5 Q225 433 216.5 451 Q208 469 192.5 480.5 Q177 492 153 492 Q128 492 113 480.5 Q98 469 89.5 450.5 Q81 432 78 409.5 Q75 387 75 366 L75 284 Z " />
<glyph glyph-name="gbreve" unicode="&#x11f;" horiz-adv-x="313" d="M231 440 Q224 458 204 475 Q184 492 153 492 Q130 492 115 481.5 Q100 471 91 453.5 Q82 436 78.5 413.5 Q75 391 75 366 L75 134 Q75 111 78 88.5 Q81 66 89.5 48 Q98 30 113 19 Q128 8 153 8 Q181 8 200.5 29.5 Q220 51 231 79 L231 440 Z M76 -103 L76 -112 Q76 -146 96.5 -169 Q117 -192 153 -192 Q177 -192 192.5 -181.5 Q208 -171 216.5 -154 Q225 -137 228 -114 Q231 -91 231 -65 L231 53 Q218 25 198 7.5 Q178 -10 147 -10 Q100 -10 77.5 29 Q55 68 55 142 L55 358 Q55 432 77 471 Q99 510 153 510 Q185 510 203.5 495 Q222 480 231 464 L237 500 L251 500 L251 -56 Q251 -131 229 -170.5 Q207 -210 153 -210 Q109 -210 83.5 -184.5 Q58 -159 58 -111 L58 -103 L76 -103 Z M225 654 L225 642 Q225 610 207 591.5 Q189 573 157 573 Q125 573 106.5 591.5 Q88 610 88 642 L88 654 L108 654 L108 642 Q108 618 121 604.5 Q134 591 157 591 Q180 591 193 604.5 Q206 618 206 642 L206 654 L225 654 Z " />
<glyph glyph-name="gcircumflex" unicode="&#x11d;" horiz-adv-x="313" d="M231 440 Q224 458 204 475 Q184 492 153 492 Q130 492 115 481.5 Q100 471 91 453.5 Q82 436 78.5 413.5 Q75 391 75 366 L75 134 Q75 111 78 88.5 Q81 66 89.5 48 Q98 30 113 19 Q128 8 153 8 Q181 8 200.5 29.5 Q220 51 231 79 L231 440 Z M76 -103 L76 -112 Q76 -146 96.5 -169 Q117 -192 153 -192 Q177 -192 192.5 -181.5 Q208 -171 216.5 -154 Q225 -137 228 -114 Q231 -91 231 -65 L231 53 Q218 25 198 7.5 Q178 -10 147 -10 Q100 -10 77.5 29 Q55 68 55 142 L55 358 Q55 432 77 471 Q99 510 153 510 Q185 510 203.5 495 Q222 480 231 464 L237 500 L251 500 L251 -56 Q251 -131 229 -170.5 Q207 -210 153 -210 Q109 -210 83.5 -184.5 Q58 -159 58 -111 L58 -103 L76 -103 Z M168 675 L219 544 L201 544 L157 657 L113 544 L95 544 L146 675 L168 675 Z " />
<glyph glyph-name="gcommaaccent" unicode="&#x123;" horiz-adv-x="313" d="M231 440 Q224 458 204 475 Q184 492 153 492 Q130 492 115 481.5 Q100 471 91 453.5 Q82 436 78.5 413.5 Q75 391 75 366 L75 134 Q75 111 78 88.5 Q81 66 89.5 48 Q98 30 113 19 Q128 8 153 8 Q181 8 200.5 29.5 Q220 51 231 79 L231 440 Z M76 -103 L76 -112 Q76 -146 96.5 -169 Q117 -192 153 -192 Q177 -192 192.5 -181.5 Q208 -171 216.5 -154 Q225 -137 228 -114 Q231 -91 231 -65 L231 53 Q218 25 198 7.5 Q178 -10 147 -10 Q100 -10 77.5 29 Q55 68 55 142 L55 358 Q55 432 77 471 Q99 510 153 510 Q185 510 203.5 495 Q222 480 231 464 L237 500 L251 500 L251 -56 Q251 -131 229 -170.5 Q207 -210 153 -210 Q109 -210 83.5 -184.5 Q58 -159 58 -111 L58 -103 L76 -103 Z M176 665 L188 665 L171 557 L147 557 L176 665 Z " />
<glyph glyph-name="gdotaccent" unicode="&#x121;" horiz-adv-x="313" d="M231 440 Q224 458 204 475 Q184 492 153 492 Q130 492 115 481.5 Q100 471 91 453.5 Q82 436 78.5 413.5 Q75 391 75 366 L75 134 Q75 111 78 88.5 Q81 66 89.5 48 Q98 30 113 19 Q128 8 153 8 Q181 8 200.5 29.5 Q220 51 231 79 L231 440 Z M76 -103 L76 -112 Q76 -146 96.5 -169 Q117 -192 153 -192 Q177 -192 192.5 -181.5 Q208 -171 216.5 -154 Q225 -137 228 -114 Q231 -91 231 -65 L231 53 Q218 25 198 7.5 Q178 -10 147 -10 Q100 -10 77.5 29 Q55 68 55 142 L55 358 Q55 432 77 471 Q99 510 153 510 Q185 510 203.5 495 Q222 480 231 464 L237 500 L251 500 L251 -56 Q251 -131 229 -170.5 Q207 -210 153 -210 Q109 -210 83.5 -184.5 Q58 -159 58 -111 L58 -103 L76 -103 Z M157 635 Q179 635 179 613 Q179 590 157 590 Q135 590 135 613 Q135 635 157 635 Z " />
<glyph glyph-name="hbar" unicode="&#x127;" horiz-adv-x="323" d="M85 621 L198 621 L198 603 L85 603 L85 444 Q96 469 116.5 489.5 Q137 510 173 510 Q219 510 240 471 Q261 432 261 358 L261 0 L243 0 L241 44 L241 366 Q241 391 238 413.5 Q235 436 227 453.5 Q219 471 205 481.5 Q191 492 168 492 Q137 492 116 469.5 Q95 447 85 420 L85 0 L65 0 L65 603 L34 603 L34 621 L65 621 L65 710 L83 710 L85 665 L85 621 Z " />
<glyph glyph-name="hcircumflex" unicode="&#x125;" horiz-adv-x="323" d="M85 444 Q96 469 116.5 489.5 Q137 510 173 510 Q219 510 240 471 Q261 432 261 358 L261 0 L243 0 L241 44 L241 366 Q241 391 238 413.5 Q235 436 227 453.5 Q219 471 205 481.5 Q191 492 168 492 Q137 492 116 469.5 Q95 447 85 420 L85 0 L65 0 L65 710 L83 710 L85 665 L85 444 Z M138 871 L189 740 L171 740 L127 853 L83 740 L65 740 L116 871 L138 871 Z " />
<glyph glyph-name="iacute" unicode="&#xed;" horiz-adv-x="150" d="M65 500 L82 500 L85 455 L85 0 L65 0 L65 500 Z M115 675 L58 544 L42 544 L91 675 L115 675 Z " />
<glyph glyph-name="icircumflex" unicode="&#xee;" horiz-adv-x="150" d="M65 500 L82 500 L85 455 L85 0 L65 0 L65 500 Z M86 675 L137 544 L119 544 L75 657 L31 544 L13 544 L64 675 L86 675 Z " />
<glyph glyph-name="idieresis" unicode="&#xef;" horiz-adv-x="150" d="M65 500 L82 500 L85 455 L85 0 L65 0 L65 500 Z M29 633 Q49 633 49 613 Q49 592 29 592 Q9 592 9 613 Q9 633 29 633 Z M121 633 Q141 633 141 613 Q141 592 121 592 Q101 592 101 613 Q101 633 121 633 Z " />
<glyph glyph-name="igrave" unicode="&#xec;" horiz-adv-x="150" d="M65 500 L82 500 L85 455 L85 0 L65 0 L65 500 Z M58 675 L107 544 L91 544 L34 675 L58 675 Z " />
<glyph glyph-name="ibreve" unicode="&#x12d;" horiz-adv-x="150" d="M65 500 L82 500 L85 455 L85 0 L65 0 L65 500 Z M143 654 L143 642 Q143 610 125 591.5 Q107 573 75 573 Q43 573 24.5 591.5 Q6 610 6 642 L6 654 L26 654 L26 642 Q26 618 39 604.5 Q52 591 75 591 Q98 591 111 604.5 Q124 618 124 642 L124 654 L143 654 Z " />
<glyph glyph-name="i.dot" unicode="&#xe166;" horiz-adv-x="150" d="M65 500 L82 500 L85 455 L85 0 L65 0 L65 500 Z M75 633 Q95 633 95 613 Q95 592 75 592 Q55 592 55 613 Q55 633 75 633 Z " />
<glyph glyph-name="imacron" unicode="&#x12b;" horiz-adv-x="150" d="M65 500 L82 500 L85 455 L85 0 L65 0 L65 500 Z M5 623 L145 623 L145 603 L5 603 L5 623 Z " />
<glyph glyph-name="iogonek" unicode="&#x12f;" horiz-adv-x="150" d="M85 0 Q42 -19 19.5 -53.5 Q-3 -88 -3 -128 Q-3 -172 31 -172 Q47 -172 56 -161 Q65 -150 65 -124 L65 -122 L85 -122 L85 -124 Q85 -158 71 -174 Q57 -190 31 -190 Q4 -190 -9.5 -174 Q-23 -158 -23 -129 Q-23 -87 0 -51.5 Q23 -16 65 5 L65 500 L82 500 L85 455 L85 0 Z M75 633 Q95 633 95 613 Q95 592 75 592 Q55 592 55 613 Q55 633 75 633 Z " />
<glyph glyph-name="itilde" unicode="&#x129;" horiz-adv-x="150" d="M65 500 L82 500 L85 455 L85 0 L65 0 L65 500 Z M-13 575 Q-13 599 -9.5 613.5 Q-6 628 0 636 Q6 644 14 646.5 Q22 649 30 649 Q45 649 57 640 Q69 631 79.5 620.5 Q90 610 99.5 601.5 Q109 593 120 593 Q131 593 137 603 Q143 613 143 649 L143 651 L163 651 L163 649 Q163 625 159.5 610.5 Q156 596 150 588 Q144 580 136 577.5 Q128 575 120 575 Q105 575 92.5 583.5 Q80 592 69 602.5 Q58 613 48.5 622 Q39 631 30 631 Q19 631 13 621 Q7 611 7 575 L7 573 L-13 573 L-13 575 Z " />
<glyph glyph-name="jcircumflex" unicode="&#x135;" horiz-adv-x="150" d="M82 500 L85 455 L85 -55 Q85 -93 82 -121.5 Q79 -150 69.5 -170 Q60 -190 42.5 -200 Q25 -210 -3 -210 L-3 -191 Q21 -191 35 -179.5 Q49 -168 55.5 -150 Q62 -132 63.5 -109 Q65 -86 65 -63 L65 500 L82 500 Z M86 675 L137 544 L119 544 L75 657 L31 544 L13 544 L64 675 L86 675 Z " />
<glyph glyph-name="ij" unicode="&#x133;" horiz-adv-x="300" d="M65 500 L82 500 L85 455 L85 0 L65 0 L65 500 Z M75 633 Q95 633 95 613 Q95 592 75 592 Q55 592 55 613 Q55 633 75 633 Z M232 500 L235 455 L235 -55 Q235 -93 232 -121.5 Q229 -150 219.5 -170 Q210 -190 192.5 -200 Q175 -210 147 -210 L147 -191 Q171 -191 185 -179.5 Q199 -168 205.5 -150 Q212 -132 213.5 -109 Q215 -86 215 -63 L215 500 L232 500 Z M225 633 Q245 633 245 613 Q245 592 225 592 Q205 592 205 613 Q205 633 225 633 Z " />
<glyph glyph-name="kcommaaccent" unicode="&#x137;" horiz-adv-x="297" d="M165 318 L282 0 L261 0 L151 297 L85 192 L85 0 L65 0 L65 710 L83 710 L85 666 L85 220 L254 500 L276 500 L165 318 Z M153 -148 L141 -148 L158 -40 L182 -40 L153 -148 Z " />
<glyph glyph-name="lacute" unicode="&#x13a;" horiz-adv-x="150" d="M85 665 L85 0 L67 0 L65 45 L65 710 L83 710 L85 665 Z M132 871 L75 740 L59 740 L108 871 L132 871 Z " />
<glyph glyph-name="lcaron" unicode="&#x13e;" horiz-adv-x="176" d="M85 665 L85 0 L67 0 L65 45 L65 710 L83 710 L85 665 Z M152 577 L140 577 L157 685 L181 685 L152 577 Z " />
<glyph glyph-name="lcommaaccent" unicode="&#x13c;" horiz-adv-x="150" d="M85 665 L85 0 L67 0 L65 45 L65 710 L83 710 L85 665 Z M59 -148 L47 -148 L64 -40 L88 -40 L59 -148 Z " />
<glyph glyph-name="ldot" unicode="&#x140;" horiz-adv-x="176" d="M85 665 L85 0 L67 0 L65 45 L65 710 L83 710 L85 665 Z M134 339 Q134 349 140 354.5 Q146 360 155 360 Q164 360 170 354.5 Q176 349 176 339 Q176 329 170 323.5 Q164 318 155 318 Q146 318 140 323.5 Q134 329 134 339 Z " />
<glyph glyph-name="ntilde" unicode="&#xf1;" horiz-adv-x="323" d="M85 444 Q96 473 119.5 491.5 Q143 510 173 510 Q219 510 240 471 Q261 432 261 358 L261 0 L244 0 L241 45 L241 366 Q241 391 238 413.5 Q235 436 227 453.5 Q219 471 205 481.5 Q191 492 168 492 Q137 492 116 469.5 Q95 447 85 420 L85 0 L65 0 L65 500 L83 500 L85 444 Z M74 575 Q74 599 77.5 613.5 Q81 628 87 636 Q93 644 101 646.5 Q109 649 117 649 Q132 649 144 640 Q156 631 166.5 620.5 Q177 610 186.5 601.5 Q196 593 207 593 Q218 593 224 603 Q230 613 230 649 L230 651 L250 651 L250 649 Q250 625 246.5 610.5 Q243 596 237 588 Q231 580 223 577.5 Q215 575 207 575 Q192 575 179.5 583.5 Q167 592 156 602.5 Q145 613 135.5 622 Q126 631 117 631 Q106 631 100 621 Q94 611 94 575 L94 573 L74 573 L74 575 Z " />
<glyph glyph-name="nacute" unicode="&#x144;" horiz-adv-x="323" d="M85 444 Q96 473 119.5 491.5 Q143 510 173 510 Q219 510 240 471 Q261 432 261 358 L261 0 L244 0 L241 45 L241 366 Q241 391 238 413.5 Q235 436 227 453.5 Q219 471 205 481.5 Q191 492 168 492 Q137 492 116 469.5 Q95 447 85 420 L85 0 L65 0 L65 500 L83 500 L85 444 Z M202 675 L145 544 L129 544 L178 675 L202 675 Z " />
<glyph glyph-name="ncaron" unicode="&#x148;" horiz-adv-x="323" d="M85 444 Q96 473 119.5 491.5 Q143 510 173 510 Q219 510 240 471 Q261 432 261 358 L261 0 L244 0 L241 45 L241 366 Q241 391 238 413.5 Q235 436 227 453.5 Q219 471 205 481.5 Q191 492 168 492 Q137 492 116 469.5 Q95 447 85 420 L85 0 L65 0 L65 500 L83 500 L85 444 Z M151 544 L100 675 L118 675 L162 562 L206 675 L224 675 L173 544 L151 544 Z " />
<glyph glyph-name="ncommaaccent" unicode="&#x146;" horiz-adv-x="323" d="M85 444 Q96 473 119.5 491.5 Q143 510 173 510 Q219 510 240 471 Q261 432 261 358 L261 0 L244 0 L241 45 L241 366 Q241 391 238 413.5 Q235 436 227 453.5 Q219 471 205 481.5 Q191 492 168 492 Q137 492 116 469.5 Q95 447 85 420 L85 0 L65 0 L65 500 L83 500 L85 444 Z M146 -148 L134 -148 L151 -40 L175 -40 L146 -148 Z " />
<glyph glyph-name="oacute" unicode="&#xf3;" horiz-adv-x="306" d="M251 142 Q251 68 229 29 Q207 -10 153 -10 Q99 -10 77 29 Q55 68 55 142 L55 358 Q55 432 77 471 Q99 510 153 510 Q207 510 229 471 Q251 432 251 358 L251 142 Z M231 366 Q231 388 228 410.5 Q225 433 216.5 451 Q208 469 192.5 480.5 Q177 492 153 492 Q128 492 113 480.5 Q98 469 89.5 450.5 Q81 432 78 409.5 Q75 387 75 366 L75 134 Q75 113 78 90.5 Q81 68 89.5 49.5 Q98 31 113 19.5 Q128 8 153 8 Q177 8 192.5 19.5 Q208 31 216.5 49 Q225 67 228 89.5 Q231 112 231 134 L231 366 Z M193 675 L136 544 L120 544 L169 675 L193 675 Z " />
<glyph glyph-name="ocircumflex" unicode="&#xf4;" horiz-adv-x="306" d="M251 142 Q251 68 229 29 Q207 -10 153 -10 Q99 -10 77 29 Q55 68 55 142 L55 358 Q55 432 77 471 Q99 510 153 510 Q207 510 229 471 Q251 432 251 358 L251 142 Z M231 366 Q231 388 228 410.5 Q225 433 216.5 451 Q208 469 192.5 480.5 Q177 492 153 492 Q128 492 113 480.5 Q98 469 89.5 450.5 Q81 432 78 409.5 Q75 387 75 366 L75 134 Q75 113 78 90.5 Q81 68 89.5 49.5 Q98 31 113 19.5 Q128 8 153 8 Q177 8 192.5 19.5 Q208 31 216.5 49 Q225 67 228 89.5 Q231 112 231 134 L231 366 Z M164 675 L215 544 L197 544 L153 657 L109 544 L91 544 L142 675 L164 675 Z " />
<glyph glyph-name="odieresis" unicode="&#xf6;" horiz-adv-x="306" d="M251 142 Q251 68 229 29 Q207 -10 153 -10 Q99 -10 77 29 Q55 68 55 142 L55 358 Q55 432 77 471 Q99 510 153 510 Q207 510 229 471 Q251 432 251 358 L251 142 Z M231 366 Q231 388 228 410.5 Q225 433 216.5 451 Q208 469 192.5 480.5 Q177 492 153 492 Q128 492 113 480.5 Q98 469 89.5 450.5 Q81 432 78 409.5 Q75 387 75 366 L75 134 Q75 113 78 90.5 Q81 68 89.5 49.5 Q98 31 113 19.5 Q128 8 153 8 Q177 8 192.5 19.5 Q208 31 216.5 49 Q225 67 228 89.5 Q231 112 231 134 L231 366 Z M107 633 Q127 633 127 613 Q127 592 107 592 Q87 592 87 613 Q87 633 107 633 Z M199 633 Q219 633 219 613 Q219 592 199 592 Q179 592 179 613 Q179 633 199 633 Z " />
<glyph glyph-name="ograve" unicode="&#xf2;" horiz-adv-x="306" d="M251 142 Q251 68 229 29 Q207 -10 153 -10 Q99 -10 77 29 Q55 68 55 142 L55 358 Q55 432 77 471 Q99 510 153 510 Q207 510 229 471 Q251 432 251 358 L251 142 Z M231 366 Q231 388 228 410.5 Q225 433 216.5 451 Q208 469 192.5 480.5 Q177 492 153 492 Q128 492 113 480.5 Q98 469 89.5 450.5 Q81 432 78 409.5 Q75 387 75 366 L75 134 Q75 113 78 90.5 Q81 68 89.5 49.5 Q98 31 113 19.5 Q128 8 153 8 Q177 8 192.5 19.5 Q208 31 216.5 49 Q225 67 228 89.5 Q231 112 231 134 L231 366 Z M136 675 L185 544 L169 544 L112 675 L136 675 Z " />
<glyph glyph-name="otilde" unicode="&#xf5;" horiz-adv-x="306" d="M251 142 Q251 68 229 29 Q207 -10 153 -10 Q99 -10 77 29 Q55 68 55 142 L55 358 Q55 432 77 471 Q99 510 153 510 Q207 510 229 471 Q251 432 251 358 L251 142 Z M231 366 Q231 388 228 410.5 Q225 433 216.5 451 Q208 469 192.5 480.5 Q177 492 153 492 Q128 492 113 480.5 Q98 469 89.5 450.5 Q81 432 78 409.5 Q75 387 75 366 L75 134 Q75 113 78 90.5 Q81 68 89.5 49.5 Q98 31 113 19.5 Q128 8 153 8 Q177 8 192.5 19.5 Q208 31 216.5 49 Q225 67 228 89.5 Q231 112 231 134 L231 366 Z M65 575 Q65 599 68.5 613.5 Q72 628 78 636 Q84 644 92 646.5 Q100 649 108 649 Q123 649 135 640 Q147 631 157.5 620.5 Q168 610 177.5 601.5 Q187 593 198 593 Q209 593 215 603 Q221 613 221 649 L221 651 L241 651 L241 649 Q241 625 237.5 610.5 Q234 596 228 588 Q222 580 214 577.5 Q206 575 198 575 Q183 575 170.5 583.5 Q158 592 147 602.5 Q136 613 126.5 622 Q117 631 108 631 Q97 631 91 621 Q85 611 85 575 L85 573 L65 573 L65 575 Z " />
<glyph glyph-name="obreve" unicode="&#x14f;" horiz-adv-x="306" d="M251 142 Q251 68 229 29 Q207 -10 153 -10 Q99 -10 77 29 Q55 68 55 142 L55 358 Q55 432 77 471 Q99 510 153 510 Q207 510 229 471 Q251 432 251 358 L251 142 Z M231 366 Q231 388 228 410.5 Q225 433 216.5 451 Q208 469 192.5 480.5 Q177 492 153 492 Q128 492 113 480.5 Q98 469 89.5 450.5 Q81 432 78 409.5 Q75 387 75 366 L75 134 Q75 113 78 90.5 Q81 68 89.5 49.5 Q98 31 113 19.5 Q128 8 153 8 Q177 8 192.5 19.5 Q208 31 216.5 49 Q225 67 228 89.5 Q231 112 231 134 L231 366 Z M221 654 L221 642 Q221 610 203 591.5 Q185 573 153 573 Q121 573 102.5 591.5 Q84 610 84 642 L84 654 L104 654 L104 642 Q104 618 117 604.5 Q130 591 153 591 Q176 591 189 604.5 Q202 618 202 642 L202 654 L221 654 Z " />
<glyph glyph-name="ohungarumlaut" unicode="&#x151;" horiz-adv-x="306" d="M251 142 Q251 68 229 29 Q207 -10 153 -10 Q99 -10 77 29 Q55 68 55 142 L55 358 Q55 432 77 471 Q99 510 153 510 Q207 510 229 471 Q251 432 251 358 L251 142 Z M231 366 Q231 388 228 410.5 Q225 433 216.5 451 Q208 469 192.5 480.5 Q177 492 153 492 Q128 492 113 480.5 Q98 469 89.5 450.5 Q81 432 78 409.5 Q75 387 75 366 L75 134 Q75 113 78 90.5 Q81 68 89.5 49.5 Q98 31 113 19.5 Q128 8 153 8 Q177 8 192.5 19.5 Q208 31 216.5 49 Q225 67 228 89.5 Q231 112 231 134 L231 366 Z M251 675 L194 544 L178 544 L227 675 L251 675 Z M169 675 L112 544 L96 544 L145 675 L169 675 Z " />
<glyph glyph-name="omacron" unicode="&#x14d;" horiz-adv-x="306" d="M251 142 Q251 68 229 29 Q207 -10 153 -10 Q99 -10 77 29 Q55 68 55 142 L55 358 Q55 432 77 471 Q99 510 153 510 Q207 510 229 471 Q251 432 251 358 L251 142 Z M231 366 Q231 388 228 410.5 Q225 433 216.5 451 Q208 469 192.5 480.5 Q177 492 153 492 Q128 492 113 480.5 Q98 469 89.5 450.5 Q81 432 78 409.5 Q75 387 75 366 L75 134 Q75 113 78 90.5 Q81 68 89.5 49.5 Q98 31 113 19.5 Q128 8 153 8 Q177 8 192.5 19.5 Q208 31 216.5 49 Q225 67 228 89.5 Q231 112 231 134 L231 366 Z M83 623 L223 623 L223 603 L83 603 L83 623 Z " />
<glyph glyph-name="racute" unicode="&#x155;" horiz-adv-x="216" d="M65 500 L84 500 L86 444 Q97 473 120 491.5 Q143 510 169 510 Q183 510 192 507 Q201 504 211 497 L198 478 Q184 489 165 489 Q138 489 117 468.5 Q96 448 85 420 L85 0 L65 0 L65 500 Z M178 675 L121 544 L105 544 L154 675 L178 675 Z " />
<glyph glyph-name="rcaron" unicode="&#x159;" horiz-adv-x="216" d="M65 500 L84 500 L86 444 Q97 473 120 491.5 Q143 510 169 510 Q183 510 192 507 Q201 504 211 497 L198 478 Q184 489 165 489 Q138 489 117 468.5 Q96 448 85 420 L85 0 L65 0 L65 500 Z M117 544 L66 675 L84 675 L128 562 L172 675 L190 675 L139 544 L117 544 Z " />
<glyph glyph-name="rcommaaccent" unicode="&#x157;" horiz-adv-x="216" d="M65 500 L84 500 L86 444 Q97 473 120 491.5 Q143 510 169 510 Q183 510 192 507 Q201 504 211 497 L198 478 Q184 489 165 489 Q138 489 117 468.5 Q96 448 85 420 L85 0 L65 0 L65 500 Z M62 -148 L50 -148 L67 -40 L91 -40 L62 -148 Z " />
<glyph glyph-name="scaron" unicode="&#x161;" horiz-adv-x="268" d="M60 142 L60 134 Q60 112 62.5 89.5 Q65 67 73 49 Q81 31 95.5 19.5 Q110 8 134 8 Q169 8 189 39.5 Q209 71 209 115 Q209 162 191.5 197 Q174 232 129 263 Q89 290 64.5 321 Q40 352 40 404 Q40 425 45.5 444 Q51 463 62 477.5 Q73 492 90.5 501 Q108 510 132 510 Q182 510 205 473.5 Q228 437 228 367 L228 358 L208 358 L208 366 Q208 388 205 410.5 Q202 433 193.5 451 Q185 469 170.5 480.5 Q156 492 133 492 Q112 492 98 484 Q84 476 75.5 464 Q67 452 63.5 437 Q60 422 60 408 Q60 369 76 340 Q92 311 136 282 Q184 250 206 212 Q228 174 228 119 Q228 96 223 73 Q218 50 207 31.5 Q196 13 178 1.5 Q160 -10 135 -10 Q84 -10 62 27 Q40 64 40 134 L40 142 L60 142 Z M123 544 L72 675 L90 675 L134 562 L178 675 L196 675 L145 544 L123 544 Z " />
<glyph glyph-name="sacute" unicode="&#x15b;" horiz-adv-x="268" d="M60 142 L60 134 Q60 112 62.5 89.5 Q65 67 73 49 Q81 31 95.5 19.5 Q110 8 134 8 Q169 8 189 39.5 Q209 71 209 115 Q209 162 191.5 197 Q174 232 129 263 Q89 290 64.5 321 Q40 352 40 404 Q40 425 45.5 444 Q51 463 62 477.5 Q73 492 90.5 501 Q108 510 132 510 Q182 510 205 473.5 Q228 437 228 367 L228 358 L208 358 L208 366 Q208 388 205 410.5 Q202 433 193.5 451 Q185 469 170.5 480.5 Q156 492 133 492 Q112 492 98 484 Q84 476 75.5 464 Q67 452 63.5 437 Q60 422 60 408 Q60 369 76 340 Q92 311 136 282 Q184 250 206 212 Q228 174 228 119 Q228 96 223 73 Q218 50 207 31.5 Q196 13 178 1.5 Q160 -10 135 -10 Q84 -10 62 27 Q40 64 40 134 L40 142 L60 142 Z M174 675 L117 544 L101 544 L150 675 L174 675 Z " />
<glyph glyph-name="scedilla" unicode="&#x15f;" horiz-adv-x="268" d="M122 -9 Q78 -4 59 32 Q40 68 40 134 L40 142 L60 142 L60 134 Q60 112 62.5 89.5 Q65 67 73 49 Q81 31 95.5 19.5 Q110 8 134 8 Q169 8 189 39.5 Q209 71 209 115 Q209 162 191.5 197 Q174 232 129 263 Q89 290 64.5 321 Q40 352 40 404 Q40 425 45.5 444 Q51 463 62 477.5 Q73 492 90.5 501 Q108 510 132 510 Q182 510 205 473.5 Q228 437 228 367 L228 358 L208 358 L208 366 Q208 388 205 410.5 Q202 433 193.5 451 Q185 469 170.5 480.5 Q156 492 133 492 Q112 492 98 484 Q84 476 75.5 464 Q67 452 63.5 437 Q60 422 60 408 Q60 369 76 340 Q92 311 136 282 Q184 250 206 212 Q228 174 228 119 Q228 96 223.5 74 Q219 52 208.5 34 Q198 16 182 4 Q166 -8 142 -10 L142 -55 L150 -55 Q179 -55 194 -71 Q209 -87 209 -122 Q209 -157 193.5 -173.5 Q178 -190 150 -190 Q122 -190 106 -175 Q90 -160 90 -124 L90 -122 L110 -122 L110 -124 Q110 -150 121 -161 Q132 -172 150 -172 Q168 -172 179 -160 Q190 -148 190 -122 Q190 -73 150 -73 L122 -73 L122 -9 Z " />
<glyph glyph-name="scircumflex" unicode="&#x15d;" horiz-adv-x="268" d="M60 142 L60 134 Q60 112 62.5 89.5 Q65 67 73 49 Q81 31 95.5 19.5 Q110 8 134 8 Q169 8 189 39.5 Q209 71 209 115 Q209 162 191.5 197 Q174 232 129 263 Q89 290 64.5 321 Q40 352 40 404 Q40 425 45.5 444 Q51 463 62 477.5 Q73 492 90.5 501 Q108 510 132 510 Q182 510 205 473.5 Q228 437 228 367 L228 358 L208 358 L208 366 Q208 388 205 410.5 Q202 433 193.5 451 Q185 469 170.5 480.5 Q156 492 133 492 Q112 492 98 484 Q84 476 75.5 464 Q67 452 63.5 437 Q60 422 60 408 Q60 369 76 340 Q92 311 136 282 Q184 250 206 212 Q228 174 228 119 Q228 96 223 73 Q218 50 207 31.5 Q196 13 178 1.5 Q160 -10 135 -10 Q84 -10 62 27 Q40 64 40 134 L40 142 L60 142 Z M145 675 L196 544 L178 544 L134 657 L90 544 L72 544 L123 675 L145 675 Z " />
<glyph glyph-name="uni0219" unicode="&#x219;" horiz-adv-x="268" d="M60 142 L60 134 Q60 112 62.5 89.5 Q65 67 73 49 Q81 31 95.5 19.5 Q110 8 134 8 Q169 8 189 39.5 Q209 71 209 115 Q209 162 191.5 197 Q174 232 129 263 Q89 290 64.5 321 Q40 352 40 404 Q40 425 45.5 444 Q51 463 62 477.5 Q73 492 90.5 501 Q108 510 132 510 Q182 510 205 473.5 Q228 437 228 367 L228 358 L208 358 L208 366 Q208 388 205 410.5 Q202 433 193.5 451 Q185 469 170.5 480.5 Q156 492 133 492 Q112 492 98 484 Q84 476 75.5 464 Q67 452 63.5 437 Q60 422 60 408 Q60 369 76 340 Q92 311 136 282 Q184 250 206 212 Q228 174 228 119 Q228 96 223 73 Q218 50 207 31.5 Q196 13 178 1.5 Q160 -10 135 -10 Q84 -10 62 27 Q40 64 40 134 L40 142 L60 142 Z M118 -148 L106 -148 L123 -40 L147 -40 L118 -148 Z " />
<glyph glyph-name="tbar" unicode="&#x167;" horiz-adv-x="219" d="M204 -1 Q195 -5 184.5 -7.5 Q174 -10 163 -10 Q110 -10 87.5 28 Q65 66 65 142 L65 600 L83 600 L85 555 L85 500 L192 500 L192 482 L85 482 L85 342 L192 342 L192 324 L85 324 L85 134 Q85 113 88 91 Q91 69 99.5 50.5 Q108 32 123.5 20 Q139 8 163 8 Q172 8 181.5 10.5 Q191 13 197 15 L204 -1 Z " />
<glyph glyph-name="tcaron" unicode="&#x165;" horiz-adv-x="219" d="M204 -1 Q195 -5 184.5 -7.5 Q174 -10 163 -10 Q110 -10 87.5 28 Q65 66 65 142 L65 600 L83 600 L85 555 L85 500 L192 500 L192 482 L85 482 L85 134 Q85 113 88 91 Q91 69 99.5 50.5 Q108 32 123.5 20 Q139 8 163 8 Q172 8 181.5 10.5 Q191 13 197 15 L204 -1 Z M155 577 L143 577 L160 685 L184 685 L155 577 Z " />
<glyph glyph-name="uni0163" unicode="&#x163;" horiz-adv-x="219" d="M204 -1 Q195 -5 184.5 -7.5 Q174 -10 163 -10 Q110 -10 87.5 28 Q65 66 65 142 L65 600 L83 600 L85 555 L85 500 L192 500 L192 482 L85 482 L85 134 Q85 113 88 91 Q91 69 99.5 50.5 Q108 32 123.5 20 Q139 8 163 8 Q172 8 181.5 10.5 Q191 13 197 15 L204 -1 Z M114 -148 L102 -148 L119 -40 L143 -40 L114 -148 Z " />
<glyph glyph-name="uni021B" unicode="&#x21b;" horiz-adv-x="219" d="M204 -1 Q195 -5 184.5 -7.5 Q174 -10 163 -10 Q110 -10 87.5 28 Q65 66 65 142 L65 600 L83 600 L85 555 L85 500 L192 500 L192 482 L85 482 L85 134 Q85 113 88 91 Q91 69 99.5 50.5 Q108 32 123.5 20 Q139 8 163 8 Q172 8 181.5 10.5 Q191 13 197 15 L204 -1 Z M114 -148 L102 -148 L119 -40 L143 -40 L114 -148 Z " />
<glyph glyph-name="uacute" unicode="&#xfa;" horiz-adv-x="322" d="M62 500 L82 500 L82 134 Q82 109 85 86.5 Q88 64 96.5 46.5 Q105 29 120 18.5 Q135 8 158 8 Q186 8 206.5 29.5 Q227 51 238 79 L238 500 L258 500 L258 60 Q258 37 264 22.5 Q270 8 289 8 L289 -10 Q260 -10 249 9.5 Q238 29 238 55 Q225 25 204 7.5 Q183 -10 151 -10 Q105 -10 83.5 29 Q62 68 62 142 L62 500 Z M201 675 L144 544 L128 544 L177 675 L201 675 Z " />
<glyph glyph-name="ucircumflex" unicode="&#xfb;" horiz-adv-x="322" d="M62 500 L82 500 L82 134 Q82 109 85 86.5 Q88 64 96.5 46.5 Q105 29 120 18.5 Q135 8 158 8 Q186 8 206.5 29.5 Q227 51 238 79 L238 500 L258 500 L258 60 Q258 37 264 22.5 Q270 8 289 8 L289 -10 Q260 -10 249 9.5 Q238 29 238 55 Q225 25 204 7.5 Q183 -10 151 -10 Q105 -10 83.5 29 Q62 68 62 142 L62 500 Z M172 675 L223 544 L205 544 L161 657 L117 544 L99 544 L150 675 L172 675 Z " />
<glyph glyph-name="udieresis" unicode="&#xfc;" horiz-adv-x="322" d="M62 500 L82 500 L82 134 Q82 109 85 86.5 Q88 64 96.5 46.5 Q105 29 120 18.5 Q135 8 158 8 Q186 8 206.5 29.5 Q227 51 238 79 L238 500 L258 500 L258 60 Q258 37 264 22.5 Q270 8 289 8 L289 -10 Q260 -10 249 9.5 Q238 29 238 55 Q225 25 204 7.5 Q183 -10 151 -10 Q105 -10 83.5 29 Q62 68 62 142 L62 500 Z M115 633 Q135 633 135 613 Q135 592 115 592 Q95 592 95 613 Q95 633 115 633 Z M207 633 Q227 633 227 613 Q227 592 207 592 Q187 592 187 613 Q187 633 207 633 Z " />
<glyph glyph-name="ugrave" unicode="&#xf9;" horiz-adv-x="322" d="M62 500 L82 500 L82 134 Q82 109 85 86.5 Q88 64 96.5 46.5 Q105 29 120 18.5 Q135 8 158 8 Q186 8 206.5 29.5 Q227 51 238 79 L238 500 L258 500 L258 60 Q258 37 264 22.5 Q270 8 289 8 L289 -10 Q260 -10 249 9.5 Q238 29 238 55 Q225 25 204 7.5 Q183 -10 151 -10 Q105 -10 83.5 29 Q62 68 62 142 L62 500 Z M144 675 L193 544 L177 544 L120 675 L144 675 Z " />
<glyph glyph-name="ubreve" unicode="&#x16d;" horiz-adv-x="322" d="M62 500 L82 500 L82 134 Q82 109 85 86.5 Q88 64 96.5 46.5 Q105 29 120 18.5 Q135 8 158 8 Q186 8 206.5 29.5 Q227 51 238 79 L238 500 L258 500 L258 60 Q258 37 264 22.5 Q270 8 289 8 L289 -10 Q260 -10 249 9.5 Q238 29 238 55 Q225 25 204 7.5 Q183 -10 151 -10 Q105 -10 83.5 29 Q62 68 62 142 L62 500 Z M229 654 L229 642 Q229 610 211 591.5 Q193 573 161 573 Q129 573 110.5 591.5 Q92 610 92 642 L92 654 L112 654 L112 642 Q112 618 125 604.5 Q138 591 161 591 Q184 591 197 604.5 Q210 618 210 642 L210 654 L229 654 Z " />
<glyph glyph-name="uhungarumlaut" unicode="&#x171;" horiz-adv-x="322" d="M62 500 L82 500 L82 134 Q82 109 85 86.5 Q88 64 96.5 46.5 Q105 29 120 18.5 Q135 8 158 8 Q186 8 206.5 29.5 Q227 51 238 79 L238 500 L258 500 L258 60 Q258 37 264 22.5 Q270 8 289 8 L289 -10 Q260 -10 249 9.5 Q238 29 238 55 Q225 25 204 7.5 Q183 -10 151 -10 Q105 -10 83.5 29 Q62 68 62 142 L62 500 Z M259 675 L202 544 L186 544 L235 675 L259 675 Z M177 675 L120 544 L104 544 L153 675 L177 675 Z " />
<glyph glyph-name="umacron" unicode="&#x16b;" horiz-adv-x="322" d="M62 500 L82 500 L82 134 Q82 109 85 86.5 Q88 64 96.5 46.5 Q105 29 120 18.5 Q135 8 158 8 Q186 8 206.5 29.5 Q227 51 238 79 L238 500 L258 500 L258 60 Q258 37 264 22.5 Q270 8 289 8 L289 -10 Q260 -10 249 9.5 Q238 29 238 55 Q225 25 204 7.5 Q183 -10 151 -10 Q105 -10 83.5 29 Q62 68 62 142 L62 500 Z M91 623 L231 623 L231 603 L91 603 L91 623 Z " />
<glyph glyph-name="uogonek" unicode="&#x173;" horiz-adv-x="322" d="M62 500 L82 500 L82 134 Q82 109 85 86.5 Q88 64 96.5 46.5 Q105 29 120 18.5 Q135 8 158 8 Q186 8 206.5 29.5 Q227 51 238 79 L238 500 L258 500 L258 60 Q258 37 264 22.5 Q270 8 289 8 L289 -10 Q282 -10 277 -9 Q272 -8 267 -6 Q229 -26 210 -58.5 Q191 -91 191 -128 Q191 -172 225 -172 Q241 -172 250 -161 Q259 -150 259 -124 L259 -122 L279 -122 L279 -124 Q279 -158 265 -174 Q251 -190 225 -190 Q198 -190 184.5 -174 Q171 -158 171 -129 Q171 -88 193 -53.5 Q215 -19 254 2 Q245 11 241.5 24.5 Q238 38 238 55 Q225 25 204 7.5 Q183 -10 151 -10 Q105 -10 83.5 29 Q62 68 62 142 L62 500 Z " />
<glyph glyph-name="uring" unicode="&#x16f;" horiz-adv-x="322" d="M62 500 L82 500 L82 134 Q82 109 85 86.5 Q88 64 96.5 46.5 Q105 29 120 18.5 Q135 8 158 8 Q186 8 206.5 29.5 Q227 51 238 79 L238 500 L258 500 L258 60 Q258 37 264 22.5 Q270 8 289 8 L289 -10 Q260 -10 249 9.5 Q238 29 238 55 Q225 25 204 7.5 Q183 -10 151 -10 Q105 -10 83.5 29 Q62 68 62 142 L62 500 Z M113 613 Q113 593 127 578.5 Q141 564 161 564 Q181 564 195 578.5 Q209 593 209 613 Q209 633 195 647.5 Q181 662 161 662 Q141 662 127 647.5 Q113 633 113 613 Z M93 613 Q93 642 112.5 661.5 Q132 681 161 681 Q190 681 209 661.5 Q228 642 228 613 Q228 584 209 564 Q190 544 161 544 Q132 544 112.5 564 Q93 584 93 613 Z " />
<glyph glyph-name="utilde" unicode="&#x169;" horiz-adv-x="322" d="M62 500 L82 500 L82 134 Q82 109 85 86.5 Q88 64 96.5 46.5 Q105 29 120 18.5 Q135 8 158 8 Q186 8 206.5 29.5 Q227 51 238 79 L238 500 L258 500 L258 60 Q258 37 264 22.5 Q270 8 289 8 L289 -10 Q260 -10 249 9.5 Q238 29 238 55 Q225 25 204 7.5 Q183 -10 151 -10 Q105 -10 83.5 29 Q62 68 62 142 L62 500 Z M73 575 Q73 599 76.5 613.5 Q80 628 86 636 Q92 644 100 646.5 Q108 649 116 649 Q131 649 143 640 Q155 631 165.5 620.5 Q176 610 185.5 601.5 Q195 593 206 593 Q217 593 223 603 Q229 613 229 649 L229 651 L249 651 L249 649 Q249 625 245.5 610.5 Q242 596 236 588 Q230 580 222 577.5 Q214 575 206 575 Q191 575 178.5 583.5 Q166 592 155 602.5 Q144 613 134.5 622 Q125 631 116 631 Q105 631 99 621 Q93 611 93 575 L93 573 L73 573 L73 575 Z " />
<glyph glyph-name="wacute" unicode="&#x1e83;" horiz-adv-x="450" d="M213 500 L237 500 L322 15 L324 15 L400 500 L420 500 L337 0 L309 0 L226 482 L224 482 L141 0 L113 0 L30 500 L50 500 L126 15 L128 15 L213 500 Z M265 675 L208 544 L192 544 L241 675 L265 675 Z " />
<glyph glyph-name="wcircumflex" unicode="&#x175;" horiz-adv-x="450" d="M213 500 L237 500 L322 15 L324 15 L400 500 L420 500 L337 0 L309 0 L226 482 L224 482 L141 0 L113 0 L30 500 L50 500 L126 15 L128 15 L213 500 Z M236 675 L287 544 L269 544 L225 657 L181 544 L163 544 L214 675 L236 675 Z " />
<glyph glyph-name="wdieresis" unicode="&#x1e85;" horiz-adv-x="450" d="M213 500 L237 500 L322 15 L324 15 L400 500 L420 500 L337 0 L309 0 L226 482 L224 482 L141 0 L113 0 L30 500 L50 500 L126 15 L128 15 L213 500 Z M179 633 Q199 633 199 613 Q199 592 179 592 Q159 592 159 613 Q159 633 179 633 Z M271 633 Q291 633 291 613 Q291 592 271 592 Q251 592 251 613 Q251 633 271 633 Z " />
<glyph glyph-name="wgrave" unicode="&#x1e81;" horiz-adv-x="450" d="M213 500 L237 500 L322 15 L324 15 L400 500 L420 500 L337 0 L309 0 L226 482 L224 482 L141 0 L113 0 L30 500 L50 500 L126 15 L128 15 L213 500 Z M208 675 L257 544 L241 544 L184 675 L208 675 Z " />
<glyph glyph-name="yacute" unicode="&#xfd;" horiz-adv-x="266" d="M37 500 L57 500 L135 22 L137 22 L221 500 L241 500 L134 -66 Q120 -137 95 -173 Q70 -209 25 -209 L25 -191 Q54 -191 81 -162.5 Q108 -134 119 -66 L127 -18 L37 500 Z M198 675 L141 544 L125 544 L174 675 L198 675 Z " />
<glyph glyph-name="ydieresis" unicode="&#xff;" horiz-adv-x="266" d="M37 500 L57 500 L135 22 L137 22 L221 500 L241 500 L134 -66 Q120 -137 95 -173 Q70 -209 25 -209 L25 -191 Q54 -191 81 -162.5 Q108 -134 119 -66 L127 -18 L37 500 Z M87 633 Q107 633 107 613 Q107 592 87 592 Q67 592 67 613 Q67 633 87 633 Z M179 633 Q199 633 199 613 Q199 592 179 592 Q159 592 159 613 Q159 633 179 633 Z " />
<glyph glyph-name="ycircumflex" unicode="&#x177;" horiz-adv-x="266" d="M37 500 L57 500 L135 22 L137 22 L221 500 L241 500 L134 -66 Q120 -137 95 -173 Q70 -209 25 -209 L25 -191 Q54 -191 81 -162.5 Q108 -134 119 -66 L127 -18 L37 500 Z M144 675 L195 544 L177 544 L133 657 L89 544 L71 544 L122 675 L144 675 Z " />
<glyph glyph-name="ygrave" unicode="&#x1ef3;" horiz-adv-x="266" d="M37 500 L57 500 L135 22 L137 22 L221 500 L241 500 L134 -66 Q120 -137 95 -173 Q70 -209 25 -209 L25 -191 Q54 -191 81 -162.5 Q108 -134 119 -66 L127 -18 L37 500 Z M116 675 L165 544 L149 544 L92 675 L116 675 Z " />
<glyph glyph-name="zcaron" unicode="&#x17e;" horiz-adv-x="223" d="M30 482 L30 500 L198 500 L198 474 L42 18 L192 18 L192 0 L25 0 L25 22 L182 482 L30 482 Z M101 544 L50 675 L68 675 L112 562 L156 675 L174 675 L123 544 L101 544 Z " />
<glyph glyph-name="zacute" unicode="&#x17a;" horiz-adv-x="223" d="M30 482 L30 500 L198 500 L198 474 L42 18 L192 18 L192 0 L25 0 L25 22 L182 482 L30 482 Z M152 675 L95 544 L79 544 L128 675 L152 675 Z " />
<glyph glyph-name="zdotaccent" unicode="&#x17c;" horiz-adv-x="223" d="M30 482 L30 500 L198 500 L198 474 L42 18 L192 18 L192 0 L25 0 L25 22 L182 482 L30 482 Z M112 635 Q134 635 134 613 Q134 590 112 590 Q90 590 90 613 Q90 635 112 635 Z " />
<glyph glyph-name="acute" unicode="&#xb4;" horiz-adv-x="350" d="M215 675 L158 544 L142 544 L191 675 L215 675 Z " />
<glyph glyph-name="grave" unicode="&#x60;" horiz-adv-x="350" d="M158 675 L207 544 L191 544 L134 675 L158 675 Z " />
<glyph glyph-name="circumflex" unicode="&#x2c6;" horiz-adv-x="350" d="M186 675 L237 544 L219 544 L175 657 L131 544 L113 544 L164 675 L186 675 Z " />
<glyph glyph-name="caron" unicode="&#x2c7;" horiz-adv-x="350" d="M164 544 L113 675 L131 675 L175 562 L219 675 L237 675 L186 544 L164 544 Z " />
<glyph glyph-name="tilde" unicode="&#x2dc;" horiz-adv-x="350" d="M87 575 Q87 599 90.5 613.5 Q94 628 100 636 Q106 644 114 646.5 Q122 649 130 649 Q145 649 157 640 Q169 631 179.5 620.5 Q190 610 199.5 601.5 Q209 593 220 593 Q231 593 237 603 Q243 613 243 649 L243 651 L263 651 L263 649 Q263 625 259.5 610.5 Q256 596 250 588 Q244 580 236 577.5 Q228 575 220 575 Q205 575 192.5 583.5 Q180 592 169 602.5 Q158 613 148.5 622 Q139 631 130 631 Q119 631 113 621 Q107 611 107 575 L107 573 L87 573 L87 575 Z " />
<glyph glyph-name="dieresis" unicode="&#xa8;" horiz-adv-x="350" d="M129 633 Q149 633 149 613 Q149 592 129 592 Q109 592 109 613 Q109 633 129 633 Z M221 633 Q241 633 241 613 Q241 592 221 592 Q201 592 201 613 Q201 633 221 633 Z " />
<glyph glyph-name="ring" unicode="&#x2da;" horiz-adv-x="350" d="M127 613 Q127 593 141 578.5 Q155 564 175 564 Q195 564 209 578.5 Q223 593 223 613 Q223 633 209 647.5 Q195 662 175 662 Q155 662 141 647.5 Q127 633 127 613 Z M107 613 Q107 642 126.5 661.5 Q146 681 175 681 Q204 681 223 661.5 Q242 642 242 613 Q242 584 223 564 Q204 544 175 544 Q146 544 126.5 564 Q107 584 107 613 Z " />
<glyph glyph-name="cedilla" unicode="&#xb8;" horiz-adv-x="350" d="M163 0 L183 0 L183 -55 L191 -55 Q220 -55 235 -71 Q250 -87 250 -122 Q250 -157 234.5 -173.5 Q219 -190 191 -190 Q163 -190 147 -175 Q131 -160 131 -124 L131 -122 L151 -122 L151 -124 Q151 -150 162 -161 Q173 -172 191 -172 Q209 -172 220 -160 Q231 -148 231 -122 Q231 -73 191 -73 L163 -73 L163 0 Z " />
<glyph glyph-name="hungarumlaut" unicode="&#x2dd;" horiz-adv-x="350" d="M283 675 L226 544 L210 544 L259 675 L283 675 Z M201 675 L144 544 L128 544 L177 675 L201 675 Z " />
<glyph glyph-name="breve" unicode="&#x2d8;" horiz-adv-x="350" d="M243 654 L243 642 Q243 610 225 591.5 Q207 573 175 573 Q143 573 124.5 591.5 Q106 610 106 642 L106 654 L126 654 L126 642 Q126 618 139 604.5 Q152 591 175 591 Q198 591 211 604.5 Q224 618 224 642 L224 654 L243 654 Z " />
<glyph glyph-name="macron" unicode="&#xaf;" horiz-adv-x="350" d="M105 623 L245 623 L245 603 L105 603 L105 623 Z " />
<glyph glyph-name="dotaccent" unicode="&#x2d9;" horiz-adv-x="350" d="M175 635 Q197 635 197 613 Q197 590 175 590 Q153 590 153 613 Q153 635 175 635 Z " />
<glyph glyph-name="periodcentered" unicode="&#xb7;" horiz-adv-x="350" d="M154 339 Q154 349 160 354.5 Q166 360 175 360 Q184 360 190 354.5 Q196 349 196 339 Q196 329 190 323.5 Q184 318 175 318 Q166 318 160 323.5 Q154 329 154 339 Z " />
<glyph glyph-name="ogonek" unicode="&#x2db;" horiz-adv-x="350" d="M283 0 Q240 -19 217.5 -53.5 Q195 -88 195 -128 Q195 -172 229 -172 Q245 -172 254 -161 Q263 -150 263 -124 L263 -122 L283 -122 L283 -124 Q283 -158 269 -174 Q255 -190 229 -190 Q202 -190 188.5 -174 Q175 -158 175 -129 Q175 -84 202 -46.5 Q229 -9 276 11 L283 0 Z " />
<glyph glyph-name="commaaccent" unicode="&#xf6c3;" horiz-adv-x="350" d="M159 -148 L147 -148 L164 -40 L188 -40 L159 -148 Z " />
<glyph glyph-name="period" unicode="&#x2e;" horiz-adv-x="152" d="M55 16 Q55 26 61 31.5 Q67 37 76 37 Q85 37 91 31.5 Q97 26 97 16 Q97 6 91 0.5 Q85 -5 76 -5 Q67 -5 61 0.5 Q55 6 55 16 Z " />
<glyph glyph-name="comma" unicode="&#x2c;" horiz-adv-x="152" d="M61 -114 L49 -114 L74 25 L98 25 L61 -114 Z " />
<glyph glyph-name="colon" unicode="&#x3a;" horiz-adv-x="152" d="M55 16 Q55 26 61 31.5 Q67 37 76 37 Q85 37 91 31.5 Q97 26 97 16 Q97 6 91 0.5 Q85 -5 76 -5 Q67 -5 61 0.5 Q55 6 55 16 Z M55 433 Q55 443 61 448.5 Q67 454 76 454 Q85 454 91 448.5 Q97 443 97 433 Q97 423 91 417.5 Q85 412 76 412 Q67 412 61 417.5 Q55 423 55 433 Z " />
<glyph glyph-name="semicolon" unicode="&#x3b;" horiz-adv-x="154" d="M58 433 Q58 443 64 448.5 Q70 454 79 454 Q88 454 94 448.5 Q100 443 100 433 Q100 423 94 417.5 Q88 412 79 412 Q70 412 64 417.5 Q58 423 58 433 Z M61 -114 L49 -114 L74 25 L98 25 L61 -114 Z " />
<glyph glyph-name="ellipsis" unicode="&#x2026;" horiz-adv-x="494" d="M55 16 Q55 26 61 31.5 Q67 37 76 37 Q85 37 91 31.5 Q97 26 97 16 Q97 6 91 0.5 Q85 -5 76 -5 Q67 -5 61 0.5 Q55 6 55 16 Z M226 16 Q226 26 232 31.5 Q238 37 247 37 Q256 37 262 31.5 Q268 26 268 16 Q268 6 262 0.5 Q256 -5 247 -5 Q238 -5 232 0.5 Q226 6 226 16 Z M397 16 Q397 26 403 31.5 Q409 37 418 37 Q427 37 433 31.5 Q439 26 439 16 Q439 6 433 0.5 Q427 -5 418 -5 Q409 -5 403 0.5 Q397 6 397 16 Z " />
<glyph glyph-name="question" unicode="&#x3f;" horiz-adv-x="316" d="M55 500 L55 532 Q55 602 83 638.5 Q111 675 162 675 Q187 675 206 665 Q225 655 237 638.5 Q249 622 255 600 Q261 578 261 554 L261 521 Q261 493 257.5 473 Q254 453 245.5 436 Q237 419 222 403 Q207 387 185 366 Q168 351 159 334 Q150 317 145.5 297 Q141 277 140.5 252.5 Q140 228 140 198 L140 131 L120 131 L120 204 Q120 240 122 266.5 Q124 293 131 314.5 Q138 336 151 354.5 Q164 373 187 392 Q206 408 217 424.5 Q228 441 233 457 Q238 473 239.5 489 Q241 505 241 522 L241 552 Q241 572 236 590.5 Q231 609 221 623.5 Q211 638 196 646.5 Q181 655 162 655 Q123 655 99 626 Q75 597 75 534 L75 500 L55 500 Z M109 16 Q109 26 115 31.5 Q121 37 130 37 Q139 37 145 31.5 Q151 26 151 16 Q151 6 145 0.5 Q139 -5 130 -5 Q121 -5 115 0.5 Q109 6 109 16 Z " />
<glyph glyph-name="exclam" unicode="&#x21;" horiz-adv-x="232" d="M126 665 L126 131 L111 131 L106 181 L106 665 L126 665 Z M95 16 Q95 26 101 31.5 Q107 37 116 37 Q125 37 131 31.5 Q137 26 137 16 Q137 6 131 0.5 Q125 -5 116 -5 Q107 -5 101 0.5 Q95 6 95 16 Z " />
<glyph glyph-name="questiondown" unicode="&#xbf;" horiz-adv-x="311" d="M261 5 L261 -27 Q261 -97 233 -133.5 Q205 -170 154 -170 Q128 -170 109.5 -160 Q91 -150 79 -133.5 Q67 -117 61 -95 Q55 -73 55 -49 L55 -16 Q55 12 58.5 32 Q62 52 70.5 69 Q79 86 93.5 102 Q108 118 131 139 Q148 154 157 171 Q166 188 170.5 208 Q175 228 175.5 252.5 Q176 277 176 307 L176 374 L196 374 L196 301 Q196 265 194 238.5 Q192 212 185 190.5 Q178 169 164.5 150.5 Q151 132 129 113 Q110 96 99 80 Q88 64 83 48 Q78 32 76.5 16 Q75 0 75 -17 L75 -47 Q75 -67 80 -86 Q85 -105 95 -119 Q105 -133 119.5 -141.5 Q134 -150 154 -150 Q193 -150 217 -121 Q241 -92 241 -29 L241 5 L261 5 Z M207 489 Q207 479 201 473.5 Q195 468 186 468 Q177 468 171 473.5 Q165 479 165 489 Q165 499 171 504.5 Q177 510 186 510 Q195 510 201 504.5 Q207 499 207 489 Z " />
<glyph glyph-name="exclamdown" unicode="&#xa1;" horiz-adv-x="232" d="M106 -160 L106 374 L121 374 L126 324 L126 -160 L106 -160 Z M137 489 Q137 479 131 473.5 Q125 468 116 468 Q107 468 101 473.5 Q95 479 95 489 Q95 499 101 504.5 Q107 510 116 510 Q125 510 131 504.5 Q137 499 137 489 Z " />
<glyph glyph-name="parenleft" unicode="&#x28;" horiz-adv-x="230" d="M85 620 Q85 695 108 735 Q131 775 188 775 L210 775 L210 755 L188 755 Q105 755 105 623 L105 57 Q105 -75 188 -75 L210 -75 L210 -95 L188 -95 Q131 -95 108 -55 Q85 -15 85 60 L85 620 Z " />
<glyph glyph-name="parenright" unicode="&#x29;" horiz-adv-x="230" d="M145 60 Q145 -15 122 -55 Q99 -95 42 -95 L20 -95 L20 -75 L42 -75 Q125 -75 125 57 L125 623 Q125 755 42 755 L20 755 L20 775 L42 775 Q99 775 122 735 Q145 695 145 620 L145 60 Z " />
<glyph glyph-name="braceleft" unicode="&#x7b;" horiz-adv-x="249" d="M104 285 Q104 315 95.5 325 Q87 335 57 335 L40 335 L40 355 L57 355 Q87 355 95.5 365 Q104 375 104 405 L104 620 Q104 695 127 735 Q150 775 207 775 L229 775 L229 755 L207 755 Q124 755 124 623 L124 395 Q124 377 114 361.5 Q104 346 84 346 L79 346 L79 344 L84 344 Q104 344 114 328 Q124 312 124 295 L124 57 Q124 -75 207 -75 L229 -75 L229 -95 L207 -95 Q150 -95 127 -55 Q104 -15 104 60 L104 285 Z " />
<glyph glyph-name="braceright" unicode="&#x7d;" horiz-adv-x="249" d="M145 405 Q145 375 153.5 365 Q162 355 192 355 L209 355 L209 335 L192 335 Q162 335 153.5 325 Q145 315 145 285 L145 60 Q145 -15 122 -55 Q99 -95 42 -95 L20 -95 L20 -75 L42 -75 Q125 -75 125 57 L125 295 Q125 313 135 328.5 Q145 344 165 344 L170 344 L170 346 L165 346 Q145 346 135 362 Q125 378 125 395 L125 623 Q125 755 42 755 L20 755 L20 775 L42 775 Q99 775 122 735 Q145 695 145 620 L145 405 Z " />
<glyph glyph-name="bracketleft" unicode="&#x5b;" horiz-adv-x="225" d="M85 775 L190 775 L190 755 L105 755 L105 -75 L190 -75 L190 -95 L85 -95 L85 775 Z " />
<glyph glyph-name="bracketright" unicode="&#x5d;" horiz-adv-x="225" d="M140 -95 L35 -95 L35 -75 L120 -75 L120 755 L35 755 L35 775 L140 775 L140 -95 Z " />
<glyph glyph-name="slash" unicode="&#x2f;" horiz-adv-x="243" d="M30 -89 L10 -89 L214 710 L233 710 L30 -89 Z " />
<glyph glyph-name="backslash" unicode="&#x5c;" horiz-adv-x="245" d="M10 710 L30 710 L235 -89 L213 -89 L10 710 Z " />
<glyph glyph-name="underscore" unicode="&#x5f;" horiz-adv-x="290" d="M25 -30 L265 -30 L265 -50 L25 -50 L25 -30 Z " />
<glyph glyph-name="hyphen" unicode="&#x2d;" horiz-adv-x="200" d="M40 336 L160 336 L160 314 L40 314 L40 336 Z " />
<glyph glyph-name="uni00AD" unicode="&#xad;" horiz-adv-x="200" d="" />
<glyph glyph-name="endash" unicode="&#x2013;" horiz-adv-x="500" d="M50 336 L450 336 L450 314 L50 314 L50 336 Z " />
<glyph glyph-name="emdash" unicode="&#x2014;" horiz-adv-x="1000" d="M50 336 L950 336 L950 314 L50 314 L50 336 Z " />
<glyph glyph-name="brokenbar" unicode="&#xa6;" horiz-adv-x="220" d="M120 405 L100 405 L100 775 L120 775 L120 405 Z M120 275 L120 -95 L100 -95 L100 275 L120 275 Z " />
<glyph glyph-name="bar" unicode="&#x7c;" horiz-adv-x="220" d="M100 -95 L100 775 L120 775 L120 -95 L100 -95 Z " />
<glyph glyph-name="guillemotleft" unicode="&#xab;" horiz-adv-x="352" d="M162 445 L177 433 L62 292 L177 151 L162 139 L45 282 L45 302 L162 445 Z M292 445 L307 433 L192 292 L307 151 L292 139 L175 282 L175 302 L292 445 Z " />
<glyph glyph-name="guillemotright" unicode="&#xbb;" horiz-adv-x="352" d="M60 139 L45 151 L160 292 L45 433 L60 445 L177 302 L177 282 L60 139 Z M190 139 L175 151 L290 292 L175 433 L190 445 L307 302 L307 282 L190 139 Z " />
<glyph glyph-name="guilsinglleft" unicode="&#x2039;" horiz-adv-x="222" d="M162 445 L177 433 L62 292 L177 151 L162 139 L45 282 L45 302 L162 445 Z " />
<glyph glyph-name="guilsinglright" unicode="&#x203a;" horiz-adv-x="222" d="M60 139 L45 151 L160 292 L45 433 L60 445 L177 302 L177 282 L60 139 Z " />
<glyph glyph-name="quotesinglbase" unicode="&#x201a;" horiz-adv-x="166" d="M79 -134 L65 -134 L82 25 L106 25 L79 -134 Z " />
<glyph glyph-name="quotedblbase" unicode="&#x201e;" horiz-adv-x="266" d="M79 -134 L65 -134 L82 25 L106 25 L79 -134 Z M179 -134 L165 -134 L182 25 L206 25 L179 -134 Z " />
<glyph glyph-name="quoteleft" unicode="&#x2018;" horiz-adv-x="166" d="M87 675 L101 675 L84 516 L60 516 L87 675 Z " />
<glyph glyph-name="quotedblleft" unicode="&#x201c;" horiz-adv-x="266" d="M87 675 L101 675 L84 516 L60 516 L87 675 Z M187 675 L201 675 L184 516 L160 516 L187 675 Z " />
<glyph glyph-name="quoteright" unicode="&#x2019;" horiz-adv-x="166" d="M79 516 L65 516 L82 675 L106 675 L79 516 Z " />
<glyph glyph-name="quotedblright" unicode="&#x201d;" horiz-adv-x="266" d="M79 516 L65 516 L82 675 L106 675 L79 516 Z M179 516 L165 516 L182 675 L206 675 L179 516 Z " />
<glyph glyph-name="quotesingle" unicode="&#x27;" horiz-adv-x="142" d="M77 516 L65 516 L60 675 L82 675 L77 516 Z " />
<glyph glyph-name="quotedbl" unicode="&#x22;" horiz-adv-x="220" d="M77 516 L65 516 L60 675 L82 675 L77 516 Z M155 516 L143 516 L138 675 L160 675 L155 516 Z " />
<glyph glyph-name="bullet" unicode="&#x2022;" horiz-adv-x="206" d="M55 325 Q55 348 69 360.5 Q83 373 103 373 Q123 373 137 360.5 Q151 348 151 325 Q151 302 137 289.5 Q123 277 103 277 Q83 277 69 289.5 Q55 302 55 325 Z " />
<glyph glyph-name="ampersand" unicode="&#x26;" horiz-adv-x="381" d="M273 78 Q270 61 263 45.5 Q256 30 245 17.5 Q234 5 217.5 -2.5 Q201 -10 178 -10 Q124 -10 97 28 Q70 66 70 135 L70 172 Q70 208 78 234 Q86 260 100.5 280.5 Q115 301 134.5 318.5 Q154 336 178 354 Q220 387 243 419.5 Q266 452 266 502 L266 533 Q266 555 261.5 577 Q257 599 246.5 617 Q236 635 219 646 Q202 657 178 657 Q154 657 137 646 Q120 635 109.5 617 Q99 599 94.5 577 Q90 555 90 533 L90 495 Q90 449 105.5 421.5 Q121 394 144 380 L132 363 Q106 381 88 411 Q70 441 70 499 L70 525 Q70 598 97 636.5 Q124 675 178 675 Q232 675 259 637.5 Q286 600 286 531 L286 500 Q286 472 278.5 449.5 Q271 427 257.5 407 Q244 387 223.5 368.5 Q203 350 178 330 Q161 317 145.5 303 Q130 289 117.5 271 Q105 253 97.5 228 Q90 203 90 168 L90 132 Q90 110 94.5 88 Q99 66 109.5 48 Q120 30 137 19 Q154 8 178 8 Q224 8 245 44.5 Q266 81 266 137 L266 221 L286 221 L286 131 Q286 93 293.5 60.5 Q301 28 315.5 4 Q330 -20 351.5 -34 Q373 -48 401 -48 L401 -68 Q370 -68 347 -55 Q324 -42 308.5 -21 Q293 0 284.5 26 Q276 52 275 78 L273 78 Z " />
<glyph glyph-name="paragraph" unicode="&#xb6;" horiz-adv-x="323" d="M238 0 L238 665 L258 665 L258 0 L238 0 Z M195 0 L175 0 L175 357 L148 357 Q94 357 72 395.5 Q50 434 50 508 L50 514 Q50 588 72 626.5 Q94 665 148 665 L195 665 L195 0 Z " />
<glyph glyph-name="dagger" unicode="&#x2020;" horiz-adv-x="280" d="M45 500 L130 500 L130 710 L150 710 L150 500 L235 500 L235 480 L150 480 L150 0 L130 0 L130 480 L45 480 L45 500 Z " />
<glyph glyph-name="daggerdbl" unicode="&#x2021;" horiz-adv-x="280" d="M45 500 L130 500 L130 710 L150 710 L150 500 L235 500 L235 480 L150 480 L150 230 L235 230 L235 210 L150 210 L150 0 L130 0 L130 210 L45 210 L45 230 L130 230 L130 480 L45 480 L45 500 Z " />
<glyph glyph-name="section" unicode="&#xa7;" horiz-adv-x="297" d="M114 447 Q94 436 82 413.5 Q70 391 70 362 Q70 341 75 325.5 Q80 310 90 296 Q100 282 116 268 Q132 254 154 238 L182 217 Q202 232 214.5 255 Q227 278 227 303 Q227 324 222.5 340 Q218 356 208 370 Q198 384 182 397.5 Q166 411 143 427 L114 447 Z M99 461 Q76 481 63.5 507 Q51 533 51 569 Q51 590 56.5 609 Q62 628 73.5 642.5 Q85 657 103 666 Q121 675 146 675 Q198 675 222 638.5 Q246 602 246 532 L246 523 L226 523 L226 531 Q226 553 223 575.5 Q220 598 211 616 Q202 634 186.5 645.5 Q171 657 147 657 Q125 657 110.5 649 Q96 641 87 629 Q78 617 74.5 602 Q71 587 71 573 Q71 543 77 524.5 Q83 506 96.5 491.5 Q110 477 130 463 Q150 449 179 427 Q195 414 208 401.5 Q221 389 229.5 375 Q238 361 242.5 343.5 Q247 326 247 303 Q247 267 231.5 244.5 Q216 222 198 204 Q220 183 233 157 Q246 131 246 96 Q246 75 240.5 56 Q235 37 223.5 22.5 Q212 8 194 -1 Q176 -10 151 -10 Q99 -10 75 26.5 Q51 63 51 133 L51 142 L71 142 L71 134 Q71 112 74 89.5 Q77 67 86 49 Q95 31 110.5 19.5 Q126 8 150 8 Q172 8 186.5 16 Q201 24 210 36 Q219 48 222.5 63 Q226 78 226 92 Q226 122 220 140 Q214 158 201.5 172 Q189 186 168.5 200 Q148 214 120 236 Q87 262 68.5 290 Q50 318 50 362 Q50 398 64.5 422.5 Q79 447 99 461 Z " />
<glyph glyph-name="asterisk" unicode="&#x2a;" horiz-adv-x="290" d="M40 557 L133 604 L133 606 L40 655 L50 672 L138 614 L139 615 L135 721 L155 721 L148 615 L150 614 L240 672 L250 655 L155 605 L155 603 L250 557 L240 540 L150 597 L149 596 L155 491 L135 491 L140 596 L139 597 L50 540 L40 557 Z " />
<glyph glyph-name="trademark" unicode="&#x2122;" horiz-adv-x="408" d="M71 419 L71 647 L15 647 L15 665 L151 665 L151 647 L91 647 L91 419 L71 419 Z M179 419 L179 665 L214 665 L270 483 L272 483 L328 665 L363 665 L363 419 L343 419 L343 647 L341 647 L278 450 L264 450 L201 647 L199 647 L199 419 L179 419 Z " />
<glyph glyph-name="registered" unicode="&#xae;" horiz-adv-x="392" d="M337 387 Q337 348 330 317 Q323 286 306.5 264.5 Q290 243 263 231.5 Q236 220 196 220 Q156 220 129 231.5 Q102 243 85.5 264.5 Q69 286 62 317 Q55 348 55 387 L55 518 Q55 557 62 588 Q69 619 85.5 640.5 Q102 662 129 673.5 Q156 685 196 685 Q236 685 263 673.5 Q290 662 306.5 640.5 Q323 619 330 588 Q337 557 337 518 L337 387 Z M317 519 Q317 590 291.5 628.5 Q266 667 196 667 Q126 667 100.5 628.5 Q75 590 75 519 L75 386 Q75 315 100.5 276.5 Q126 238 196 238 Q266 238 291.5 276.5 Q317 315 317 386 L317 519 Z M246 520 Q246 494 237.5 481 Q229 468 213 461 L255 315 L236 315 L195 460 L164 460 L164 315 L146 315 L146 595 L192 595 Q221 595 233.5 581.5 Q246 568 246 536 L246 520 Z M228 540 Q228 577 192 577 L164 577 L164 478 L192 478 Q212 478 220 487.5 Q228 497 228 517 L228 540 Z " />
<glyph glyph-name="copyright" unicode="&#xa9;" horiz-adv-x="532" d="M467 197 Q467 153 455.5 113.5 Q444 74 419.5 44.5 Q395 15 357.5 -2.5 Q320 -20 268 -20 Q216 -20 177.5 -3 Q139 14 114 43.5 Q89 73 77 112.5 Q65 152 65 197 L65 468 Q65 513 77 552.5 Q89 592 114 621.5 Q139 651 177.5 668 Q216 685 268 685 Q320 685 357.5 667.5 Q395 650 419.5 620.5 Q444 591 455.5 551.5 Q467 512 467 468 L467 197 Z M447 469 Q447 506 437.5 541.5 Q428 577 407 605 Q386 633 351.5 650 Q317 667 268 667 Q218 667 183.5 650 Q149 633 127 605 Q105 577 95 541.5 Q85 506 85 469 L85 196 Q85 159 95 123.5 Q105 88 127 60 Q149 32 183.5 15 Q218 -2 268 -2 Q318 -2 352 15 Q386 32 407 60 Q428 88 437.5 123.5 Q447 159 447 196 L447 469 Z M346 421 L346 429 Q346 453 343 475.5 Q340 498 331 515.5 Q322 533 306.5 544 Q291 555 267 555 Q242 555 227 543.5 Q212 532 203.5 513.5 Q195 495 192 472.5 Q189 450 189 429 L189 237 Q189 216 192 193.5 Q195 171 203.5 152.5 Q212 134 227 122.5 Q242 111 267 111 Q291 111 306.5 122 Q322 133 331 150.5 Q340 168 343 190.5 Q346 213 346 237 L346 245 L364 245 L364 237 Q364 167 341.5 130 Q319 93 267 93 Q213 93 191 132 Q169 171 169 245 L169 421 Q169 495 191 534 Q213 573 267 573 Q319 573 341.5 536 Q364 499 364 430 L364 421 L346 421 Z " />
<glyph glyph-name="at" unicode="&#x40;" horiz-adv-x="532" d="M263 249 Q225 249 207.5 226 Q190 203 190 149 Q190 134 192.5 118 Q195 102 201.5 88.5 Q208 75 219.5 66.5 Q231 58 250 58 Q266 58 279.5 65 Q293 72 303 84 Q313 96 320 111 Q327 126 331 142 L331 229 Q317 235 299.5 242 Q282 249 263 249 Z M271 -120 L258 -120 Q163 -120 114 -77.5 Q65 -35 65 63 L65 400 Q65 445 77 484.5 Q89 524 114 553.5 Q139 583 177.5 600 Q216 617 268 617 Q320 617 357.5 599.5 Q395 582 419.5 552.5 Q444 523 455.5 483.5 Q467 444 467 400 L467 137 Q467 40 395 40 Q369 40 353 57 Q337 74 332 106 Q321 77 299.5 58.5 Q278 40 250 40 Q170 40 170 152 Q170 215 195 242 Q220 269 254 269 Q279 269 296.5 261 Q314 253 331 243 L331 313 Q331 336 328.5 359 Q326 382 319 400.5 Q312 419 298.5 430.5 Q285 442 264 442 Q226 442 208.5 412 Q191 382 191 328 L191 319 L171 319 L171 327 Q171 349 175 373 Q179 397 189.5 416 Q200 435 218 447.5 Q236 460 264 460 Q290 460 307 449 Q324 438 333.5 417.5 Q343 397 347 368.5 Q351 340 351 305 L351 119 Q351 96 362 77 Q373 58 397 58 Q423 58 435 78 Q447 98 447 125 L447 401 Q447 438 437.5 473.5 Q428 509 407 537 Q386 565 351.5 582 Q317 599 268 599 Q218 599 183.5 582 Q149 565 127 537 Q105 509 95 473.5 Q85 438 85 401 L85 63 Q85 -26 130 -63 Q175 -100 260 -100 L271 -100 L271 -120 Z " />
<glyph glyph-name="ordfeminine" unicode="&#xaa;" horiz-adv-x="196" d="M31 593 L31 600 Q31 630 44.5 652.5 Q58 675 92 675 Q124 675 138.5 651.5 Q153 628 153 583 L153 408 Q153 391 158 386 Q163 381 171 379 L171 362 Q152 363 144.5 373.5 Q137 384 136 401 Q128 383 115.5 372.5 Q103 362 84 362 Q30 362 30 438 L30 469 Q30 481 33 494 Q36 507 43 517.5 Q50 528 61.5 534.5 Q73 541 89 541 Q100 541 111.5 538 Q123 535 134 527 L134 588 Q134 600 132.5 613 Q131 626 126.5 636 Q122 646 113.5 652.5 Q105 659 92 659 Q69 659 59 641.5 Q49 624 49 601 L49 593 L31 593 Z M134 514 Q125 519 116.5 521.5 Q108 524 95 524 Q68 524 58.5 506.5 Q49 489 49 454 L49 449 Q49 417 56.5 398 Q64 379 90 379 Q105 379 116.5 390.5 Q128 402 134 417 L134 514 Z " />
<glyph glyph-name="ordmasculine" unicode="&#xba;" horiz-adv-x="183" d="M153 454 Q153 409 139 385.5 Q125 362 91 362 Q58 362 44 385.5 Q30 409 30 454 L30 583 Q30 628 44 651.5 Q58 675 91 675 Q125 675 139 651.5 Q153 628 153 583 L153 454 Z M134 588 Q134 601 132.5 613.5 Q131 626 126.5 636 Q122 646 113.5 652.5 Q105 659 92 659 Q78 659 70 652.5 Q62 646 57 636 Q52 626 50.5 613 Q49 600 49 588 L49 449 Q49 437 50.5 424.5 Q52 412 57 402 Q62 392 70 385.5 Q78 379 92 379 Q105 379 113.5 385.5 Q122 392 126.5 402 Q131 412 132.5 424.5 Q134 437 134 449 L134 588 Z " />
<glyph glyph-name="numbersign" unicode="&#x23;" horiz-adv-x="423" d="M96 480 L167 480 L216 665 L232 665 L184 480 L314 480 L363 665 L379 665 L331 480 L398 480 L398 462 L326 462 L261 213 L328 213 L328 195 L257 195 L206 0 L190 0 L240 195 L110 195 L58 0 L42 0 L93 195 L25 195 L25 213 L97 213 L163 462 L96 462 L96 480 Z M114 213 L244 213 L310 462 L179 462 L114 213 Z " />
<glyph glyph-name="Euro" unicode="&#x20ac;" horiz-adv-x="343" d="M278 525 L278 533 Q278 555 273.5 577 Q269 599 258.5 617 Q248 635 231 646 Q214 657 190 657 Q166 657 149 646 Q132 635 121.5 617 Q111 599 106.5 577 Q102 555 102 533 L102 391 L265 391 L265 373 L102 373 L102 291 L265 291 L265 273 L102 273 L102 132 Q102 110 106.5 88 Q111 66 121.5 48 Q132 30 149 19 Q166 8 190 8 Q214 8 231 19 Q248 30 258.5 48 Q269 66 273.5 88 Q278 110 278 132 L278 140 L298 140 L298 134 Q298 66 271 28 Q244 -10 190 -10 Q136 -10 109 28.5 Q82 67 82 140 L82 273 L35 273 L35 291 L82 291 L82 373 L35 373 L35 391 L82 391 L82 525 Q82 598 109 636.5 Q136 675 190 675 Q244 675 271 636 Q298 597 298 531 L298 525 L278 525 Z " />
<glyph glyph-name="dollar" unicode="&#x24;" horiz-adv-x="305" d="M50 541 Q50 562 55 584.5 Q60 607 71 626 Q82 645 99.5 658 Q117 671 142 674 L142 730 L162 730 L162 674 Q207 671 231 636 Q255 601 255 535 L255 527 L235 527 L235 533 Q235 555 231 577 Q227 599 218 617 Q209 635 193 646 Q177 657 153 657 Q117 657 93.5 627 Q70 597 70 552 Q70 520 72 496 Q74 472 82 452 Q90 432 105.5 413.5 Q121 395 148 373 Q170 355 189.5 335.5 Q209 316 223.5 293.5 Q238 271 246.5 244.5 Q255 218 255 184 L255 154 Q255 128 252 100 Q249 72 239 48.5 Q229 25 210.5 9 Q192 -7 162 -9 L162 -65 L142 -65 L142 -9 Q50 -1 50 130 L50 138 L70 138 L70 132 Q70 110 74 88 Q78 66 87.5 48 Q97 30 113 19 Q129 8 153 8 Q190 8 212.5 38 Q235 68 235 113 Q235 154 232.5 186.5 Q230 219 220 247.5 Q210 276 191 301.5 Q172 327 138 355 Q118 371 101.5 386.5 Q85 402 73.5 419.5 Q62 437 56 458.5 Q50 480 50 508 L50 541 Z " />
<glyph glyph-name="yen" unicode="&#xa5;" horiz-adv-x="340" d="M55 327 L154 327 L45 665 L65 665 L169 327 L171 327 L275 665 L295 665 L186 327 L285 327 L285 309 L180 309 L180 227 L285 227 L285 209 L180 209 L180 0 L160 0 L160 209 L55 209 L55 227 L160 227 L160 309 L55 309 L55 327 Z " />
<glyph glyph-name="sterling" unicode="&#xa3;" horiz-adv-x="341" d="M40 271 L80 271 L80 525 Q80 598 107 636.5 Q134 675 188 675 Q242 675 269 636 Q296 597 296 531 L296 525 L276 525 L276 533 Q276 555 271.5 577 Q267 599 256.5 617 Q246 635 229 646 Q212 657 188 657 Q164 657 147 645.5 Q130 634 119.5 616 Q109 598 104.5 575.5 Q100 553 100 531 L100 271 L250 271 L250 253 L100 253 L100 18 L296 18 L296 0 L40 0 L40 18 L80 18 L80 253 L40 253 L40 271 Z " />
<glyph glyph-name="cent" unicode="&#xa2;" horiz-adv-x="295" d="M143 -70 L143 -9 Q95 -5 75 33 Q55 71 55 142 L55 358 Q55 428 75 466.5 Q95 505 143 509 L143 570 L163 570 L163 509 Q209 505 229.5 469 Q250 433 250 367 L250 358 L232 358 L232 366 Q232 390 228.5 412.5 Q225 435 216.5 452.5 Q208 470 192.5 481 Q177 492 153 492 Q128 492 113 480.5 Q98 469 89.5 450.5 Q81 432 78 409.5 Q75 387 75 366 L75 134 Q75 113 78 90.5 Q81 68 89 50 Q97 32 112.5 20 Q128 8 153 8 Q178 8 193.5 19 Q209 30 217.5 48 Q226 66 229 88.5 Q232 111 232 134 L232 142 L250 142 L250 134 Q250 67 229.5 31 Q209 -5 163 -9 L163 -70 L143 -70 Z " />
<glyph glyph-name="florin" unicode="&#x192;" horiz-adv-x="382" d="M201 144 Q201 69 179 29.5 Q157 -10 103 -10 Q77 -10 56.5 1.5 Q36 13 25 33 L43 46 Q51 29 65.5 18.5 Q80 8 103 8 Q128 8 143 20 Q158 32 166.5 50.5 Q175 69 178 91.5 Q181 114 181 135 L181 521 Q181 596 203 635.5 Q225 675 279 675 Q305 675 325.5 663.5 Q346 652 357 632 L339 619 Q331 636 316.5 646.5 Q302 657 279 657 Q254 657 239 645 Q224 633 215.5 614.5 Q207 596 204 573.5 Q201 551 201 530 L201 375 L317 375 L317 357 L201 357 L201 144 Z " />
<glyph glyph-name="currency" unicode="&#xa4;" horiz-adv-x="306" d="M251 302 Q251 254 242 221.5 Q233 189 213 171 L239 107 L220 107 L199 160 Q180 150 153 150 Q126 150 106 161 L85 107 L66 107 L91 172 Q55 207 55 302 L55 308 Q55 353 63.5 386.5 Q72 420 92 438 L66 503 L84 503 L106 449 Q126 460 153 460 Q180 460 199 449 L221 503 L239 503 L213 439 Q251 404 251 308 L251 302 Z M231 316 Q231 337 228 359.5 Q225 382 216.5 400 Q208 418 192.5 430 Q177 442 153 442 Q128 442 113 430 Q98 418 89.5 400 Q81 382 78 359.5 Q75 337 75 316 L75 294 Q75 273 78 250.5 Q81 228 89 210 Q97 192 112.5 180 Q128 168 153 168 Q177 168 192.5 179.5 Q208 191 216.5 209 Q225 227 228 249.5 Q231 272 231 294 L231 316 Z " />
<glyph glyph-name="zero" unicode="0" horiz-adv-x="326" d="M271 140 Q271 67 244 28.5 Q217 -10 163 -10 Q109 -10 82 28.5 Q55 67 55 140 L55 525 Q55 598 82 636.5 Q109 675 163 675 Q217 675 244 636.5 Q271 598 271 525 L271 140 Z M251 533 Q251 555 246.5 577 Q242 599 231.5 617 Q221 635 204 646 Q187 657 163 657 Q139 657 122 646 Q105 635 94.5 617 Q84 599 79.5 577 Q75 555 75 533 L75 132 Q75 110 79.5 88 Q84 66 94.5 48 Q105 30 122 19 Q139 8 163 8 Q187 8 204 19 Q221 30 231.5 48 Q242 66 246.5 88 Q251 110 251 132 L251 533 Z " />
<glyph glyph-name="one" unicode="1" horiz-adv-x="238" d="M138 0 L138 645 L32 563 L20 579 L133 665 L158 665 L158 0 L138 0 Z " />
<glyph glyph-name="two" unicode="2" horiz-adv-x="301" d="M40 525 L40 532 Q40 603 67 639 Q94 675 151 675 Q208 675 232 643.5 Q256 612 256 549 L256 520 Q256 493 250.5 467 Q245 441 235.5 412.5 Q226 384 211.5 352 Q197 320 179 281 L58 18 L256 18 L256 0 L41 0 L41 25 L160 285 Q197 365 216.5 419.5 Q236 474 236 520 L236 548 Q236 605 216 631 Q196 657 151 657 Q99 657 79.5 623 Q60 589 60 533 L60 525 L40 525 Z " />
<glyph glyph-name="three" unicode="3" horiz-adv-x="311" d="M236 533 Q236 555 231.5 577 Q227 599 216.5 617 Q206 635 189 646 Q172 657 148 657 Q124 657 107 646 Q90 635 79.5 617 Q69 599 64.5 577 Q60 555 60 533 L60 514 L40 514 L40 525 Q40 598 67 636.5 Q94 675 148 675 Q202 675 229 636.5 Q256 598 256 525 L256 492 Q256 439 238 402 Q220 365 188 353 L188 351 Q220 340 238 301.5 Q256 263 256 212 L256 140 Q256 67 229 28.5 Q202 -10 148 -10 Q94 -10 67 27.5 Q40 65 40 137 L40 151 L60 151 L60 132 Q60 110 64.5 88 Q69 66 79.5 48 Q90 30 107 19 Q124 8 148 8 Q172 8 189 19 Q206 30 216.5 48 Q227 66 231.5 88 Q236 110 236 132 L236 220 Q236 239 231 261 Q226 283 216.5 301 Q207 319 192 331 Q177 343 157 343 L120 343 L120 361 L157 361 Q177 361 192 373 Q207 385 216.5 403 Q226 421 231 442.5 Q236 464 236 484 L236 533 Z " />
<glyph glyph-name="four" unicode="4" horiz-adv-x="296" d="M221 160 L25 160 L25 185 L217 665 L237 665 L43 178 L221 178 L221 330 L241 330 L241 0 L221 0 L221 160 Z " />
<glyph glyph-name="five" unicode="5" horiz-adv-x="321" d="M50 665 L266 665 L266 647 L70 647 L70 369 Q82 394 106 417 Q130 440 168 440 Q213 440 239.5 401 Q266 362 266 292 L266 140 Q266 67 239 28.5 Q212 -10 158 -10 Q104 -10 77 27.5 Q50 65 50 137 L50 151 L70 151 L70 132 Q70 110 74.5 88 Q79 66 89.5 48 Q100 30 117 19 Q134 8 158 8 Q182 8 199 19 Q216 30 226.5 48 Q237 66 241.5 88 Q246 110 246 132 L246 300 Q246 322 241.5 343.5 Q237 365 227.5 382.5 Q218 400 203 411 Q188 422 168 422 Q149 422 134 414.5 Q119 407 107.5 395.5 Q96 384 88 371 Q80 358 75 347 L50 347 L50 665 Z " />
<glyph glyph-name="six" unicode="6" horiz-adv-x="326" d="M251 527 L251 533 Q251 557 246.5 579.5 Q242 602 231.5 619 Q221 636 204 646.5 Q187 657 163 657 Q139 657 122 646 Q105 635 94.5 617 Q84 599 79.5 577 Q75 555 75 533 L75 337 Q84 365 107.5 384.5 Q131 404 163 404 Q217 404 244 365.5 Q271 327 271 254 L271 138 Q271 66 244 28 Q217 -10 163 -10 Q109 -10 82 28.5 Q55 67 55 140 L55 525 Q55 598 82 636.5 Q109 675 163 675 Q216 675 243.5 639.5 Q271 604 271 534 L271 527 L251 527 Z M163 8 Q187 8 204 18.5 Q221 29 231.5 46 Q242 63 246.5 85.5 Q251 108 251 132 L251 262 Q251 284 246.5 306 Q242 328 231.5 346 Q221 364 204 375 Q187 386 163 386 Q140 386 123.5 375 Q107 364 96 346 Q85 328 80 306 Q75 284 75 262 L75 132 Q75 110 79.5 88 Q84 66 94.5 48 Q105 30 122 19 Q139 8 163 8 Z " />
<glyph glyph-name="seven" unicode="7" horiz-adv-x="279" d="M53 0 L237 647 L20 647 L20 665 L254 665 L254 640 L73 0 L53 0 Z " />
<glyph glyph-name="eight" unicode="8" horiz-adv-x="326" d="M55 545 Q55 608 82 641.5 Q109 675 163 675 Q217 675 244 641.5 Q271 608 271 545 L271 487 Q271 463 263.5 443.5 Q256 424 243 407.5 Q230 391 213.5 375.5 Q197 360 178 344 Q196 328 212.5 310.5 Q229 293 242 272.5 Q255 252 263 227.5 Q271 203 271 174 L271 120 Q271 60 244 25 Q217 -10 163 -10 Q107 -10 81 23 Q55 56 55 120 L55 178 Q55 207 62.5 230.5 Q70 254 83 274 Q96 294 112.5 310.5 Q129 327 146 343 Q128 359 111.5 375 Q95 391 82.5 409 Q70 427 62.5 447.5 Q55 468 55 492 L55 545 Z M75 112 Q75 93 79.5 74.5 Q84 56 94.5 41 Q105 26 122 17 Q139 8 163 8 Q187 8 204 17.5 Q221 27 231.5 42 Q242 57 246.5 75.5 Q251 94 251 112 L251 168 Q251 197 243.5 221 Q236 245 223.5 265 Q211 285 195 301 Q179 317 163 331 Q146 317 130.5 302 Q115 287 102.5 268 Q90 249 82.5 224.5 Q75 200 75 168 L75 112 Z M75 497 Q75 454 98 422 Q121 390 163 357 Q184 373 200 388 Q216 403 227.5 419.5 Q239 436 245 454.5 Q251 473 251 497 L251 553 Q251 571 246 589.5 Q241 608 230.5 623 Q220 638 203.5 647.5 Q187 657 163 657 Q139 657 122 648.5 Q105 640 94.5 625.5 Q84 611 79.5 592 Q75 573 75 553 L75 497 Z " />
<glyph glyph-name="nine" unicode="9" horiz-adv-x="326" d="M75 138 L75 132 Q75 108 79.5 85.5 Q84 63 94.5 46 Q105 29 122 18.5 Q139 8 163 8 Q187 8 203.5 18 Q220 28 230.5 45.5 Q241 63 246 85.5 Q251 108 251 132 L251 328 Q242 300 218.5 280.5 Q195 261 163 261 Q109 261 82 299.5 Q55 338 55 411 L55 527 Q55 599 82 637 Q109 675 163 675 Q217 675 244 636.5 Q271 598 271 525 L271 140 Q271 71 244 30.5 Q217 -10 163 -10 Q109 -10 82 26 Q55 62 55 131 L55 138 L75 138 Z M163 657 Q139 657 122 646.5 Q105 636 94.5 619 Q84 602 79.5 579.5 Q75 557 75 533 L75 403 Q75 381 79.5 359 Q84 337 94.5 319 Q105 301 122 290 Q139 279 163 279 Q186 279 202.5 290 Q219 301 230 319 Q241 337 246 359 Q251 381 251 403 L251 533 Q251 555 246 577 Q241 599 230.5 617 Q220 635 203.5 646 Q187 657 163 657 Z " />
<glyph glyph-name="zeroslash" unicode="&#xe01a;" horiz-adv-x="326" d="M271 140 Q271 67 244 28.5 Q217 -10 163 -10 Q109 -10 82 28.5 Q55 67 55 140 L55 525 Q55 598 82 636.5 Q109 675 163 675 Q217 675 244 636.5 Q271 598 271 525 L271 140 Z M251 533 Q251 546 249.5 559.5 Q248 573 244 585 L89 58 Q100 36 117.5 22 Q135 8 163 8 Q187 8 204 19 Q221 30 231.5 48 Q242 66 246.5 88 Q251 110 251 132 L251 533 Z M75 132 Q75 111 80 88 L235 611 Q224 631 206.5 644 Q189 657 163 657 Q139 657 122 646 Q105 635 94.5 617 Q84 599 79.5 577 Q75 555 75 533 L75 132 Z " />
<glyph glyph-name="numbersign.plf" unicode="&#xe020;" horiz-adv-x="423" d="M96 480 L167 480 L216 665 L232 665 L184 480 L314 480 L363 665 L379 665 L331 480 L398 480 L398 462 L326 462 L261 213 L328 213 L328 195 L257 195 L206 0 L190 0 L240 195 L110 195 L58 0 L42 0 L93 195 L25 195 L25 213 L97 213 L163 462 L96 462 L96 480 Z M114 213 L244 213 L310 462 L179 462 L114 213 Z " />
<glyph glyph-name="Euro.plf" unicode="&#xe021;" horiz-adv-x="343" d="M278 525 L278 533 Q278 555 273.5 577 Q269 599 258.5 617 Q248 635 231 646 Q214 657 190 657 Q166 657 149 646 Q132 635 121.5 617 Q111 599 106.5 577 Q102 555 102 533 L102 391 L265 391 L265 373 L102 373 L102 291 L265 291 L265 273 L102 273 L102 132 Q102 110 106.5 88 Q111 66 121.5 48 Q132 30 149 19 Q166 8 190 8 Q214 8 231 19 Q248 30 258.5 48 Q269 66 273.5 88 Q278 110 278 132 L278 140 L298 140 L298 134 Q298 66 271 28 Q244 -10 190 -10 Q136 -10 109 28.5 Q82 67 82 140 L82 273 L35 273 L35 291 L82 291 L82 373 L35 373 L35 391 L82 391 L82 525 Q82 598 109 636.5 Q136 675 190 675 Q244 675 271 636 Q298 597 298 531 L298 525 L278 525 Z " />
<glyph glyph-name="dollar.plf" unicode="&#xe022;" horiz-adv-x="305" d="M50 541 Q50 562 55 584.5 Q60 607 71 626 Q82 645 99.5 658 Q117 671 142 674 L142 730 L162 730 L162 674 Q207 671 231 636 Q255 601 255 535 L255 527 L235 527 L235 533 Q235 555 231 577 Q227 599 218 617 Q209 635 193 646 Q177 657 153 657 Q117 657 93.5 627 Q70 597 70 552 Q70 520 72 496 Q74 472 82 452 Q90 432 105.5 413.5 Q121 395 148 373 Q170 355 189.5 335.5 Q209 316 223.5 293.5 Q238 271 246.5 244.5 Q255 218 255 184 L255 154 Q255 128 252 100 Q249 72 239 48.5 Q229 25 210.5 9 Q192 -7 162 -9 L162 -65 L142 -65 L142 -9 Q50 -1 50 130 L50 138 L70 138 L70 132 Q70 110 74 88 Q78 66 87.5 48 Q97 30 113 19 Q129 8 153 8 Q190 8 212.5 38 Q235 68 235 113 Q235 154 232.5 186.5 Q230 219 220 247.5 Q210 276 191 301.5 Q172 327 138 355 Q118 371 101.5 386.5 Q85 402 73.5 419.5 Q62 437 56 458.5 Q50 480 50 508 L50 541 Z " />
<glyph glyph-name="yen.plf" unicode="&#xe023;" horiz-adv-x="340" d="M55 327 L154 327 L45 665 L65 665 L169 327 L171 327 L275 665 L295 665 L186 327 L285 327 L285 309 L180 309 L180 227 L285 227 L285 209 L180 209 L180 0 L160 0 L160 209 L55 209 L55 227 L160 227 L160 309 L55 309 L55 327 Z " />
<glyph glyph-name="sterling.plf" unicode="&#xe024;" horiz-adv-x="341" d="M40 271 L80 271 L80 525 Q80 598 107 636.5 Q134 675 188 675 Q242 675 269 636 Q296 597 296 531 L296 525 L276 525 L276 533 Q276 555 271.5 577 Q267 599 256.5 617 Q246 635 229 646 Q212 657 188 657 Q164 657 147 645.5 Q130 634 119.5 616 Q109 598 104.5 575.5 Q100 553 100 531 L100 271 L250 271 L250 253 L100 253 L100 18 L296 18 L296 0 L40 0 L40 18 L80 18 L80 253 L40 253 L40 271 Z " />
<glyph glyph-name="cent.plf" unicode="&#xe025;" horiz-adv-x="295" d="M143 -70 L143 -9 Q95 -5 75 33 Q55 71 55 142 L55 358 Q55 428 75 466.5 Q95 505 143 509 L143 570 L163 570 L163 509 Q209 505 229.5 469 Q250 433 250 367 L250 358 L232 358 L232 366 Q232 390 228.5 412.5 Q225 435 216.5 452.5 Q208 470 192.5 481 Q177 492 153 492 Q128 492 113 480.5 Q98 469 89.5 450.5 Q81 432 78 409.5 Q75 387 75 366 L75 134 Q75 113 78 90.5 Q81 68 89 50 Q97 32 112.5 20 Q128 8 153 8 Q178 8 193.5 19 Q209 30 217.5 48 Q226 66 229 88.5 Q232 111 232 134 L232 142 L250 142 L250 134 Q250 67 229.5 31 Q209 -5 163 -9 L163 -70 L143 -70 Z " />
<glyph glyph-name="florin.plf" unicode="&#xe026;" horiz-adv-x="382" d="M201 144 Q201 69 179 29.5 Q157 -10 103 -10 Q77 -10 56.5 1.5 Q36 13 25 33 L43 46 Q51 29 65.5 18.5 Q80 8 103 8 Q128 8 143 20 Q158 32 166.5 50.5 Q175 69 178 91.5 Q181 114 181 135 L181 521 Q181 596 203 635.5 Q225 675 279 675 Q305 675 325.5 663.5 Q346 652 357 632 L339 619 Q331 636 316.5 646.5 Q302 657 279 657 Q254 657 239 645 Q224 633 215.5 614.5 Q207 596 204 573.5 Q201 551 201 530 L201 375 L317 375 L317 357 L201 357 L201 144 Z " />
<glyph glyph-name="zero.plf" unicode="&#xe027;" horiz-adv-x="326" d="M271 140 Q271 67 244 28.5 Q217 -10 163 -10 Q109 -10 82 28.5 Q55 67 55 140 L55 525 Q55 598 82 636.5 Q109 675 163 675 Q217 675 244 636.5 Q271 598 271 525 L271 140 Z M251 533 Q251 555 246.5 577 Q242 599 231.5 617 Q221 635 204 646 Q187 657 163 657 Q139 657 122 646 Q105 635 94.5 617 Q84 599 79.5 577 Q75 555 75 533 L75 132 Q75 110 79.5 88 Q84 66 94.5 48 Q105 30 122 19 Q139 8 163 8 Q187 8 204 19 Q221 30 231.5 48 Q242 66 246.5 88 Q251 110 251 132 L251 533 Z " />
<glyph glyph-name="one.plf" unicode="&#xe028;" horiz-adv-x="238" d="M138 0 L138 645 L32 563 L20 579 L133 665 L158 665 L158 0 L138 0 Z " />
<glyph glyph-name="two.plf" unicode="&#xe029;" horiz-adv-x="301" d="M40 525 L40 532 Q40 603 67 639 Q94 675 151 675 Q208 675 232 643.5 Q256 612 256 549 L256 520 Q256 493 250.5 467 Q245 441 235.5 412.5 Q226 384 211.5 352 Q197 320 179 281 L58 18 L256 18 L256 0 L41 0 L41 25 L160 285 Q197 365 216.5 419.5 Q236 474 236 520 L236 548 Q236 605 216 631 Q196 657 151 657 Q99 657 79.5 623 Q60 589 60 533 L60 525 L40 525 Z " />
<glyph glyph-name="three.plf" unicode="&#xe02a;" horiz-adv-x="311" d="M236 533 Q236 555 231.5 577 Q227 599 216.5 617 Q206 635 189 646 Q172 657 148 657 Q124 657 107 646 Q90 635 79.5 617 Q69 599 64.5 577 Q60 555 60 533 L60 514 L40 514 L40 525 Q40 598 67 636.5 Q94 675 148 675 Q202 675 229 636.5 Q256 598 256 525 L256 492 Q256 439 238 402 Q220 365 188 353 L188 351 Q220 340 238 301.5 Q256 263 256 212 L256 140 Q256 67 229 28.5 Q202 -10 148 -10 Q94 -10 67 27.5 Q40 65 40 137 L40 151 L60 151 L60 132 Q60 110 64.5 88 Q69 66 79.5 48 Q90 30 107 19 Q124 8 148 8 Q172 8 189 19 Q206 30 216.5 48 Q227 66 231.5 88 Q236 110 236 132 L236 220 Q236 239 231 261 Q226 283 216.5 301 Q207 319 192 331 Q177 343 157 343 L120 343 L120 361 L157 361 Q177 361 192 373 Q207 385 216.5 403 Q226 421 231 442.5 Q236 464 236 484 L236 533 Z " />
<glyph glyph-name="four.plf" unicode="&#xe02b;" horiz-adv-x="296" d="M221 160 L25 160 L25 185 L217 665 L237 665 L43 178 L221 178 L221 330 L241 330 L241 0 L221 0 L221 160 Z " />
<glyph glyph-name="five.plf" unicode="&#xe02c;" horiz-adv-x="321" d="M50 665 L266 665 L266 647 L70 647 L70 369 Q82 394 106 417 Q130 440 168 440 Q213 440 239.5 401 Q266 362 266 292 L266 140 Q266 67 239 28.5 Q212 -10 158 -10 Q104 -10 77 27.5 Q50 65 50 137 L50 151 L70 151 L70 132 Q70 110 74.5 88 Q79 66 89.5 48 Q100 30 117 19 Q134 8 158 8 Q182 8 199 19 Q216 30 226.5 48 Q237 66 241.5 88 Q246 110 246 132 L246 300 Q246 322 241.5 343.5 Q237 365 227.5 382.5 Q218 400 203 411 Q188 422 168 422 Q149 422 134 414.5 Q119 407 107.5 395.5 Q96 384 88 371 Q80 358 75 347 L50 347 L50 665 Z " />
<glyph glyph-name="six.plf" unicode="&#xe02d;" horiz-adv-x="326" d="M251 527 L251 533 Q251 557 246.5 579.5 Q242 602 231.5 619 Q221 636 204 646.5 Q187 657 163 657 Q139 657 122 646 Q105 635 94.5 617 Q84 599 79.5 577 Q75 555 75 533 L75 337 Q84 365 107.5 384.5 Q131 404 163 404 Q217 404 244 365.5 Q271 327 271 254 L271 138 Q271 66 244 28 Q217 -10 163 -10 Q109 -10 82 28.5 Q55 67 55 140 L55 525 Q55 598 82 636.5 Q109 675 163 675 Q216 675 243.5 639.5 Q271 604 271 534 L271 527 L251 527 Z M163 8 Q187 8 204 18.5 Q221 29 231.5 46 Q242 63 246.5 85.5 Q251 108 251 132 L251 262 Q251 284 246.5 306 Q242 328 231.5 346 Q221 364 204 375 Q187 386 163 386 Q140 386 123.5 375 Q107 364 96 346 Q85 328 80 306 Q75 284 75 262 L75 132 Q75 110 79.5 88 Q84 66 94.5 48 Q105 30 122 19 Q139 8 163 8 Z " />
<glyph glyph-name="seven.plf" unicode="&#xe02e;" horiz-adv-x="279" d="M53 0 L237 647 L20 647 L20 665 L254 665 L254 640 L73 0 L53 0 Z " />
<glyph glyph-name="eight.plf" unicode="&#xe02f;" horiz-adv-x="326" d="M55 545 Q55 608 82 641.5 Q109 675 163 675 Q217 675 244 641.5 Q271 608 271 545 L271 487 Q271 463 263.5 443.5 Q256 424 243 407.5 Q230 391 213.5 375.5 Q197 360 178 344 Q196 328 212.5 310.5 Q229 293 242 272.5 Q255 252 263 227.5 Q271 203 271 174 L271 120 Q271 60 244 25 Q217 -10 163 -10 Q107 -10 81 23 Q55 56 55 120 L55 178 Q55 207 62.5 230.5 Q70 254 83 274 Q96 294 112.5 310.5 Q129 327 146 343 Q128 359 111.5 375 Q95 391 82.5 409 Q70 427 62.5 447.5 Q55 468 55 492 L55 545 Z M75 112 Q75 93 79.5 74.5 Q84 56 94.5 41 Q105 26 122 17 Q139 8 163 8 Q187 8 204 17.5 Q221 27 231.5 42 Q242 57 246.5 75.5 Q251 94 251 112 L251 168 Q251 197 243.5 221 Q236 245 223.5 265 Q211 285 195 301 Q179 317 163 331 Q146 317 130.5 302 Q115 287 102.5 268 Q90 249 82.5 224.5 Q75 200 75 168 L75 112 Z M75 497 Q75 454 98 422 Q121 390 163 357 Q184 373 200 388 Q216 403 227.5 419.5 Q239 436 245 454.5 Q251 473 251 497 L251 553 Q251 571 246 589.5 Q241 608 230.5 623 Q220 638 203.5 647.5 Q187 657 163 657 Q139 657 122 648.5 Q105 640 94.5 625.5 Q84 611 79.5 592 Q75 573 75 553 L75 497 Z " />
<glyph glyph-name="nine.plf" unicode="&#xe030;" horiz-adv-x="326" d="M75 138 L75 132 Q75 108 79.5 85.5 Q84 63 94.5 46 Q105 29 122 18.5 Q139 8 163 8 Q187 8 203.5 18 Q220 28 230.5 45.5 Q241 63 246 85.5 Q251 108 251 132 L251 328 Q242 300 218.5 280.5 Q195 261 163 261 Q109 261 82 299.5 Q55 338 55 411 L55 527 Q55 599 82 637 Q109 675 163 675 Q217 675 244 636.5 Q271 598 271 525 L271 140 Q271 71 244 30.5 Q217 -10 163 -10 Q109 -10 82 26 Q55 62 55 131 L55 138 L75 138 Z M163 657 Q139 657 122 646.5 Q105 636 94.5 619 Q84 602 79.5 579.5 Q75 557 75 533 L75 403 Q75 381 79.5 359 Q84 337 94.5 319 Q105 301 122 290 Q139 279 163 279 Q186 279 202.5 290 Q219 301 230 319 Q241 337 246 359 Q251 381 251 403 L251 533 Q251 555 246 577 Q241 599 230.5 617 Q220 635 203.5 646 Q187 657 163 657 Z " />
<glyph glyph-name="zeroslash.plf" unicode="&#xe031;" horiz-adv-x="326" d="M271 140 Q271 67 244 28.5 Q217 -10 163 -10 Q109 -10 82 28.5 Q55 67 55 140 L55 525 Q55 598 82 636.5 Q109 675 163 675 Q217 675 244 636.5 Q271 598 271 525 L271 140 Z M251 533 Q251 546 249.5 559.5 Q248 573 244 585 L89 58 Q100 36 117.5 22 Q135 8 163 8 Q187 8 204 19 Q221 30 231.5 48 Q242 66 246.5 88 Q251 110 251 132 L251 533 Z M75 132 Q75 111 80 88 L235 611 Q224 631 206.5 644 Q189 657 163 657 Q139 657 122 646 Q105 635 94.5 617 Q84 599 79.5 577 Q75 555 75 533 L75 132 Z " />
<glyph glyph-name="numbersign.tlf" unicode="&#xe032;" horiz-adv-x="326" d="M65 480 L125 480 L157 665 L173 665 L142 480 L242 480 L274 665 L290 665 L259 480 L317 480 L317 462 L255 462 L212 213 L271 213 L271 195 L210 195 L176 0 L160 0 L193 195 L93 195 L58 0 L42 0 L76 195 L18 195 L18 213 L78 213 L122 462 L65 462 L65 480 Z M95 213 L195 213 L239 462 L138 462 L95 213 Z " />
<glyph glyph-name="Euro.tlf" unicode="&#xe033;" horiz-adv-x="326" d="M274 525 L274 533 Q274 555 269.5 577 Q265 599 254.5 617 Q244 635 227 646 Q210 657 186 657 Q162 657 145 646 Q128 635 117.5 617 Q107 599 102.5 577 Q98 555 98 533 L98 391 L261 391 L261 373 L98 373 L98 291 L261 291 L261 273 L98 273 L98 132 Q98 110 102.5 88 Q107 66 117.5 48 Q128 30 145 19 Q162 8 186 8 Q210 8 227 19 Q244 30 254.5 48 Q265 66 269.5 88 Q274 110 274 132 L274 140 L294 140 L294 134 Q294 66 267 28 Q240 -10 186 -10 Q132 -10 105 28.5 Q78 67 78 140 L78 273 L31 273 L31 291 L78 291 L78 373 L31 373 L31 391 L78 391 L78 525 Q78 598 105 636.5 Q132 675 186 675 Q240 675 267 636 Q294 597 294 531 L294 525 L274 525 Z " />
<glyph glyph-name="dollar.tlf" unicode="&#xe034;" horiz-adv-x="326" d="M60 541 Q60 562 65 584.5 Q70 607 81 626 Q92 645 109.5 658 Q127 671 152 674 L152 730 L172 730 L172 674 Q217 671 241 636 Q265 601 265 535 L265 527 L245 527 L245 533 Q245 555 241 577 Q237 599 228 617 Q219 635 203 646 Q187 657 163 657 Q127 657 103.5 627 Q80 597 80 552 Q80 520 82 496 Q84 472 92 452 Q100 432 115.5 413.5 Q131 395 158 373 Q180 355 199.5 335.5 Q219 316 233.5 293.5 Q248 271 256.5 244.5 Q265 218 265 184 L265 154 Q265 128 262 100 Q259 72 249 48.5 Q239 25 220.5 9 Q202 -7 172 -9 L172 -65 L152 -65 L152 -9 Q60 -1 60 130 L60 138 L80 138 L80 132 Q80 110 84 88 Q88 66 97.5 48 Q107 30 123 19 Q139 8 163 8 Q200 8 222.5 38 Q245 68 245 113 Q245 154 242.5 186.5 Q240 219 230 247.5 Q220 276 201 301.5 Q182 327 148 355 Q128 371 111.5 386.5 Q95 402 83.5 419.5 Q72 437 66 458.5 Q60 480 60 508 L60 541 Z " />
<glyph glyph-name="yen.tlf" unicode="&#xe035;" horiz-adv-x="326" d="M48 327 L147 327 L38 665 L58 665 L162 327 L164 327 L268 665 L288 665 L179 327 L278 327 L278 309 L173 309 L173 227 L278 227 L278 209 L173 209 L173 0 L153 0 L153 209 L48 209 L48 227 L153 227 L153 309 L48 309 L48 327 Z " />
<glyph glyph-name="sterling.tlf" unicode="&#xe036;" horiz-adv-x="326" d="M35 271 L75 271 L75 525 Q75 598 102 636.5 Q129 675 183 675 Q237 675 264 636 Q291 597 291 531 L291 525 L271 525 L271 533 Q271 555 266.5 577 Q262 599 251.5 617 Q241 635 224 646 Q207 657 183 657 Q159 657 142 645.5 Q125 634 114.5 616 Q104 598 99.5 575.5 Q95 553 95 531 L95 271 L245 271 L245 253 L95 253 L95 18 L291 18 L291 0 L35 0 L35 18 L75 18 L75 253 L35 253 L35 271 Z " />
<glyph glyph-name="cent.tlf" unicode="&#xe037;" horiz-adv-x="326" d="M153 -70 L153 -9 Q105 -5 85 33 Q65 71 65 142 L65 358 Q65 428 85 466.5 Q105 505 153 509 L153 570 L173 570 L173 509 Q219 505 239.5 469 Q260 433 260 367 L260 358 L242 358 L242 366 Q242 390 238.5 412.5 Q235 435 226.5 452.5 Q218 470 202.5 481 Q187 492 163 492 Q138 492 123 480.5 Q108 469 99.5 450.5 Q91 432 88 409.5 Q85 387 85 366 L85 134 Q85 113 88 90.5 Q91 68 99 50 Q107 32 122.5 20 Q138 8 163 8 Q188 8 203.5 19 Q219 30 227.5 48 Q236 66 239 88.5 Q242 111 242 134 L242 142 L260 142 L260 134 Q260 67 239.5 31 Q219 -5 173 -9 L173 -70 L153 -70 Z " />
<glyph glyph-name="florin.tlf" unicode="&#xe038;" horiz-adv-x="326" d="M173 144 Q173 69 151 29.5 Q129 -10 75 -10 Q49 -10 28.5 1.5 Q8 13 -3 33 L15 46 Q23 29 37.5 18.5 Q52 8 75 8 Q100 8 115 20 Q130 32 138.5 50.5 Q147 69 150 91.5 Q153 114 153 135 L153 521 Q153 596 175 635.5 Q197 675 251 675 Q277 675 297.5 663.5 Q318 652 329 632 L311 619 Q303 636 288.5 646.5 Q274 657 251 657 Q226 657 211 645 Q196 633 187.5 614.5 Q179 596 176 573.5 Q173 551 173 530 L173 375 L289 375 L289 357 L173 357 L173 144 Z " />
<glyph glyph-name="zero.tlf" unicode="&#xe039;" horiz-adv-x="326" d="M271 140 Q271 67 244 28.5 Q217 -10 163 -10 Q109 -10 82 28.5 Q55 67 55 140 L55 525 Q55 598 82 636.5 Q109 675 163 675 Q217 675 244 636.5 Q271 598 271 525 L271 140 Z M251 533 Q251 555 246.5 577 Q242 599 231.5 617 Q221 635 204 646 Q187 657 163 657 Q139 657 122 646 Q105 635 94.5 617 Q84 599 79.5 577 Q75 555 75 533 L75 132 Q75 110 79.5 88 Q84 66 94.5 48 Q105 30 122 19 Q139 8 163 8 Q187 8 204 19 Q221 30 231.5 48 Q242 66 246.5 88 Q251 110 251 132 L251 533 Z " />
<glyph glyph-name="one.tlf" unicode="&#xe03a;" horiz-adv-x="326" d="M194 0 L194 645 L73 552 L61 568 L189 665 L214 665 L214 0 L194 0 Z " />
<glyph glyph-name="two.tlf" unicode="&#xe03b;" horiz-adv-x="326" d="M55 525 L55 532 Q55 603 82 639 Q109 675 166 675 Q223 675 247 643.5 Q271 612 271 549 L271 520 Q271 493 265.5 467 Q260 441 250.5 412.5 Q241 384 226.5 352 Q212 320 194 281 L73 18 L271 18 L271 0 L56 0 L56 25 L175 285 Q212 365 231.5 419.5 Q251 474 251 520 L251 548 Q251 605 231 631 Q211 657 166 657 Q114 657 94.5 623 Q75 589 75 533 L75 525 L55 525 Z " />
<glyph glyph-name="three.tlf" unicode="&#xe03c;" horiz-adv-x="326" d="M251 533 Q251 555 246.5 577 Q242 599 231.5 617 Q221 635 204 646 Q187 657 163 657 Q139 657 122 646 Q105 635 94.5 617 Q84 599 79.5 577 Q75 555 75 533 L75 514 L55 514 L55 525 Q55 598 82 636.5 Q109 675 163 675 Q217 675 244 636.5 Q271 598 271 525 L271 492 Q271 439 253 402 Q235 365 203 353 L203 351 Q235 340 253 301.5 Q271 263 271 212 L271 140 Q271 67 244 28.5 Q217 -10 163 -10 Q109 -10 82 27.5 Q55 65 55 137 L55 151 L75 151 L75 132 Q75 110 79.5 88 Q84 66 94.5 48 Q105 30 122 19 Q139 8 163 8 Q187 8 204 19 Q221 30 231.5 48 Q242 66 246.5 88 Q251 110 251 132 L251 220 Q251 239 246 261 Q241 283 231.5 301 Q222 319 207 331 Q192 343 172 343 L135 343 L135 361 L172 361 Q192 361 207 373 Q222 385 231.5 403 Q241 421 246 442.5 Q251 464 251 484 L251 533 Z " />
<glyph glyph-name="four.tlf" unicode="&#xe03d;" horiz-adv-x="326" d="M241 160 L45 160 L45 185 L237 665 L257 665 L63 178 L241 178 L241 330 L261 330 L261 0 L241 0 L241 160 Z " />
<glyph glyph-name="five.tlf" unicode="&#xe03e;" horiz-adv-x="326" d="M55 665 L271 665 L271 647 L75 647 L75 369 Q87 394 111 417 Q135 440 173 440 Q218 440 244.5 401 Q271 362 271 292 L271 140 Q271 67 244 28.5 Q217 -10 163 -10 Q109 -10 82 27.5 Q55 65 55 137 L55 151 L75 151 L75 132 Q75 110 79.5 88 Q84 66 94.5 48 Q105 30 122 19 Q139 8 163 8 Q187 8 204 19 Q221 30 231.5 48 Q242 66 246.5 88 Q251 110 251 132 L251 300 Q251 322 246.5 343.5 Q242 365 232.5 382.5 Q223 400 208 411 Q193 422 173 422 Q154 422 139 414.5 Q124 407 112.5 395.5 Q101 384 93 371 Q85 358 80 347 L55 347 L55 665 Z " />
<glyph glyph-name="six.tlf" unicode="&#xe03f;" horiz-adv-x="326" d="M251 527 L251 533 Q251 557 246.5 579.5 Q242 602 231.5 619 Q221 636 204 646.5 Q187 657 163 657 Q139 657 122 646 Q105 635 94.5 617 Q84 599 79.5 577 Q75 555 75 533 L75 337 Q84 365 107.5 384.5 Q131 404 163 404 Q217 404 244 365.5 Q271 327 271 254 L271 138 Q271 66 244 28 Q217 -10 163 -10 Q109 -10 82 28.5 Q55 67 55 140 L55 525 Q55 598 82 636.5 Q109 675 163 675 Q216 675 243.5 639.5 Q271 604 271 534 L271 527 L251 527 Z M163 8 Q187 8 204 18.5 Q221 29 231.5 46 Q242 63 246.5 85.5 Q251 108 251 132 L251 262 Q251 284 246.5 306 Q242 328 231.5 346 Q221 364 204 375 Q187 386 163 386 Q140 386 123.5 375 Q107 364 96 346 Q85 328 80 306 Q75 284 75 262 L75 132 Q75 110 79.5 88 Q84 66 94.5 48 Q105 30 122 19 Q139 8 163 8 Z " />
<glyph glyph-name="seven.tlf" unicode="&#xe040;" horiz-adv-x="326" d="M79 0 L263 647 L46 647 L46 665 L280 665 L280 640 L99 0 L79 0 Z " />
<glyph glyph-name="eight.tlf" unicode="&#xe041;" horiz-adv-x="326" d="M55 545 Q55 608 82 641.5 Q109 675 163 675 Q217 675 244 641.5 Q271 608 271 545 L271 487 Q271 463 263.5 443.5 Q256 424 243 407.5 Q230 391 213.5 375.5 Q197 360 178 344 Q196 328 212.5 310.5 Q229 293 242 272.5 Q255 252 263 227.5 Q271 203 271 174 L271 120 Q271 60 244 25 Q217 -10 163 -10 Q107 -10 81 23 Q55 56 55 120 L55 178 Q55 207 62.5 230.5 Q70 254 83 274 Q96 294 112.5 310.5 Q129 327 146 343 Q128 359 111.5 375 Q95 391 82.5 409 Q70 427 62.5 447.5 Q55 468 55 492 L55 545 Z M75 112 Q75 93 79.5 74.5 Q84 56 94.5 41 Q105 26 122 17 Q139 8 163 8 Q187 8 204 17.5 Q221 27 231.5 42 Q242 57 246.5 75.5 Q251 94 251 112 L251 168 Q251 197 243.5 221 Q236 245 223.5 265 Q211 285 195 301 Q179 317 163 331 Q146 317 130.5 302 Q115 287 102.5 268 Q90 249 82.5 224.5 Q75 200 75 168 L75 112 Z M75 497 Q75 454 98 422 Q121 390 163 357 Q184 373 200 388 Q216 403 227.5 419.5 Q239 436 245 454.5 Q251 473 251 497 L251 553 Q251 571 246 589.5 Q241 608 230.5 623 Q220 638 203.5 647.5 Q187 657 163 657 Q139 657 122 648.5 Q105 640 94.5 625.5 Q84 611 79.5 592 Q75 573 75 553 L75 497 Z " />
<glyph glyph-name="nine.tlf" unicode="&#xe042;" horiz-adv-x="326" d="M75 138 L75 132 Q75 108 79.5 85.5 Q84 63 94.5 46 Q105 29 122 18.5 Q139 8 163 8 Q187 8 203.5 18 Q220 28 230.5 45.5 Q241 63 246 85.5 Q251 108 251 132 L251 328 Q242 300 218.5 280.5 Q195 261 163 261 Q109 261 82 299.5 Q55 338 55 411 L55 527 Q55 599 82 637 Q109 675 163 675 Q217 675 244 636.5 Q271 598 271 525 L271 140 Q271 71 244 30.5 Q217 -10 163 -10 Q109 -10 82 26 Q55 62 55 131 L55 138 L75 138 Z M163 657 Q139 657 122 646.5 Q105 636 94.5 619 Q84 602 79.5 579.5 Q75 557 75 533 L75 403 Q75 381 79.5 359 Q84 337 94.5 319 Q105 301 122 290 Q139 279 163 279 Q186 279 202.5 290 Q219 301 230 319 Q241 337 246 359 Q251 381 251 403 L251 533 Q251 555 246 577 Q241 599 230.5 617 Q220 635 203.5 646 Q187 657 163 657 Z " />
<glyph glyph-name="zeroslash.tlf" unicode="&#xe043;" horiz-adv-x="326" d="M271 140 Q271 67 244 28.5 Q217 -10 163 -10 Q109 -10 82 28.5 Q55 67 55 140 L55 525 Q55 598 82 636.5 Q109 675 163 675 Q217 675 244 636.5 Q271 598 271 525 L271 140 Z M251 533 Q251 546 249.5 559.5 Q248 573 244 585 L89 58 Q100 36 117.5 22 Q135 8 163 8 Q187 8 204 19 Q221 30 231.5 48 Q242 66 246.5 88 Q251 110 251 132 L251 533 Z M75 132 Q75 111 80 88 L235 611 Q224 631 206.5 644 Q189 657 163 657 Q139 657 122 646 Q105 635 94.5 617 Q84 599 79.5 577 Q75 555 75 533 L75 132 Z " />
<glyph glyph-name="numbersign.tosf" unicode="&#xe044;" horiz-adv-x="326" d="M48 350 L118 350 L144 500 L160 500 L135 350 L230 350 L256 500 L272 500 L247 350 L315 350 L315 332 L243 332 L215 168 L283 168 L283 150 L212 150 L186 0 L170 0 L195 150 L100 150 L73 0 L57 0 L83 150 L15 150 L15 168 L86 168 L115 332 L48 332 L48 350 Z M103 168 L198 168 L227 332 L131 332 L103 168 Z " />
<glyph glyph-name="Euro.tosf" unicode="&#xe045;" horiz-adv-x="326" d="M273 360 L273 368 Q273 390 268.5 412 Q264 434 253.5 452 Q243 470 226 481 Q209 492 185 492 Q161 492 144 481 Q127 470 116.5 452 Q106 434 101.5 412 Q97 390 97 368 L97 309 L240 309 L240 291 L97 291 L97 209 L240 209 L240 191 L97 191 L97 132 Q97 110 101.5 88 Q106 66 116.5 48 Q127 30 144 19 Q161 8 185 8 Q209 8 226 19 Q243 30 253.5 48 Q264 66 268.5 88 Q273 110 273 132 L273 140 L293 140 L293 134 Q293 66 266 28 Q239 -10 185 -10 Q131 -10 104 28.5 Q77 67 77 140 L77 191 L30 191 L30 209 L77 209 L77 291 L30 291 L30 309 L77 309 L77 360 Q77 433 104 471.5 Q131 510 185 510 Q239 510 266 471 Q293 432 293 366 L293 360 L273 360 Z " />
<glyph glyph-name="dollar.tosf" unicode="&#xe046;" horiz-adv-x="326" d="M90 142 L90 134 Q90 113 93 90.5 Q96 68 104 50 Q112 32 127.5 20 Q143 8 168 8 Q205 8 225.5 39 Q246 70 246 115 Q246 162 227.5 197.5 Q209 233 162 262 Q141 276 124 290 Q107 304 95 321 Q83 338 76.5 358 Q70 378 70 404 Q70 443 91.5 474 Q113 505 158 509 L158 565 L178 565 L178 509 Q224 506 244.5 469.5 Q265 433 265 367 L265 358 L245 358 L245 366 Q245 388 242 410.5 Q239 433 231 451 Q223 469 208 480.5 Q193 492 168 492 Q146 492 131 484 Q116 476 107 464 Q98 452 94 437 Q90 422 90 408 Q90 381 96 363 Q102 345 114.5 330 Q127 315 147 300.5 Q167 286 195 265 Q230 236 247.5 201.5 Q265 167 265 119 Q265 97 260.5 75 Q256 53 245.5 35 Q235 17 218.5 5 Q202 -7 178 -9 L178 -65 L158 -65 L158 -9 Q111 -5 90.5 31 Q70 67 70 134 L70 142 L90 142 Z " />
<glyph glyph-name="yen.tosf" unicode="&#xe047;" horiz-adv-x="326" d="M48 212 L146 212 L38 500 L58 500 L162 212 L164 212 L268 500 L288 500 L180 212 L278 212 L278 194 L173 194 L173 112 L278 112 L278 94 L173 94 L173 0 L153 0 L153 94 L48 94 L48 112 L153 112 L153 194 L48 194 L48 212 Z " />
<glyph glyph-name="sterling.tosf" unicode="&#xe048;" horiz-adv-x="326" d="M40 206 L80 206 L80 360 Q80 433 107 471.5 Q134 510 188 510 Q242 510 269 471 Q296 432 296 366 L296 360 L276 360 L276 368 Q276 390 271.5 412 Q267 434 256.5 452 Q246 470 229 481 Q212 492 188 492 Q164 492 147 480.5 Q130 469 119.5 451 Q109 433 104.5 410.5 Q100 388 100 366 L100 206 L230 206 L230 188 L100 188 L100 18 L296 18 L296 0 L40 0 L40 18 L80 18 L80 188 L40 188 L40 206 Z " />
<glyph glyph-name="cent.tosf" unicode="&#xe049;" horiz-adv-x="326" d="M162 -70 L162 -9 Q114 -5 94 33 Q74 71 74 142 L74 278 Q74 348 94 386.5 Q114 425 162 429 L162 490 L182 490 L182 429 Q228 425 248.5 390 Q269 355 269 302 L269 298 L251 298 L251 301 Q251 318 247.5 337.5 Q244 357 235 373.5 Q226 390 211 401 Q196 412 172 412 Q147 412 132 400.5 Q117 389 108.5 370.5 Q100 352 97 329.5 Q94 307 94 286 L94 134 Q94 113 97 90.5 Q100 68 108 50 Q116 32 131.5 20 Q147 8 172 8 Q196 8 211 18.5 Q226 29 235 45 Q244 61 247.5 81 Q251 101 251 119 L251 122 L269 122 Q269 66 249 30.5 Q229 -5 182 -9 L182 -70 L162 -70 Z " />
<glyph glyph-name="florin.tosf" unicode="&#xe04a;" horiz-adv-x="326" d="M36 8 Q61 8 76 20 Q91 32 99.5 50.5 Q108 69 111 91.5 Q114 114 114 135 L114 346 Q114 421 136 460.5 Q158 500 212 500 Q238 500 258.5 488.5 Q279 477 290 457 L272 444 Q264 461 249.5 471.5 Q235 482 212 482 Q187 482 172 470 Q157 458 148.5 439.5 Q140 421 137 398.5 Q134 376 134 355 L134 285 L250 285 L250 267 L134 267 L134 144 Q134 69 112 29.5 Q90 -10 36 -10 L36 8 Z " />
<glyph glyph-name="zero.tosf" unicode="&#xe04b;" horiz-adv-x="326" d="M271 140 Q271 67 244 28.5 Q217 -10 163 -10 Q109 -10 82 28.5 Q55 67 55 140 L55 360 Q55 433 82 471.5 Q109 510 163 510 Q217 510 244 471.5 Q271 433 271 360 L271 140 Z M251 368 Q251 390 246.5 412 Q242 434 231.5 452 Q221 470 204 481 Q187 492 163 492 Q139 492 122 481 Q105 470 94.5 452 Q84 434 79.5 412 Q75 390 75 368 L75 132 Q75 110 79.5 88 Q84 66 94.5 48 Q105 30 122 19 Q139 8 163 8 Q187 8 204 19 Q221 30 231.5 48 Q242 66 246.5 88 Q251 110 251 132 L251 368 Z " />
<glyph glyph-name="one.tosf" unicode="&#xe04c;" horiz-adv-x="326" d="M199 0 L199 480 L78 387 L66 403 L194 500 L219 500 L219 0 L199 0 Z " />
<glyph glyph-name="two.tosf" unicode="&#xe04d;" horiz-adv-x="326" d="M55 360 L55 367 Q55 438 82 474 Q109 510 166 510 Q223 510 247 481.5 Q271 453 271 396 L271 368 Q271 344 269 326 Q267 308 259.5 289.5 Q252 271 237.5 248 Q223 225 198 190 L75 18 L271 18 L271 0 L56 0 L56 25 L178 195 Q204 231 218.5 253.5 Q233 276 240.5 293.5 Q248 311 249.5 327.5 Q251 344 251 367 L251 393 Q251 443 231 467.5 Q211 492 166 492 Q114 492 94.5 458 Q75 424 75 368 L75 360 L55 360 Z " />
<glyph glyph-name="three.tosf" unicode="&#xe04e;" horiz-adv-x="326" d="M251 368 Q251 390 246.5 412 Q242 434 231.5 452 Q221 470 204 481 Q187 492 163 492 Q139 492 122 481 Q105 470 94.5 452 Q84 434 79.5 412 Q75 390 75 368 L75 349 L55 349 L55 360 Q55 433 82 471.5 Q109 510 163 510 Q217 510 244 471.5 Q271 433 271 360 L271 317 Q271 264 253 227 Q235 190 203 178 L203 176 Q235 165 253 126.5 Q271 88 271 37 L271 -60 Q271 -133 244 -171.5 Q217 -210 163 -210 Q109 -210 82 -172.5 Q55 -135 55 -63 L55 -49 L75 -49 L75 -68 Q75 -90 79.5 -112 Q84 -134 94.5 -152 Q105 -170 122 -181 Q139 -192 163 -192 Q187 -192 204 -181 Q221 -170 231.5 -152 Q242 -134 246.5 -112 Q251 -90 251 -68 L251 45 Q251 64 246 86 Q241 108 231.5 126 Q222 144 207 156 Q192 168 172 168 L135 168 L135 186 L172 186 Q192 186 207 198 Q222 210 231.5 228 Q241 246 246 267.5 Q251 289 251 309 L251 368 Z " />
<glyph glyph-name="four.tosf" unicode="&#xe04f;" horiz-adv-x="326" d="M246 0 L50 0 L50 25 L242 500 L262 500 L68 18 L246 18 L246 170 L266 170 L266 -150 L246 -150 L246 0 Z " />
<glyph glyph-name="five.tosf" unicode="&#xe050;" horiz-adv-x="326" d="M55 500 L271 500 L271 482 L75 482 L75 191 Q87 216 111 239 Q135 262 173 262 Q218 262 244.5 223 Q271 184 271 114 L271 -60 Q271 -133 244 -171.5 Q217 -210 163 -210 Q109 -210 82 -172.5 Q55 -135 55 -63 L55 -49 L75 -49 L75 -68 Q75 -90 79.5 -112 Q84 -134 94.5 -152 Q105 -170 122 -181 Q139 -192 163 -192 Q187 -192 204 -181 Q221 -170 231.5 -152 Q242 -134 246.5 -112 Q251 -90 251 -68 L251 122 Q251 144 246.5 165.5 Q242 187 232.5 204.5 Q223 222 208 233 Q193 244 173 244 Q154 244 139 236.5 Q124 229 112.5 217.5 Q101 206 93 193 Q85 180 80 169 L55 169 L55 500 Z " />
<glyph glyph-name="six.tosf" unicode="&#xe051;" horiz-adv-x="326" d="M251 527 L251 533 Q251 557 246.5 579.5 Q242 602 231.5 619 Q221 636 204 646.5 Q187 657 163 657 Q139 657 122 646 Q105 635 94.5 617 Q84 599 79.5 577 Q75 555 75 533 L75 337 Q84 365 107.5 384.5 Q131 404 163 404 Q217 404 244 365.5 Q271 327 271 254 L271 138 Q271 66 244 28 Q217 -10 163 -10 Q109 -10 82 28.5 Q55 67 55 140 L55 525 Q55 598 82 636.5 Q109 675 163 675 Q216 675 243.5 639.5 Q271 604 271 534 L271 527 L251 527 Z M163 8 Q187 8 204 18.5 Q221 29 231.5 46 Q242 63 246.5 85.5 Q251 108 251 132 L251 262 Q251 284 246.5 306 Q242 328 231.5 346 Q221 364 204 375 Q187 386 163 386 Q140 386 123.5 375 Q107 364 96 346 Q85 328 80 306 Q75 284 75 262 L75 132 Q75 110 79.5 88 Q84 66 94.5 48 Q105 30 122 19 Q139 8 163 8 Z " />
<glyph glyph-name="seven.tosf" unicode="&#xe052;" horiz-adv-x="326" d="M68 -150 L252 482 L35 482 L35 500 L269 500 L269 475 L88 -150 L68 -150 Z " />
<glyph glyph-name="eight.tosf" unicode="&#xe053;" horiz-adv-x="326" d="M55 545 Q55 608 82 641.5 Q109 675 163 675 Q217 675 244 641.5 Q271 608 271 545 L271 487 Q271 463 263.5 443.5 Q256 424 243 407.5 Q230 391 213.5 375.5 Q197 360 178 344 Q196 328 212.5 310.5 Q229 293 242 272.5 Q255 252 263 227.5 Q271 203 271 174 L271 120 Q271 60 244 25 Q217 -10 163 -10 Q107 -10 81 23 Q55 56 55 120 L55 178 Q55 207 62.5 230.5 Q70 254 83 274 Q96 294 112.5 310.5 Q129 327 146 343 Q128 359 111.5 375 Q95 391 82.5 409 Q70 427 62.5 447.5 Q55 468 55 492 L55 545 Z M75 112 Q75 93 79.5 74.5 Q84 56 94.5 41 Q105 26 122 17 Q139 8 163 8 Q187 8 204 17.5 Q221 27 231.5 42 Q242 57 246.5 75.5 Q251 94 251 112 L251 168 Q251 197 243.5 221 Q236 245 223.5 265 Q211 285 195 301 Q179 317 163 331 Q146 317 130.5 302 Q115 287 102.5 268 Q90 249 82.5 224.5 Q75 200 75 168 L75 112 Z M75 497 Q75 454 98 422 Q121 390 163 357 Q184 373 200 388 Q216 403 227.5 419.5 Q239 436 245 454.5 Q251 473 251 497 L251 553 Q251 571 246 589.5 Q241 608 230.5 623 Q220 638 203.5 647.5 Q187 657 163 657 Q139 657 122 648.5 Q105 640 94.5 625.5 Q84 611 79.5 592 Q75 573 75 553 L75 497 Z " />
<glyph glyph-name="nine.tosf" unicode="&#xe054;" horiz-adv-x="326" d="M75 -62 L75 -68 Q75 -92 79.5 -114.5 Q84 -137 94.5 -154 Q105 -171 122 -181.5 Q139 -192 163 -192 Q187 -192 203.5 -182 Q220 -172 230.5 -154.5 Q241 -137 246 -114.5 Q251 -92 251 -68 L251 143 Q242 115 218.5 95.5 Q195 76 163 76 Q109 76 82 114.5 Q55 153 55 226 L55 362 Q55 434 82 472 Q109 510 163 510 Q217 510 244 471.5 Q271 433 271 360 L271 -60 Q271 -129 244 -169.5 Q217 -210 163 -210 Q109 -210 82 -174 Q55 -138 55 -69 L55 -62 L75 -62 Z M163 492 Q139 492 122 481.5 Q105 471 94.5 454 Q84 437 79.5 414.5 Q75 392 75 368 L75 218 Q75 196 79.5 174 Q84 152 94.5 134 Q105 116 122 105 Q139 94 163 94 Q186 94 202.5 105 Q219 116 230 134 Q241 152 246 174 Q251 196 251 218 L251 368 Q251 390 246 412 Q241 434 230.5 452 Q220 470 203.5 481 Q187 492 163 492 Z " />
<glyph glyph-name="zeroslash.tosf" unicode="&#xe055;" horiz-adv-x="326" d="M271 140 Q271 67 244 28.5 Q217 -10 163 -10 Q109 -10 82 28.5 Q55 67 55 140 L55 360 Q55 433 82 471.5 Q109 510 163 510 Q217 510 244 471.5 Q271 433 271 360 L271 140 Z M251 368 Q251 385 248.5 401.5 Q246 418 240 433 L94 49 Q105 31 121.5 19.5 Q138 8 163 8 Q187 8 204 19 Q221 30 231.5 48 Q242 66 246.5 88 Q251 110 251 132 L251 368 Z M75 132 Q75 99 85 70 L231 453 Q220 470 203.5 481 Q187 492 163 492 Q139 492 122 481 Q105 470 94.5 452 Q84 434 79.5 412 Q75 390 75 368 L75 132 Z " />
<glyph glyph-name="numbersign.posf" unicode="&#xe056;" horiz-adv-x="356" d="M64 350 L135 350 L174 500 L190 500 L152 350 L257 350 L296 500 L312 500 L274 350 L341 350 L341 332 L269 332 L226 168 L293 168 L293 150 L222 150 L183 0 L167 0 L205 150 L100 150 L60 0 L44 0 L83 150 L15 150 L15 168 L87 168 L131 332 L64 332 L64 350 Z M104 168 L209 168 L253 332 L147 332 L104 168 Z " />
<glyph glyph-name="Euro.posf" unicode="&#xe057;" horiz-adv-x="348" d="M283 360 L283 368 Q283 390 278.5 412 Q274 434 263.5 452 Q253 470 236 481 Q219 492 195 492 Q171 492 154 481 Q137 470 126.5 452 Q116 434 111.5 412 Q107 390 107 368 L107 309 L250 309 L250 291 L107 291 L107 209 L250 209 L250 191 L107 191 L107 132 Q107 110 111.5 88 Q116 66 126.5 48 Q137 30 154 19 Q171 8 195 8 Q219 8 236 19 Q253 30 263.5 48 Q274 66 278.5 88 Q283 110 283 132 L283 140 L303 140 L303 134 Q303 66 276 28 Q249 -10 195 -10 Q141 -10 114 28.5 Q87 67 87 140 L87 191 L40 191 L40 209 L87 209 L87 291 L40 291 L40 309 L87 309 L87 360 Q87 433 114 471.5 Q141 510 195 510 Q249 510 276 471 Q303 432 303 366 L303 360 L283 360 Z " />
<glyph glyph-name="dollar.posf" unicode="&#xe058;" horiz-adv-x="285" d="M65 142 L65 134 Q65 113 68 90.5 Q71 68 79 50 Q87 32 102.5 20 Q118 8 143 8 Q180 8 200.5 39 Q221 70 221 115 Q221 162 202.5 197.5 Q184 233 137 262 Q116 276 99 290 Q82 304 70 321 Q58 338 51.5 358 Q45 378 45 404 Q45 443 66.5 474 Q88 505 133 509 L133 565 L153 565 L153 509 Q199 506 219.5 469.5 Q240 433 240 367 L240 358 L220 358 L220 366 Q220 388 217 410.5 Q214 433 206 451 Q198 469 183 480.5 Q168 492 143 492 Q121 492 106 484 Q91 476 82 464 Q73 452 69 437 Q65 422 65 408 Q65 381 71 363 Q77 345 89.5 330 Q102 315 122 300.5 Q142 286 170 265 Q205 236 222.5 201.5 Q240 167 240 119 Q240 97 235.5 75 Q231 53 220.5 35 Q210 17 193.5 5 Q177 -7 153 -9 L153 -65 L133 -65 L133 -9 Q86 -5 65.5 31 Q45 67 45 134 L45 142 L65 142 Z " />
<glyph glyph-name="yen.posf" unicode="&#xe059;" horiz-adv-x="330" d="M50 212 L148 212 L40 500 L60 500 L164 212 L166 212 L270 500 L290 500 L182 212 L280 212 L280 194 L175 194 L175 112 L280 112 L280 94 L175 94 L175 0 L155 0 L155 94 L50 94 L50 112 L155 112 L155 194 L50 194 L50 212 Z " />
<glyph glyph-name="sterling.posf" unicode="&#xe05a;" horiz-adv-x="336" d="M40 206 L80 206 L80 360 Q80 433 107 471.5 Q134 510 188 510 Q242 510 269 471 Q296 432 296 366 L296 360 L276 360 L276 368 Q276 390 271.5 412 Q267 434 256.5 452 Q246 470 229 481 Q212 492 188 492 Q164 492 147 480.5 Q130 469 119.5 451 Q109 433 104.5 410.5 Q100 388 100 366 L100 206 L230 206 L230 188 L100 188 L100 18 L296 18 L296 0 L40 0 L40 18 L80 18 L80 188 L40 188 L40 206 Z " />
<glyph glyph-name="cent.posf" unicode="&#xe05b;" horiz-adv-x="295" d="M143 -70 L143 -9 Q95 -5 75 33 Q55 71 55 142 L55 278 Q55 348 75 386.5 Q95 425 143 429 L143 490 L163 490 L163 429 Q209 425 229.5 390 Q250 355 250 302 L250 298 L232 298 L232 301 Q232 318 228.5 337.5 Q225 357 216 373.5 Q207 390 192 401 Q177 412 153 412 Q128 412 113 400.5 Q98 389 89.5 370.5 Q81 352 78 329.5 Q75 307 75 286 L75 134 Q75 113 78 90.5 Q81 68 89 50 Q97 32 112.5 20 Q128 8 153 8 Q177 8 192 18.5 Q207 29 216 45 Q225 61 228.5 81 Q232 101 232 119 L232 122 L250 122 Q250 66 230 30.5 Q210 -5 163 -9 L163 -70 L143 -70 Z " />
<glyph glyph-name="florin.posf" unicode="&#xe05c;" horiz-adv-x="294" d="M25 8 Q50 8 65 20 Q80 32 88.5 50.5 Q97 69 100 91.5 Q103 114 103 135 L103 346 Q103 421 125 460.5 Q147 500 201 500 Q227 500 247.5 488.5 Q268 477 279 457 L261 444 Q253 461 238.5 471.5 Q224 482 201 482 Q176 482 161 470 Q146 458 137.5 439.5 Q129 421 126 398.5 Q123 376 123 355 L123 285 L239 285 L239 267 L123 267 L123 144 Q123 69 101 29.5 Q79 -10 25 -10 L25 8 Z " />
<glyph glyph-name="zero.posf" unicode="&#xe05d;" horiz-adv-x="326" d="M271 140 Q271 67 244 28.5 Q217 -10 163 -10 Q109 -10 82 28.5 Q55 67 55 140 L55 360 Q55 433 82 471.5 Q109 510 163 510 Q217 510 244 471.5 Q271 433 271 360 L271 140 Z M251 368 Q251 390 246.5 412 Q242 434 231.5 452 Q221 470 204 481 Q187 492 163 492 Q139 492 122 481 Q105 470 94.5 452 Q84 434 79.5 412 Q75 390 75 368 L75 132 Q75 110 79.5 88 Q84 66 94.5 48 Q105 30 122 19 Q139 8 163 8 Q187 8 204 19 Q221 30 231.5 48 Q242 66 246.5 88 Q251 110 251 132 L251 368 Z " />
<glyph glyph-name="one.posf" unicode="&#xe05e;" horiz-adv-x="253" d="M153 0 L153 480 L32 387 L20 403 L148 500 L173 500 L173 0 L153 0 Z " />
<glyph glyph-name="two.posf" unicode="&#xe05f;" horiz-adv-x="311" d="M40 360 L40 367 Q40 438 67 474 Q94 510 151 510 Q208 510 232 481.5 Q256 453 256 396 L256 368 Q256 344 254 326 Q252 308 244.5 289.5 Q237 271 222.5 248 Q208 225 183 190 L60 18 L256 18 L256 0 L41 0 L41 25 L163 195 Q189 231 203.5 253.5 Q218 276 225.5 293.5 Q233 311 234.5 327.5 Q236 344 236 367 L236 393 Q236 443 216 467.5 Q196 492 151 492 Q99 492 79.5 458 Q60 424 60 368 L60 360 L40 360 Z " />
<glyph glyph-name="three.posf" unicode="&#xe060;" horiz-adv-x="311" d="M236 368 Q236 390 231.5 412 Q227 434 216.5 452 Q206 470 189 481 Q172 492 148 492 Q124 492 107 481 Q90 470 79.5 452 Q69 434 64.5 412 Q60 390 60 368 L60 349 L40 349 L40 360 Q40 433 67 471.5 Q94 510 148 510 Q202 510 229 471.5 Q256 433 256 360 L256 317 Q256 264 238 227 Q220 190 188 178 L188 176 Q220 165 238 126.5 Q256 88 256 37 L256 -60 Q256 -133 229 -171.5 Q202 -210 148 -210 Q94 -210 67 -172.5 Q40 -135 40 -63 L40 -49 L60 -49 L60 -68 Q60 -90 64.5 -112 Q69 -134 79.5 -152 Q90 -170 107 -181 Q124 -192 148 -192 Q172 -192 189 -181 Q206 -170 216.5 -152 Q227 -134 231.5 -112 Q236 -90 236 -68 L236 45 Q236 64 231 86 Q226 108 216.5 126 Q207 144 192 156 Q177 168 157 168 L120 168 L120 186 L157 186 Q177 186 192 198 Q207 210 216.5 228 Q226 246 231 267.5 Q236 289 236 309 L236 368 Z " />
<glyph glyph-name="four.posf" unicode="&#xe061;" horiz-adv-x="291" d="M221 0 L25 0 L25 25 L217 500 L237 500 L43 18 L221 18 L221 170 L241 170 L241 -150 L221 -150 L221 0 Z " />
<glyph glyph-name="five.posf" unicode="&#xe062;" horiz-adv-x="321" d="M55 500 L271 500 L271 482 L75 482 L75 191 Q87 216 111 239 Q135 262 173 262 Q218 262 244.5 223 Q271 184 271 114 L271 -60 Q271 -133 244 -171.5 Q217 -210 163 -210 Q109 -210 82 -172.5 Q55 -135 55 -63 L55 -49 L75 -49 L75 -68 Q75 -90 79.5 -112 Q84 -134 94.5 -152 Q105 -170 122 -181 Q139 -192 163 -192 Q187 -192 204 -181 Q221 -170 231.5 -152 Q242 -134 246.5 -112 Q251 -90 251 -68 L251 122 Q251 144 246.5 165.5 Q242 187 232.5 204.5 Q223 222 208 233 Q193 244 173 244 Q154 244 139 236.5 Q124 229 112.5 217.5 Q101 206 93 193 Q85 180 80 169 L55 169 L55 500 Z " />
<glyph glyph-name="six.posf" unicode="&#xe063;" horiz-adv-x="326" d="M251 527 L251 533 Q251 557 246.5 579.5 Q242 602 231.5 619 Q221 636 204 646.5 Q187 657 163 657 Q139 657 122 646 Q105 635 94.5 617 Q84 599 79.5 577 Q75 555 75 533 L75 337 Q84 365 107.5 384.5 Q131 404 163 404 Q217 404 244 365.5 Q271 327 271 254 L271 138 Q271 66 244 28 Q217 -10 163 -10 Q109 -10 82 28.5 Q55 67 55 140 L55 525 Q55 598 82 636.5 Q109 675 163 675 Q216 675 243.5 639.5 Q271 604 271 534 L271 527 L251 527 Z M163 8 Q187 8 204 18.5 Q221 29 231.5 46 Q242 63 246.5 85.5 Q251 108 251 132 L251 262 Q251 284 246.5 306 Q242 328 231.5 346 Q221 364 204 375 Q187 386 163 386 Q140 386 123.5 375 Q107 364 96 346 Q85 328 80 306 Q75 284 75 262 L75 132 Q75 110 79.5 88 Q84 66 94.5 48 Q105 30 122 19 Q139 8 163 8 Z " />
<glyph glyph-name="seven.posf" unicode="&#xe064;" horiz-adv-x="279" d="M48 -150 L232 482 L15 482 L15 500 L249 500 L249 475 L68 -150 L48 -150 Z " />
<glyph glyph-name="eight.posf" unicode="&#xe065;" horiz-adv-x="326" d="M55 545 Q55 608 82 641.5 Q109 675 163 675 Q217 675 244 641.5 Q271 608 271 545 L271 487 Q271 463 263.5 443.5 Q256 424 243 407.5 Q230 391 213.5 375.5 Q197 360 178 344 Q196 328 212.5 310.5 Q229 293 242 272.5 Q255 252 263 227.5 Q271 203 271 174 L271 120 Q271 60 244 25 Q217 -10 163 -10 Q107 -10 81 23 Q55 56 55 120 L55 178 Q55 207 62.5 230.5 Q70 254 83 274 Q96 294 112.5 310.5 Q129 327 146 343 Q128 359 111.5 375 Q95 391 82.5 409 Q70 427 62.5 447.5 Q55 468 55 492 L55 545 Z M75 112 Q75 93 79.5 74.5 Q84 56 94.5 41 Q105 26 122 17 Q139 8 163 8 Q187 8 204 17.5 Q221 27 231.5 42 Q242 57 246.5 75.5 Q251 94 251 112 L251 168 Q251 197 243.5 221 Q236 245 223.5 265 Q211 285 195 301 Q179 317 163 331 Q146 317 130.5 302 Q115 287 102.5 268 Q90 249 82.5 224.5 Q75 200 75 168 L75 112 Z M75 497 Q75 454 98 422 Q121 390 163 357 Q184 373 200 388 Q216 403 227.5 419.5 Q239 436 245 454.5 Q251 473 251 497 L251 553 Q251 571 246 589.5 Q241 608 230.5 623 Q220 638 203.5 647.5 Q187 657 163 657 Q139 657 122 648.5 Q105 640 94.5 625.5 Q84 611 79.5 592 Q75 573 75 553 L75 497 Z " />
<glyph glyph-name="nine.posf" unicode="&#xe066;" horiz-adv-x="326" d="M75 -62 L75 -68 Q75 -92 79.5 -114.5 Q84 -137 94.5 -154 Q105 -171 122 -181.5 Q139 -192 163 -192 Q187 -192 203.5 -182 Q220 -172 230.5 -154.5 Q241 -137 246 -114.5 Q251 -92 251 -68 L251 143 Q242 115 218.5 95.5 Q195 76 163 76 Q109 76 82 114.5 Q55 153 55 226 L55 362 Q55 434 82 472 Q109 510 163 510 Q217 510 244 471.5 Q271 433 271 360 L271 -60 Q271 -129 244 -169.5 Q217 -210 163 -210 Q109 -210 82 -174 Q55 -138 55 -69 L55 -62 L75 -62 Z M163 492 Q139 492 122 481.5 Q105 471 94.5 454 Q84 437 79.5 414.5 Q75 392 75 368 L75 218 Q75 196 79.5 174 Q84 152 94.5 134 Q105 116 122 105 Q139 94 163 94 Q186 94 202.5 105 Q219 116 230 134 Q241 152 246 174 Q251 196 251 218 L251 368 Q251 390 246 412 Q241 434 230.5 452 Q220 470 203.5 481 Q187 492 163 492 Z " />
<glyph glyph-name="zeroslash.posf" unicode="&#xe067;" horiz-adv-x="326" d="M271 140 Q271 67 244 28.5 Q217 -10 163 -10 Q109 -10 82 28.5 Q55 67 55 140 L55 360 Q55 433 82 471.5 Q109 510 163 510 Q217 510 244 471.5 Q271 433 271 360 L271 140 Z M251 368 Q251 385 248.5 401.5 Q246 418 240 433 L94 49 Q105 31 121.5 19.5 Q138 8 163 8 Q187 8 204 19 Q221 30 231.5 48 Q242 66 246.5 88 Q251 110 251 132 L251 368 Z M75 132 Q75 99 85 70 L231 453 Q220 470 203.5 481 Q187 492 163 492 Q139 492 122 481 Q105 470 94.5 452 Q84 434 79.5 412 Q75 390 75 368 L75 132 Z " />
<glyph glyph-name="degree" unicode="&#xb0;" horiz-adv-x="235" d="M56 628 Q56 602 73 582.5 Q90 563 118 563 Q146 563 163 582.5 Q180 602 180 628 Q180 655 163 673.5 Q146 692 118 692 Q90 692 73 673.5 Q56 655 56 628 Z M36 628 Q36 663 59 686.5 Q82 710 118 710 Q154 710 177 686.5 Q200 663 200 628 Q200 593 177 569 Q154 545 118 545 Q82 545 59 569 Q36 593 36 628 Z " />
<glyph glyph-name="percent" unicode="&#x25;" horiz-adv-x="555" d="M191 356 Q191 311 173 287.5 Q155 264 119 264 Q84 264 66 287.5 Q48 311 48 356 L48 583 Q48 628 66 651.5 Q84 675 119 675 Q155 675 173 651.5 Q191 628 191 583 L191 356 Z M172 588 Q172 613 160 635.5 Q148 658 119 658 Q105 658 95 651.5 Q85 645 79 635 Q73 625 70 612.5 Q67 600 67 588 L67 351 Q67 339 70 326.5 Q73 314 79 304 Q85 294 95 287.5 Q105 281 119 281 Q148 281 160 303.5 Q172 326 172 351 L172 588 Z M149 0 L129 0 L407 665 L426 665 L149 0 Z M507 86 Q507 41 489 17.5 Q471 -6 435 -6 Q400 -6 382 17.5 Q364 41 364 86 L364 313 Q364 358 382 381.5 Q400 405 435 405 Q471 405 489 381.5 Q507 358 507 313 L507 86 Z M488 318 Q488 343 476 365.5 Q464 388 435 388 Q421 388 411 381.5 Q401 375 395 365 Q389 355 386 342.5 Q383 330 383 318 L383 81 Q383 69 386 56.5 Q389 44 395 34 Q401 24 411 17.5 Q421 11 435 11 Q464 11 476 33.5 Q488 56 488 81 L488 318 Z " />
<glyph glyph-name="perthousand" unicode="&#x2030;" horiz-adv-x="749" d="M191 356 Q191 311 173 287.5 Q155 264 119 264 Q84 264 66 287.5 Q48 311 48 356 L48 583 Q48 628 66 651.5 Q84 675 119 675 Q155 675 173 651.5 Q191 628 191 583 L191 356 Z M172 588 Q172 613 160 635.5 Q148 658 119 658 Q105 658 95 651.5 Q85 645 79 635 Q73 625 70 612.5 Q67 600 67 588 L67 351 Q67 339 70 326.5 Q73 314 79 304 Q85 294 95 287.5 Q105 281 119 281 Q148 281 160 303.5 Q172 326 172 351 L172 588 Z M494 82 Q494 37 476 13.5 Q458 -10 422 -10 Q387 -10 369 13.5 Q351 37 351 82 L351 309 Q351 354 369 377.5 Q387 401 422 401 Q458 401 476 377.5 Q494 354 494 309 L494 82 Z M475 314 Q475 339 463 361.5 Q451 384 422 384 Q408 384 398 377.5 Q388 371 382 361 Q376 351 373 338.5 Q370 326 370 314 L370 77 Q370 65 373 52.5 Q376 40 382 30 Q388 20 398 13.5 Q408 7 422 7 Q451 7 463 29.5 Q475 52 475 77 L475 314 Z M145 0 L125 0 L403 665 L422 665 L145 0 Z M701 82 Q701 37 683 13.5 Q665 -10 629 -10 Q594 -10 576 13.5 Q558 37 558 82 L558 309 Q558 354 576 377.5 Q594 401 629 401 Q665 401 683 377.5 Q701 354 701 309 L701 82 Z M682 314 Q682 339 670 361.5 Q658 384 629 384 Q615 384 605 377.5 Q595 371 589 361 Q583 351 580 338.5 Q577 326 577 314 L577 77 Q577 65 580 52.5 Q583 40 589 30 Q595 20 605 13.5 Q615 7 629 7 Q658 7 670 29.5 Q682 52 682 77 L682 314 Z " />
<glyph glyph-name="fraction" unicode="&#x2044;" horiz-adv-x="77" d="M-90 0 L-110 0 L168 665 L187 665 L-90 0 Z " />
<glyph glyph-name="uni2215" unicode="&#x2215;" horiz-adv-x="77" d="M-90 0 L-110 0 L168 665 L187 665 L-90 0 Z " />
<glyph glyph-name="zerosuperior" unicode="&#x2070;" horiz-adv-x="239" d="M191 356 Q191 311 173 287.5 Q155 264 119 264 Q84 264 66 287.5 Q48 311 48 356 L48 583 Q48 628 66 651.5 Q84 675 119 675 Q155 675 173 651.5 Q191 628 191 583 L191 356 Z M172 588 Q172 613 160 635.5 Q148 658 119 658 Q105 658 95 651.5 Q85 645 79 635 Q73 625 70 612.5 Q67 600 67 588 L67 351 Q67 339 70 326.5 Q73 314 79 304 Q85 294 95 287.5 Q105 281 119 281 Q148 281 160 303.5 Q172 326 172 351 L172 588 Z " />
<glyph glyph-name="onesuperior" unicode="&#xb9;" horiz-adv-x="239" d="M139 270 L139 649 L49 594 L38 610 L134 669 L160 669 L160 270 L139 270 Z " />
<glyph glyph-name="twosuperior" unicode="&#xb2;" horiz-adv-x="239" d="M46 582 L46 587 Q46 675 123 675 Q161 675 178 655 Q195 635 195 596 L195 579 Q195 547 181 515.5 Q167 484 144 439 L65 287 L195 287 L195 270 L47 270 L47 292 L123 439 Q148 488 162 520 Q176 552 176 579 L176 595 Q176 628 163.5 643 Q151 658 123 658 Q91 658 78.5 639 Q66 620 66 588 L66 582 L46 582 Z " />
<glyph glyph-name="threesuperior" unicode="&#xb3;" horiz-adv-x="239" d="M169 588 Q169 613 156.5 635.5 Q144 658 115 658 Q86 658 73.5 635.5 Q61 613 61 588 L61 576 L42 576 L42 583 Q42 628 60 651.5 Q78 675 115 675 Q151 675 169.5 652 Q188 629 188 586 L188 565 Q188 533 176 511.5 Q164 490 144 482 L144 481 Q164 474 176 451 Q188 428 188 398 L188 354 Q188 264 115 264 Q42 264 42 354 L42 363 L61 363 L61 351 Q61 339 64 326.5 Q67 314 73.5 304 Q80 294 90 287.5 Q100 281 115 281 Q144 281 156.5 303.5 Q169 326 169 351 L169 402 Q169 414 166 426.5 Q163 439 156.5 449.5 Q150 460 140 466.5 Q130 473 117 473 L94 473 L94 490 L117 490 Q130 490 140 496.5 Q150 503 156.5 513.5 Q163 524 166 536 Q169 548 169 560 L169 588 Z " />
<glyph glyph-name="foursuperior" unicode="&#x2074;" horiz-adv-x="239" d="M165 364 L35 364 L35 387 L159 669 L179 669 L52 382 L165 382 L165 468 L185 468 L185 270 L165 270 L165 364 Z " />
<glyph glyph-name="fivesuperior" unicode="&#x2075;" horiz-adv-x="239" d="M46 669 L190 669 L190 652 L66 652 L66 497 Q73 511 88 523.5 Q103 536 126 536 Q156 536 173 512.5 Q190 489 190 445 L190 356 Q190 311 172 287.5 Q154 264 118 264 Q83 264 64.5 287 Q46 310 46 354 L46 363 L66 363 L66 351 Q66 339 69 326.5 Q72 314 78 304 Q84 294 94 287.5 Q104 281 118 281 Q147 281 159 303.5 Q171 326 171 351 L171 450 Q171 475 160 497 Q149 519 124 519 Q101 519 88 504 Q75 489 69 475 L46 475 L46 669 Z " />
<glyph glyph-name="sixsuperior" unicode="&#x2076;" horiz-adv-x="239" d="M172 582 L172 588 Q172 615 160 636.5 Q148 658 119 658 Q105 658 95 651.5 Q85 645 79 635 Q73 625 70 612.5 Q67 600 67 588 L67 475 Q73 491 88 502.5 Q103 514 123 514 Q191 514 191 422 L191 355 Q191 264 119 264 Q83 264 65.5 287.5 Q48 311 48 356 L48 583 Q48 675 119 675 Q191 675 191 588 L191 582 L172 582 Z M119 281 Q148 281 160 302.5 Q172 324 172 351 L172 427 Q172 452 160 474.5 Q148 497 119 497 Q92 497 79.5 474 Q67 451 67 427 L67 351 Q67 339 70 326.5 Q73 314 79 304 Q85 294 95 287.5 Q105 281 119 281 Z " />
<glyph glyph-name="sevensuperior" unicode="&#x2077;" horiz-adv-x="239" d="M56 270 L184 652 L35 652 L35 669 L201 669 L201 647 L76 270 L56 270 Z " />
<glyph glyph-name="eightsuperior" unicode="&#x2078;" horiz-adv-x="239" d="M48 595 Q48 675 119 675 Q191 675 191 596 L191 562 Q191 533 173.5 514.5 Q156 496 132 476 Q155 457 173 433.5 Q191 410 191 375 L191 344 Q191 307 172.5 285.5 Q154 264 119 264 Q48 264 48 343 L48 377 Q48 412 65 434.5 Q82 457 105 476 Q82 496 65 516 Q48 536 48 565 L48 595 Z M67 341 Q67 319 78.5 300 Q90 281 119 281 Q148 281 160 300 Q172 319 172 341 L172 374 Q172 406 155.5 427.5 Q139 449 119 464 Q99 449 83 429 Q67 409 67 374 L67 341 Z M67 568 Q67 543 80.5 525 Q94 507 119 488 Q144 507 158 524 Q172 541 172 568 L172 598 Q172 620 160 639 Q148 658 119 658 Q90 658 78.5 639.5 Q67 621 67 598 L67 568 Z " />
<glyph glyph-name="ninesuperior" unicode="&#x2079;" horiz-adv-x="239" d="M67 357 L67 351 Q67 324 78.5 302.5 Q90 281 119 281 Q148 281 160 302.5 Q172 324 172 351 L172 464 Q165 448 150.5 436.5 Q136 425 116 425 Q48 425 48 517 L48 584 Q48 675 119 675 Q155 675 173 651.5 Q191 628 191 583 L191 356 Q191 313 173 288.5 Q155 264 119 264 Q48 264 48 351 L48 357 L67 357 Z M119 658 Q90 658 78.5 636.5 Q67 615 67 588 L67 512 Q67 500 70 487.5 Q73 475 79 465 Q85 455 95 448.5 Q105 442 119 442 Q133 442 143 448.5 Q153 455 159.5 465 Q166 475 169 487.5 Q172 500 172 512 L172 588 Q172 613 160 635.5 Q148 658 119 658 Z " />
<glyph glyph-name="onehalf" unicode="&#xbd;" horiz-adv-x="555" d="M139 270 L139 649 L49 594 L38 610 L134 669 L160 669 L160 270 L139 270 Z M149 0 L129 0 L407 665 L426 665 L149 0 Z M362 312 L362 317 Q362 405 439 405 Q477 405 494 385 Q511 365 511 326 L511 309 Q511 277 497 245.5 Q483 214 460 169 L381 17 L511 17 L511 0 L363 0 L363 22 L439 169 Q464 218 478 250 Q492 282 492 309 L492 325 Q492 358 479.5 373 Q467 388 439 388 Q407 388 394.5 369 Q382 350 382 318 L382 312 L362 312 Z " />
<glyph glyph-name="onequarter" unicode="&#xbc;" horiz-adv-x="555" d="M139 270 L139 649 L49 594 L38 610 L134 669 L160 669 L160 270 L139 270 Z M159 0 L139 0 L417 665 L436 665 L159 0 Z M481 94 L351 94 L351 117 L475 399 L495 399 L368 112 L481 112 L481 198 L501 198 L501 0 L481 0 L481 94 Z " />
<glyph glyph-name="threequarters" unicode="&#xbe;" horiz-adv-x="555" d="M169 588 Q169 613 156.5 635.5 Q144 658 115 658 Q86 658 73.5 635.5 Q61 613 61 588 L61 576 L42 576 L42 583 Q42 628 60 651.5 Q78 675 115 675 Q151 675 169.5 652 Q188 629 188 586 L188 565 Q188 533 176 511.5 Q164 490 144 482 L144 481 Q164 474 176 451 Q188 428 188 398 L188 354 Q188 264 115 264 Q42 264 42 354 L42 363 L61 363 L61 351 Q61 339 64 326.5 Q67 314 73.5 304 Q80 294 90 287.5 Q100 281 115 281 Q144 281 156.5 303.5 Q169 326 169 351 L169 402 Q169 414 166 426.5 Q163 439 156.5 449.5 Q150 460 140 466.5 Q130 473 117 473 L94 473 L94 490 L117 490 Q130 490 140 496.5 Q150 503 156.5 513.5 Q163 524 166 536 Q169 548 169 560 L169 588 Z M169 0 L149 0 L427 665 L446 665 L169 0 Z M481 94 L351 94 L351 117 L475 399 L495 399 L368 112 L481 112 L481 198 L501 198 L501 0 L481 0 L481 94 Z " />
<glyph glyph-name="onethird" unicode="&#x2153;" horiz-adv-x="555" d="M139 270 L139 649 L49 594 L38 610 L134 669 L160 669 L160 270 L139 270 Z M139 0 L119 0 L397 665 L416 665 L139 0 Z M485 318 Q485 343 472.5 365.5 Q460 388 431 388 Q402 388 389.5 365.5 Q377 343 377 318 L377 306 L358 306 L358 313 Q358 358 376 381.5 Q394 405 431 405 Q467 405 485.5 382 Q504 359 504 316 L504 295 Q504 263 492 241.5 Q480 220 460 212 L460 211 Q480 204 492 181 Q504 158 504 128 L504 84 Q504 -6 431 -6 Q358 -6 358 84 L358 93 L377 93 L377 81 Q377 69 380 56.5 Q383 44 389.5 34 Q396 24 406 17.5 Q416 11 431 11 Q460 11 472.5 33.5 Q485 56 485 81 L485 132 Q485 144 482 156.5 Q479 169 472.5 179.5 Q466 190 456 196.5 Q446 203 433 203 L410 203 L410 220 L433 220 Q446 220 456 226.5 Q466 233 472.5 243.5 Q479 254 482 266 Q485 278 485 290 L485 318 Z " />
<glyph glyph-name="twothirds" unicode="&#x2154;" horiz-adv-x="555" d="M46 582 L46 587 Q46 675 123 675 Q161 675 178 655 Q195 635 195 596 L195 579 Q195 547 181 515.5 Q167 484 144 439 L65 287 L195 287 L195 270 L47 270 L47 292 L123 439 Q148 488 162 520 Q176 552 176 579 L176 595 Q176 628 163.5 643 Q151 658 123 658 Q91 658 78.5 639 Q66 620 66 588 L66 582 L46 582 Z M156 0 L136 0 L414 665 L433 665 L156 0 Z M485 318 Q485 343 472.5 365.5 Q460 388 431 388 Q402 388 389.5 365.5 Q377 343 377 318 L377 306 L358 306 L358 313 Q358 358 376 381.5 Q394 405 431 405 Q467 405 485.5 382 Q504 359 504 316 L504 295 Q504 263 492 241.5 Q480 220 460 212 L460 211 Q480 204 492 181 Q504 158 504 128 L504 84 Q504 -6 431 -6 Q358 -6 358 84 L358 93 L377 93 L377 81 Q377 69 380 56.5 Q383 44 389.5 34 Q396 24 406 17.5 Q416 11 431 11 Q460 11 472.5 33.5 Q485 56 485 81 L485 132 Q485 144 482 156.5 Q479 169 472.5 179.5 Q466 190 456 196.5 Q446 203 433 203 L410 203 L410 220 L433 220 Q446 220 456 226.5 Q466 233 472.5 243.5 Q479 254 482 266 Q485 278 485 290 L485 318 Z " />
<glyph glyph-name="oneeighth" unicode="&#x215b;" horiz-adv-x="555" d="M139 270 L139 649 L49 594 L38 610 L134 669 L160 669 L160 270 L139 270 Z M140 0 L120 0 L398 665 L417 665 L140 0 Z M364 325 Q364 405 435 405 Q507 405 507 326 L507 292 Q507 263 489.5 244.5 Q472 226 448 206 Q471 187 489 163.5 Q507 140 507 105 L507 74 Q507 37 488.5 15.5 Q470 -6 435 -6 Q364 -6 364 73 L364 107 Q364 142 381 164.5 Q398 187 421 206 Q398 226 381 246 Q364 266 364 295 L364 325 Z M383 71 Q383 49 394.5 30 Q406 11 435 11 Q464 11 476 30 Q488 49 488 71 L488 104 Q488 136 471.5 157.5 Q455 179 435 194 Q415 179 399 159 Q383 139 383 104 L383 71 Z M383 298 Q383 273 396.5 255 Q410 237 435 218 Q460 237 474 254 Q488 271 488 298 L488 328 Q488 350 476 369 Q464 388 435 388 Q406 388 394.5 369.5 Q383 351 383 328 L383 298 Z " />
<glyph glyph-name="threeeighths" unicode="&#x215c;" horiz-adv-x="555" d="M169 588 Q169 613 156.5 635.5 Q144 658 115 658 Q86 658 73.5 635.5 Q61 613 61 588 L61 576 L42 576 L42 583 Q42 628 60 651.5 Q78 675 115 675 Q151 675 169.5 652 Q188 629 188 586 L188 565 Q188 533 176 511.5 Q164 490 144 482 L144 481 Q164 474 176 451 Q188 428 188 398 L188 354 Q188 264 115 264 Q42 264 42 354 L42 363 L61 363 L61 351 Q61 339 64 326.5 Q67 314 73.5 304 Q80 294 90 287.5 Q100 281 115 281 Q144 281 156.5 303.5 Q169 326 169 351 L169 402 Q169 414 166 426.5 Q163 439 156.5 449.5 Q150 460 140 466.5 Q130 473 117 473 L94 473 L94 490 L117 490 Q130 490 140 496.5 Q150 503 156.5 513.5 Q163 524 166 536 Q169 548 169 560 L169 588 Z M149 0 L129 0 L407 665 L426 665 L149 0 Z M364 325 Q364 405 435 405 Q507 405 507 326 L507 292 Q507 263 489.5 244.5 Q472 226 448 206 Q471 187 489 163.5 Q507 140 507 105 L507 74 Q507 37 488.5 15.5 Q470 -6 435 -6 Q364 -6 364 73 L364 107 Q364 142 381 164.5 Q398 187 421 206 Q398 226 381 246 Q364 266 364 295 L364 325 Z M383 71 Q383 49 394.5 30 Q406 11 435 11 Q464 11 476 30 Q488 49 488 71 L488 104 Q488 136 471.5 157.5 Q455 179 435 194 Q415 179 399 159 Q383 139 383 104 L383 71 Z M383 298 Q383 273 396.5 255 Q410 237 435 218 Q460 237 474 254 Q488 271 488 298 L488 328 Q488 350 476 369 Q464 388 435 388 Q406 388 394.5 369.5 Q383 351 383 328 L383 298 Z " />
</font>
</svg>
